STARTFONT 2.1
COMMENT ISO10646-1 extension by Markus Kuhn <mkuhn@acm.org>, 2001-03-20
COMMENT 
COMMENT +
COMMENT  Copyright 1984-1989, 1994 Adobe Systems Incorporated.
COMMENT  Copyright 1988, 1994 Digital Equipment Corporation.
COMMENT 
COMMENT  Adobe is a trademark of Adobe Systems Incorporated which may be
COMMENT  registered in certain jurisdictions.
COMMENT  Permission to use these trademarks is hereby granted only in
COMMENT  association with the images described in this file.
COMMENT 
COMMENT  Permission to use, copy, modify, distribute and sell this software
COMMENT  and its documentation for any purpose and without fee is hereby
COMMENT  granted, provided that the above copyright notices appear in all
COMMENT  copies and that both those copyright notices and this permission
COMMENT  notice appear in supporting documentation, and that the names of
COMMENT  Adobe Systems and Digital Equipment Corporation not be used in
COMMENT  advertising or publicity pertaining to distribution of the software
COMMENT  without specific, written prior permission.  Adobe Systems and
COMMENT  Digital Equipment Corporation make no representations about the
COMMENT  suitability of this software for any purpose.  It is provided "as
COMMENT  is" without express or implied warranty.
COMMENT -
FONT -Adobe-Helvetica-Medium-R-Normal--14-100-100-100-P-76-ISO10646-1
SIZE 10 100 100
FONTBOUNDINGBOX 32 25 -15 -8
STARTPROPERTIES 27
FOUNDRY "Adobe"
FAMILY_NAME "Helvetica"
WEIGHT_NAME "Medium"
SLANT "R"
SETWIDTH_NAME "Normal"
ADD_STYLE_NAME ""
PIXEL_SIZE 14
POINT_SIZE 100
RESOLUTION_X 100
RESOLUTION_Y 100
SPACING "P"
AVERAGE_WIDTH 76
CHARSET_REGISTRY "ISO10646"
CHARSET_ENCODING "1"
CAP_HEIGHT 11
X_HEIGHT 8
FONT_ASCENT 13
FONT_DESCENT 3
FACE_NAME "Helvetica"
COPYRIGHT "Copyright (c) 1984, 1987 Adobe Systems Incorporated. All Rights Reserved. Copyright (c) 1988, 1991 Digital Equipment Corporation. All Rights Reserved."

STARTCHAR fi
ENCODING -1
SWIDTH 432 0
DWIDTH 6 0
BBX 5 11 0 0
BITMAP
38
40
40
E8
48
48
48
48
48
48
48
ENDCHAR
STARTCHAR char0
ENCODING 0
SWIDTH 720 0
DWIDTH 10 0
BBX 7 11 1 0
BITMAP
AA
00
82
00
82
00
82
00
82
00
AA
ENDCHAR
STARTCHAR space
ENCODING 32
SWIDTH 288 0
DWIDTH 4 0
BBX 0 0 0 0
BITMAP
ENDCHAR
STARTCHAR exclam
ENCODING 33
SWIDTH 288 0
DWIDTH 4 0
BBX 1 11 2 0
BITMAP
80
80
80
80
80
80
80
80
00
80
80
ENDCHAR
STARTCHAR quotedbl
ENCODING 34
SWIDTH 360 0
DWIDTH 5 0
BBX 3 3 1 8
BITMAP
A0
A0
A0
ENDCHAR
STARTCHAR numbersign
ENCODING 35
SWIDTH 576 0
DWIDTH 8 0
BBX 7 10 0 0
BITMAP
14
14
14
7E
28
28
FC
50
50
50
ENDCHAR
STARTCHAR dollar
ENCODING 36
SWIDTH 576 0
DWIDTH 8 0
BBX 7 14 0 -2
BITMAP
10
7C
92
92
90
50
38
14
12
92
92
7C
10
10
ENDCHAR
STARTCHAR percent
ENCODING 37
SWIDTH 864 0
DWIDTH 12 0
BBX 11 11 0 0
BITMAP
7080
8900
8900
7200
0200
0400
0800
09C0
1220
1220
21C0
ENDCHAR
STARTCHAR ampersand
ENCODING 38
SWIDTH 720 0
DWIDTH 10 0
BBX 8 10 1 0
BITMAP
30
48
48
30
20
52
8A
84
8A
71
ENDCHAR
STARTCHAR quotesingle
ENCODING 39
SWIDTH 216 0
DWIDTH 3 0
BBX 1 3 1 8
BITMAP
80
80
80
ENDCHAR
STARTCHAR parenleft
ENCODING 40
SWIDTH 360 0
DWIDTH 5 0
BBX 3 14 1 -3
BITMAP
20
40
40
80
80
80
80
80
80
80
80
40
40
20
ENDCHAR
STARTCHAR parenright
ENCODING 41
SWIDTH 360 0
DWIDTH 5 0
BBX 3 14 1 -3
BITMAP
80
40
40
20
20
20
20
20
20
20
20
40
40
80
ENDCHAR
STARTCHAR asterisk
ENCODING 42
SWIDTH 504 0
DWIDTH 7 0
BBX 5 5 1 6
BITMAP
20
A8
70
A8
20
ENDCHAR
STARTCHAR plus
ENCODING 43
SWIDTH 648 0
DWIDTH 9 0
BBX 7 7 1 1
BITMAP
10
10
10
FE
10
10
10
ENDCHAR
STARTCHAR comma
ENCODING 44
SWIDTH 216 0
DWIDTH 3 0
BBX 2 4 0 -2
BITMAP
40
40
40
80
ENDCHAR
STARTCHAR hyphen
ENCODING 45
SWIDTH 288 0
DWIDTH 4 0
BBX 3 1 0 4
BITMAP
E0
ENDCHAR
STARTCHAR period
ENCODING 46
SWIDTH 216 0
DWIDTH 3 0
BBX 1 2 1 0
BITMAP
80
80
ENDCHAR
STARTCHAR slash
ENCODING 47
SWIDTH 288 0
DWIDTH 4 0
BBX 4 11 0 0
BITMAP
10
10
20
20
20
40
40
40
80
80
80
ENDCHAR
STARTCHAR zero
ENCODING 48
SWIDTH 576 0
DWIDTH 8 0
BBX 6 11 1 0
BITMAP
78
84
84
84
84
84
84
84
84
84
78
ENDCHAR
STARTCHAR one
ENCODING 49
SWIDTH 576 0
DWIDTH 8 0
BBX 3 11 2 0
BITMAP
20
E0
20
20
20
20
20
20
20
20
20
ENDCHAR
STARTCHAR two
ENCODING 50
SWIDTH 576 0
DWIDTH 8 0
BBX 6 11 1 0
BITMAP
78
84
84
04
08
10
20
40
80
80
FC
ENDCHAR
STARTCHAR three
ENCODING 51
SWIDTH 576 0
DWIDTH 8 0
BBX 6 11 1 0
BITMAP
78
84
84
04
04
38
04
04
84
84
78
ENDCHAR
STARTCHAR four
ENCODING 52
SWIDTH 576 0
DWIDTH 8 0
BBX 7 11 1 0
BITMAP
04
0C
14
24
44
84
84
FE
04
04
04
ENDCHAR
STARTCHAR five
ENCODING 53
SWIDTH 576 0
DWIDTH 8 0
BBX 6 11 1 0
BITMAP
FC
80
80
80
F8
04
04
04
84
84
78
ENDCHAR
STARTCHAR six
ENCODING 54
SWIDTH 576 0
DWIDTH 8 0
BBX 6 11 1 0
BITMAP
78
84
80
80
B8
C4
84
84
84
84
78
ENDCHAR
STARTCHAR seven
ENCODING 55
SWIDTH 576 0
DWIDTH 8 0
BBX 6 11 1 0
BITMAP
FC
04
08
08
10
10
20
20
40
40
40
ENDCHAR
STARTCHAR eight
ENCODING 56
SWIDTH 576 0
DWIDTH 8 0
BBX 6 11 1 0
BITMAP
78
84
84
84
84
78
84
84
84
84
78
ENDCHAR
STARTCHAR nine
ENCODING 57
SWIDTH 576 0
DWIDTH 8 0
BBX 6 11 1 0
BITMAP
78
84
84
84
84
7C
04
04
84
84
78
ENDCHAR
STARTCHAR colon
ENCODING 58
SWIDTH 216 0
DWIDTH 3 0
BBX 1 8 1 0
BITMAP
80
80
00
00
00
00
80
80
ENDCHAR
STARTCHAR semicolon
ENCODING 59
SWIDTH 288 0
DWIDTH 4 0
BBX 2 10 0 -2
BITMAP
40
40
00
00
00
00
40
40
40
80
ENDCHAR
STARTCHAR less
ENCODING 60
SWIDTH 576 0
DWIDTH 8 0
BBX 6 5 1 2
BITMAP
0C
30
C0
30
0C
ENDCHAR
STARTCHAR equal
ENCODING 61
SWIDTH 648 0
DWIDTH 9 0
BBX 6 3 1 3
BITMAP
FC
00
FC
ENDCHAR
STARTCHAR greater
ENCODING 62
SWIDTH 576 0
DWIDTH 8 0
BBX 6 5 1 2
BITMAP
C0
30
0C
30
C0
ENDCHAR
STARTCHAR question
ENCODING 63
SWIDTH 576 0
DWIDTH 8 0
BBX 6 11 1 0
BITMAP
30
CC
84
84
04
08
10
20
00
20
20
ENDCHAR
STARTCHAR at
ENCODING 64
SWIDTH 936 0
DWIDTH 13 0
BBX 11 12 1 -1
BITMAP
0F00
30C0
4020
46A0
8920
9120
9120
9340
8D80
4000
6080
1F00
ENDCHAR
STARTCHAR A
ENCODING 65
SWIDTH 648 0
DWIDTH 9 0
BBX 9 11 0 0
BITMAP
0800
1C00
1400
1400
2200
2200
4100
7F00
4100
8080
8080
ENDCHAR
STARTCHAR B
ENCODING 66
SWIDTH 648 0
DWIDTH 9 0
BBX 7 11 1 0
BITMAP
FC
86
82
82
84
F8
84
82
82
86
FC
ENDCHAR
STARTCHAR C
ENCODING 67
SWIDTH 720 0
DWIDTH 10 0
BBX 8 11 1 0
BITMAP
1C
63
41
80
80
80
80
80
41
63
1C
ENDCHAR
STARTCHAR D
ENCODING 68
SWIDTH 720 0
DWIDTH 10 0
BBX 8 11 1 0
BITMAP
F8
86
82
81
81
81
81
81
82
86
F8
ENDCHAR
STARTCHAR E
ENCODING 69
SWIDTH 648 0
DWIDTH 9 0
BBX 7 11 1 0
BITMAP
FE
80
80
80
80
FC
80
80
80
80
FE
ENDCHAR
STARTCHAR F
ENCODING 70
SWIDTH 576 0
DWIDTH 8 0
BBX 7 11 1 0
BITMAP
FE
80
80
80
80
FC
80
80
80
80
80
ENDCHAR
STARTCHAR G
ENCODING 71
SWIDTH 792 0
DWIDTH 11 0
BBX 9 11 1 0
BITMAP
1E00
6180
4080
8000
8000
8780
8080
8080
4080
6380
1C80
ENDCHAR
STARTCHAR H
ENCODING 72
SWIDTH 720 0
DWIDTH 10 0
BBX 8 11 1 0
BITMAP
81
81
81
81
81
FF
81
81
81
81
81
ENDCHAR
STARTCHAR I
ENCODING 73
SWIDTH 288 0
DWIDTH 4 0
BBX 1 11 2 0
BITMAP
80
80
80
80
80
80
80
80
80
80
80
ENDCHAR
STARTCHAR J
ENCODING 74
SWIDTH 504 0
DWIDTH 7 0
BBX 6 11 0 0
BITMAP
04
04
04
04
04
04
04
04
84
84
78
ENDCHAR
STARTCHAR K
ENCODING 75
SWIDTH 648 0
DWIDTH 9 0
BBX 8 11 1 0
BITMAP
82
84
88
90
A0
E0
90
88
84
82
81
ENDCHAR
STARTCHAR L
ENCODING 76
SWIDTH 576 0
DWIDTH 8 0
BBX 6 11 2 0
BITMAP
80
80
80
80
80
80
80
80
80
80
FC
ENDCHAR
STARTCHAR M
ENCODING 77
SWIDTH 864 0
DWIDTH 12 0
BBX 11 11 0 0
BITMAP
8020
C060
C060
A0A0
A0A0
9120
9120
8A20
8A20
8420
8420
ENDCHAR
STARTCHAR N
ENCODING 78
SWIDTH 720 0
DWIDTH 10 0
BBX 8 11 1 0
BITMAP
C1
A1
A1
91
91
89
89
85
85
83
83
ENDCHAR
STARTCHAR O
ENCODING 79
SWIDTH 792 0
DWIDTH 11 0
BBX 9 11 1 0
BITMAP
1C00
6300
4100
8080
8080
8080
8080
8080
4100
6300
1C00
ENDCHAR
STARTCHAR P
ENCODING 80
SWIDTH 648 0
DWIDTH 9 0
BBX 7 11 1 0
BITMAP
FC
86
82
82
86
FC
80
80
80
80
80
ENDCHAR
STARTCHAR Q
ENCODING 81
SWIDTH 792 0
DWIDTH 11 0
BBX 9 11 1 0
BITMAP
1C00
6300
4100
8080
8080
8080
8880
8480
4300
6300
1C80
ENDCHAR
STARTCHAR R
ENCODING 82
SWIDTH 720 0
DWIDTH 10 0
BBX 8 11 1 0
BITMAP
FE
83
81
81
82
FC
82
81
81
81
81
ENDCHAR
STARTCHAR S
ENCODING 83
SWIDTH 648 0
DWIDTH 9 0
BBX 7 11 1 0
BITMAP
38
C6
82
80
60
18
06
02
82
C6
38
ENDCHAR
STARTCHAR T
ENCODING 84
SWIDTH 648 0
DWIDTH 9 0
BBX 9 11 0 0
BITMAP
FF80
0800
0800
0800
0800
0800
0800
0800
0800
0800
0800
ENDCHAR
STARTCHAR U
ENCODING 85
SWIDTH 720 0
DWIDTH 10 0
BBX 8 11 1 0
BITMAP
81
81
81
81
81
81
81
81
81
42
3C
ENDCHAR
STARTCHAR V
ENCODING 86
SWIDTH 648 0
DWIDTH 9 0
BBX 9 11 0 0
BITMAP
8080
8080
4100
4100
6300
2200
2200
1400
1400
0800
0800
ENDCHAR
STARTCHAR W
ENCODING 87
SWIDTH 936 0
DWIDTH 13 0
BBX 13 11 0 0
BITMAP
8208
8208
8508
4510
4510
4510
28A0
28A0
28A0
1040
1040
ENDCHAR
STARTCHAR X
ENCODING 88
SWIDTH 648 0
DWIDTH 9 0
BBX 9 11 0 0
BITMAP
8080
4100
2200
1400
0800
0800
1400
2200
4100
4100
8080
ENDCHAR
STARTCHAR Y
ENCODING 89
SWIDTH 648 0
DWIDTH 9 0
BBX 9 11 0 0
BITMAP
8080
C180
4100
2200
2200
1400
1C00
0800
0800
0800
0800
ENDCHAR
STARTCHAR Z
ENCODING 90
SWIDTH 648 0
DWIDTH 9 0
BBX 7 11 1 0
BITMAP
FE
02
04
08
18
10
20
60
40
80
FE
ENDCHAR
STARTCHAR bracketleft
ENCODING 91
SWIDTH 288 0
DWIDTH 4 0
BBX 3 14 1 -3
BITMAP
E0
80
80
80
80
80
80
80
80
80
80
80
80
E0
ENDCHAR
STARTCHAR backslash
ENCODING 92
SWIDTH 288 0
DWIDTH 4 0
BBX 4 11 0 0
BITMAP
80
80
40
40
40
20
20
20
10
10
10
ENDCHAR
STARTCHAR bracketright
ENCODING 93
SWIDTH 288 0
DWIDTH 4 0
BBX 3 14 0 -3
BITMAP
E0
20
20
20
20
20
20
20
20
20
20
20
20
E0
ENDCHAR
STARTCHAR asciicircum
ENCODING 94
SWIDTH 504 0
DWIDTH 7 0
BBX 5 5 1 6
BITMAP
20
50
50
88
88
ENDCHAR
STARTCHAR underscore
ENCODING 95
SWIDTH 576 0
DWIDTH 8 0
BBX 8 1 0 -3
BITMAP
FF
ENDCHAR
STARTCHAR grave
ENCODING 96
SWIDTH 360 0
DWIDTH 5 0
BBX 2 2 1 9
BITMAP
80
40
ENDCHAR
STARTCHAR a
ENCODING 97
SWIDTH 576 0
DWIDTH 8 0
BBX 7 8 1 0
BITMAP
78
CC
04
7C
C4
84
CC
76
ENDCHAR
STARTCHAR b
ENCODING 98
SWIDTH 504 0
DWIDTH 7 0
BBX 6 11 1 0
BITMAP
80
80
80
B8
CC
84
84
84
84
CC
B8
ENDCHAR
STARTCHAR c
ENCODING 99
SWIDTH 504 0
DWIDTH 7 0
BBX 6 8 1 0
BITMAP
78
CC
80
80
80
84
CC
78
ENDCHAR
STARTCHAR d
ENCODING 100
SWIDTH 576 0
DWIDTH 8 0
BBX 6 11 1 0
BITMAP
04
04
04
74
CC
84
84
84
84
CC
74
ENDCHAR
STARTCHAR e
ENCODING 101
SWIDTH 576 0
DWIDTH 8 0
BBX 6 8 1 0
BITMAP
78
CC
84
FC
80
80
CC
78
ENDCHAR
STARTCHAR f
ENCODING 102
SWIDTH 288 0
DWIDTH 4 0
BBX 4 11 0 0
BITMAP
30
40
40
E0
40
40
40
40
40
40
40
ENDCHAR
STARTCHAR g
ENCODING 103
SWIDTH 576 0
DWIDTH 8 0
BBX 6 11 1 -3
BITMAP
74
CC
84
84
84
84
CC
74
04
CC
78
ENDCHAR
STARTCHAR h
ENCODING 104
SWIDTH 576 0
DWIDTH 8 0
BBX 6 11 1 0
BITMAP
80
80
80
B8
CC
84
84
84
84
84
84
ENDCHAR
STARTCHAR i
ENCODING 105
SWIDTH 216 0
DWIDTH 3 0
BBX 1 11 1 0
BITMAP
80
80
00
80
80
80
80
80
80
80
80
ENDCHAR
STARTCHAR j
ENCODING 106
SWIDTH 216 0
DWIDTH 3 0
BBX 3 14 -1 -3
BITMAP
20
20
00
20
20
20
20
20
20
20
20
20
20
C0
ENDCHAR
STARTCHAR k
ENCODING 107
SWIDTH 504 0
DWIDTH 7 0
BBX 6 11 1 0
BITMAP
80
80
80
88
90
A0
C0
A0
90
88
84
ENDCHAR
STARTCHAR l
ENCODING 108
SWIDTH 216 0
DWIDTH 3 0
BBX 1 11 1 0
BITMAP
80
80
80
80
80
80
80
80
80
80
80
ENDCHAR
STARTCHAR m
ENCODING 109
SWIDTH 792 0
DWIDTH 11 0
BBX 9 8 1 0
BITMAP
B300
CC80
8880
8880
8880
8880
8880
8880
ENDCHAR
STARTCHAR n
ENCODING 110
SWIDTH 576 0
DWIDTH 8 0
BBX 6 8 1 0
BITMAP
B8
CC
84
84
84
84
84
84
ENDCHAR
STARTCHAR o
ENCODING 111
SWIDTH 576 0
DWIDTH 8 0
BBX 6 8 1 0
BITMAP
78
CC
84
84
84
84
CC
78
ENDCHAR
STARTCHAR p
ENCODING 112
SWIDTH 576 0
DWIDTH 8 0
BBX 6 11 1 -3
BITMAP
B8
CC
84
84
84
84
CC
B8
80
80
80
ENDCHAR
STARTCHAR q
ENCODING 113
SWIDTH 576 0
DWIDTH 8 0
BBX 6 11 1 -3
BITMAP
74
CC
84
84
84
84
CC
74
04
04
04
ENDCHAR
STARTCHAR r
ENCODING 114
SWIDTH 360 0
DWIDTH 5 0
BBX 4 8 1 0
BITMAP
B0
C0
80
80
80
80
80
80
ENDCHAR
STARTCHAR s
ENCODING 115
SWIDTH 504 0
DWIDTH 7 0
BBX 5 8 1 0
BITMAP
70
88
C0
70
18
08
88
70
ENDCHAR
STARTCHAR t
ENCODING 116
SWIDTH 288 0
DWIDTH 4 0
BBX 4 10 0 0
BITMAP
40
40
E0
40
40
40
40
40
40
30
ENDCHAR
STARTCHAR u
ENCODING 117
SWIDTH 504 0
DWIDTH 7 0
BBX 6 8 1 0
BITMAP
84
84
84
84
84
84
CC
74
ENDCHAR
STARTCHAR v
ENCODING 118
SWIDTH 504 0
DWIDTH 7 0
BBX 7 8 0 0
BITMAP
82
82
44
44
44
28
28
10
ENDCHAR
STARTCHAR w
ENCODING 119
SWIDTH 720 0
DWIDTH 10 0
BBX 9 8 0 0
BITMAP
8880
8880
8880
4900
4900
5500
2200
2200
ENDCHAR
STARTCHAR x
ENCODING 120
SWIDTH 504 0
DWIDTH 7 0
BBX 7 8 0 0
BITMAP
C6
44
28
10
10
28
44
C6
ENDCHAR
STARTCHAR y
ENCODING 121
SWIDTH 504 0
DWIDTH 7 0
BBX 7 11 0 -3
BITMAP
82
C2
44
44
24
28
18
10
10
30
60
ENDCHAR
STARTCHAR z
ENCODING 122
SWIDTH 504 0
DWIDTH 7 0
BBX 6 8 0 0
BITMAP
FC
04
08
10
20
40
80
FC
ENDCHAR
STARTCHAR braceleft
ENCODING 123
SWIDTH 360 0
DWIDTH 5 0
BBX 5 14 0 -3
BITMAP
18
20
20
20
20
40
80
40
20
20
20
20
20
18
ENDCHAR
STARTCHAR bar
ENCODING 124
SWIDTH 216 0
DWIDTH 3 0
BBX 1 14 1 -3
BITMAP
80
80
80
80
80
80
80
80
80
80
80
80
80
80
ENDCHAR
STARTCHAR braceright
ENCODING 125
SWIDTH 360 0
DWIDTH 5 0
BBX 5 14 0 -3
BITMAP
C0
20
20
20
20
10
08
10
20
20
20
20
20
C0
ENDCHAR
STARTCHAR asciitilde
ENCODING 126
SWIDTH 576 0
DWIDTH 8 0
BBX 6 3 1 3
BITMAP
64
B4
98
ENDCHAR
STARTCHAR space
ENCODING 160
SWIDTH 288 0
DWIDTH 4 0
BBX 0 0 0 0
BITMAP
ENDCHAR
STARTCHAR exclamdown
ENCODING 161
SWIDTH 288 0
DWIDTH 4 0
BBX 1 11 1 -3
BITMAP
80
80
00
80
80
80
80
80
80
80
80
ENDCHAR
STARTCHAR cent
ENCODING 162
SWIDTH 576 0
DWIDTH 8 0
BBX 6 10 1 -1
BITMAP
04
78
CC
90
90
A0
A4
CC
78
80
ENDCHAR
STARTCHAR sterling
ENCODING 163
SWIDTH 576 0
DWIDTH 8 0
BBX 7 11 0 0
BITMAP
38
44
40
40
F8
20
20
20
40
62
DC
ENDCHAR
STARTCHAR currency
ENCODING 164
SWIDTH 576 0
DWIDTH 8 0
BBX 6 6 1 2
BITMAP
84
78
48
48
78
84
ENDCHAR
STARTCHAR yen
ENCODING 165
SWIDTH 504 0
DWIDTH 7 0
BBX 7 11 0 0
BITMAP
82
82
82
44
44
28
FE
10
FE
10
10
ENDCHAR
STARTCHAR brokenbar
ENCODING 166
SWIDTH 216 0
DWIDTH 3 0
BBX 1 14 1 -3
BITMAP
80
80
80
80
80
80
00
00
80
80
80
80
80
80
ENDCHAR
STARTCHAR section
ENCODING 167
SWIDTH 576 0
DWIDTH 8 0
BBX 5 14 2 -3
BITMAP
70
D8
88
C0
70
98
88
88
C8
70
18
88
D8
70
ENDCHAR
STARTCHAR dieresis
ENCODING 168
SWIDTH 360 0
DWIDTH 5 0
BBX 5 1 0 9
BITMAP
D8
ENDCHAR
STARTCHAR copyright
ENCODING 169
SWIDTH 864 0
DWIDTH 12 0
BBX 10 11 1 0
BITMAP
1E00
6180
5C80
A2C0
A240
A040
A240
9C40
4080
6180
1E00
ENDCHAR
STARTCHAR ordfeminine
ENCODING 170
SWIDTH 432 0
DWIDTH 6 0
BBX 4 7 1 4
BITMAP
E0
10
70
90
D0
00
F0
ENDCHAR
STARTCHAR guillemotleft
ENCODING 171
SWIDTH 576 0
DWIDTH 8 0
BBX 6 5 1 2
BITMAP
24
48
90
48
24
ENDCHAR
STARTCHAR logicalnot
ENCODING 172
SWIDTH 648 0
DWIDTH 9 0
BBX 7 4 1 2
BITMAP
FE
02
02
02
ENDCHAR
STARTCHAR hyphen
ENCODING 173
SWIDTH 288 0
DWIDTH 4 0
BBX 3 1 0 4
BITMAP
E0
ENDCHAR
STARTCHAR registered
ENCODING 174
SWIDTH 864 0
DWIDTH 12 0
BBX 10 11 1 0
BITMAP
1E00
6180
5C80
9240
9240
9C40
9240
9240
4080
6180
1E00
ENDCHAR
STARTCHAR macron
ENCODING 175
SWIDTH 288 0
DWIDTH 4 0
BBX 4 1 0 9
BITMAP
F0
ENDCHAR
STARTCHAR degree
ENCODING 176
SWIDTH 432 0
DWIDTH 6 0
BBX 4 4 1 7
BITMAP
60
90
90
60
ENDCHAR
STARTCHAR plusminus
ENCODING 177
SWIDTH 648 0
DWIDTH 9 0
BBX 7 9 1 0
BITMAP
10
10
10
FE
10
10
10
00
FE
ENDCHAR
STARTCHAR twosuperior
ENCODING 178
SWIDTH 360 0
DWIDTH 5 0
BBX 4 6 0 5
BITMAP
60
90
10
20
40
F0
ENDCHAR
STARTCHAR threesuperior
ENCODING 179
SWIDTH 360 0
DWIDTH 5 0
BBX 4 6 0 5
BITMAP
60
90
20
10
90
60
ENDCHAR
STARTCHAR acute
ENCODING 180
SWIDTH 360 0
DWIDTH 5 0
BBX 2 2 2 9
BITMAP
40
80
ENDCHAR
STARTCHAR mu
ENCODING 181
SWIDTH 576 0
DWIDTH 8 0
BBX 6 11 1 -3
BITMAP
84
84
84
84
84
84
CC
B4
80
80
80
ENDCHAR
STARTCHAR paragraph
ENCODING 182
SWIDTH 576 0
DWIDTH 8 0
BBX 7 14 0 -3
BITMAP
3E
74
F4
F4
F4
74
34
14
14
14
14
14
14
14
ENDCHAR
STARTCHAR periodcentered
ENCODING 183
SWIDTH 288 0
DWIDTH 4 0
BBX 2 1 1 4
BITMAP
C0
ENDCHAR
STARTCHAR cedilla
ENCODING 184
SWIDTH 360 0
DWIDTH 5 0
BBX 4 3 0 -3
BITMAP
20
90
60
ENDCHAR
STARTCHAR onesuperior
ENCODING 185
SWIDTH 360 0
DWIDTH 5 0
BBX 2 6 1 5
BITMAP
40
C0
40
40
40
40
ENDCHAR
STARTCHAR ordmasculine
ENCODING 186
SWIDTH 432 0
DWIDTH 6 0
BBX 4 7 1 4
BITMAP
60
90
90
90
60
00
F0
ENDCHAR
STARTCHAR guillemotright
ENCODING 187
SWIDTH 576 0
DWIDTH 8 0
BBX 6 5 1 2
BITMAP
90
48
24
48
90
ENDCHAR
STARTCHAR onequarter
ENCODING 188
SWIDTH 864 0
DWIDTH 12 0
BBX 10 11 1 0
BITMAP
4200
C200
4400
4400
4800
4880
0980
1280
1480
27C0
2080
ENDCHAR
STARTCHAR onehalf
ENCODING 189
SWIDTH 864 0
DWIDTH 12 0
BBX 9 11 1 0
BITMAP
4200
C200
4400
4400
4800
4B00
1480
1080
1100
2200
2780
ENDCHAR
STARTCHAR threequarters
ENCODING 190
SWIDTH 864 0
DWIDTH 12 0
BBX 11 11 0 0
BITMAP
6100
9100
2200
1200
9400
6440
04C0
0940
0A40
13E0
1040
ENDCHAR
STARTCHAR questiondown
ENCODING 191
SWIDTH 576 0
DWIDTH 8 0
BBX 6 11 1 -3
BITMAP
10
10
00
10
20
40
80
84
84
CC
30
ENDCHAR
STARTCHAR Agrave
ENCODING 192
SWIDTH 648 0
DWIDTH 9 0
BBX 9 14 0 0
BITMAP
1000
0800
0000
0800
1C00
1400
1400
2200
2200
4100
7F00
4100
8080
8080
ENDCHAR
STARTCHAR Aacute
ENCODING 193
SWIDTH 648 0
DWIDTH 9 0
BBX 9 14 0 0
BITMAP
0400
0800
0000
0800
1C00
1400
1400
2200
2200
4100
7F00
4100
8080
8080
ENDCHAR
STARTCHAR Acircumflex
ENCODING 194
SWIDTH 648 0
DWIDTH 9 0
BBX 9 14 0 0
BITMAP
0C00
1200
0000
0800
1C00
1400
1400
2200
2200
4100
7F00
4100
8080
8080
ENDCHAR
STARTCHAR Atilde
ENCODING 195
SWIDTH 648 0
DWIDTH 9 0
BBX 9 14 0 0
BITMAP
1A00
2C00
0000
0800
1C00
1400
1400
2200
2200
4100
7F00
4100
8080
8080
ENDCHAR
STARTCHAR Adieresis
ENCODING 196
SWIDTH 648 0
DWIDTH 9 0
BBX 9 13 0 0
BITMAP
3600
0000
0800
1C00
1400
1400
2200
2200
4100
7F00
4100
8080
8080
ENDCHAR
STARTCHAR Aring
ENCODING 197
SWIDTH 648 0
DWIDTH 9 0
BBX 9 14 0 0
BITMAP
0C00
1200
1200
0C00
0C00
1400
1400
2200
2200
4100
7F00
4100
8080
8080
ENDCHAR
STARTCHAR AE
ENCODING 198
SWIDTH 1008 0
DWIDTH 14 0
BBX 12 11 1 0
BITMAP
1FF0
1200
1200
2200
2200
23F0
7E00
4200
4200
8200
83F0
ENDCHAR
STARTCHAR Ccedilla
ENCODING 199
SWIDTH 720 0
DWIDTH 10 0
BBX 8 14 1 -3
BITMAP
1C
63
41
80
80
80
80
80
41
63
1C
08
24
18
ENDCHAR
STARTCHAR Egrave
ENCODING 200
SWIDTH 648 0
DWIDTH 9 0
BBX 7 14 1 0
BITMAP
20
10
00
FE
80
80
80
80
FC
80
80
80
80
FE
ENDCHAR
STARTCHAR Eacute
ENCODING 201
SWIDTH 648 0
DWIDTH 9 0
BBX 7 14 1 0
BITMAP
08
10
00
FE
80
80
80
80
FC
80
80
80
80
FE
ENDCHAR
STARTCHAR Ecircumflex
ENCODING 202
SWIDTH 648 0
DWIDTH 9 0
BBX 7 14 1 0
BITMAP
18
24
00
FE
80
80
80
80
FC
80
80
80
80
FE
ENDCHAR
STARTCHAR Edieresis
ENCODING 203
SWIDTH 648 0
DWIDTH 9 0
BBX 7 13 1 0
BITMAP
6C
00
FE
80
80
80
80
FC
80
80
80
80
FE
ENDCHAR
STARTCHAR Igrave
ENCODING 204
SWIDTH 288 0
DWIDTH 4 0
BBX 2 14 1 0
BITMAP
80
40
00
40
40
40
40
40
40
40
40
40
40
40
ENDCHAR
STARTCHAR Iacute
ENCODING 205
SWIDTH 288 0
DWIDTH 4 0
BBX 2 14 2 0
BITMAP
40
80
00
80
80
80
80
80
80
80
80
80
80
80
ENDCHAR
STARTCHAR Icircumflex
ENCODING 206
SWIDTH 288 0
DWIDTH 4 0
BBX 4 14 1 0
BITMAP
60
90
00
40
40
40
40
40
40
40
40
40
40
40
ENDCHAR
STARTCHAR Idieresis
ENCODING 207
SWIDTH 288 0
DWIDTH 4 0
BBX 5 13 0 0
BITMAP
D8
00
20
20
20
20
20
20
20
20
20
20
20
ENDCHAR
STARTCHAR Eth
ENCODING 208
SWIDTH 720 0
DWIDTH 10 0
BBX 9 11 0 0
BITMAP
7C00
4300
4100
4080
4080
F080
4080
4080
4100
4300
7C00
ENDCHAR
STARTCHAR Ntilde
ENCODING 209
SWIDTH 720 0
DWIDTH 10 0
BBX 8 14 1 0
BITMAP
1A
2C
00
C1
A1
A1
91
91
89
89
85
85
83
83
ENDCHAR
STARTCHAR Ograve
ENCODING 210
SWIDTH 792 0
DWIDTH 11 0
BBX 9 14 1 0
BITMAP
1000
0800
0000
1C00
6300
4100
8080
8080
8080
8080
8080
4100
6300
1C00
ENDCHAR
STARTCHAR Oacute
ENCODING 211
SWIDTH 792 0
DWIDTH 11 0
BBX 9 14 1 0
BITMAP
0400
0800
0000
1C00
6300
4100
8080
8080
8080
8080
8080
4100
6300
1C00
ENDCHAR
STARTCHAR Ocircumflex
ENCODING 212
SWIDTH 792 0
DWIDTH 11 0
BBX 9 14 1 0
BITMAP
0C00
1200
0000
1C00
6300
4100
8080
8080
8080
8080
8080
4100
6300
1C00
ENDCHAR
STARTCHAR Otilde
ENCODING 213
SWIDTH 792 0
DWIDTH 11 0
BBX 9 14 1 0
BITMAP
1A00
2C00
0000
1C00
6300
4100
8080
8080
8080
8080
8080
4100
6300
1C00
ENDCHAR
STARTCHAR Odieresis
ENCODING 214
SWIDTH 792 0
DWIDTH 11 0
BBX 9 13 1 0
BITMAP
3300
0000
1C00
6300
4100
8080
8080
8080
8080
8080
4100
6300
1C00
ENDCHAR
STARTCHAR multiply
ENCODING 215
SWIDTH 648 0
DWIDTH 9 0
BBX 7 7 1 1
BITMAP
82
44
28
10
28
44
82
ENDCHAR
STARTCHAR Oslash
ENCODING 216
SWIDTH 792 0
DWIDTH 11 0
BBX 11 11 0 0
BITMAP
0E20
31C0
2080
4140
4240
4440
4840
5040
2080
7180
8E00
ENDCHAR
STARTCHAR Ugrave
ENCODING 217
SWIDTH 720 0
DWIDTH 10 0
BBX 8 14 1 0
BITMAP
10
08
00
81
81
81
81
81
81
81
81
81
42
3C
ENDCHAR
STARTCHAR Uacute
ENCODING 218
SWIDTH 720 0
DWIDTH 10 0
BBX 8 14 1 0
BITMAP
04
08
00
81
81
81
81
81
81
81
81
81
42
3C
ENDCHAR
STARTCHAR Ucircumflex
ENCODING 219
SWIDTH 720 0
DWIDTH 10 0
BBX 8 14 1 0
BITMAP
18
24
00
81
81
81
81
81
81
81
81
81
42
3C
ENDCHAR
STARTCHAR Udieresis
ENCODING 220
SWIDTH 720 0
DWIDTH 10 0
BBX 8 13 1 0
BITMAP
66
00
81
81
81
81
81
81
81
81
81
42
3C
ENDCHAR
STARTCHAR Yacute
ENCODING 221
SWIDTH 648 0
DWIDTH 9 0
BBX 9 14 0 0
BITMAP
0400
0800
0000
8080
C180
4100
2200
2200
1400
1C00
0800
0800
0800
0800
ENDCHAR
STARTCHAR Thorn
ENCODING 222
SWIDTH 648 0
DWIDTH 9 0
BBX 7 11 1 0
BITMAP
80
80
FC
86
82
82
86
FC
80
80
80
ENDCHAR
STARTCHAR germandbls
ENCODING 223
SWIDTH 504 0
DWIDTH 7 0
BBX 5 11 1 0
BITMAP
70
88
88
88
B0
90
88
88
88
88
B0
ENDCHAR
STARTCHAR agrave
ENCODING 224
SWIDTH 576 0
DWIDTH 8 0
BBX 7 11 1 0
BITMAP
20
10
00
78
CC
04
7C
C4
84
CC
76
ENDCHAR
STARTCHAR aacute
ENCODING 225
SWIDTH 576 0
DWIDTH 8 0
BBX 7 11 1 0
BITMAP
10
20
00
78
CC
04
7C
C4
84
CC
76
ENDCHAR
STARTCHAR acircumflex
ENCODING 226
SWIDTH 576 0
DWIDTH 8 0
BBX 7 11 1 0
BITMAP
30
48
00
78
CC
04
7C
C4
84
CC
76
ENDCHAR
STARTCHAR atilde
ENCODING 227
SWIDTH 576 0
DWIDTH 8 0
BBX 7 11 1 0
BITMAP
34
58
00
78
CC
04
7C
C4
84
CC
76
ENDCHAR
STARTCHAR adieresis
ENCODING 228
SWIDTH 576 0
DWIDTH 8 0
BBX 7 11 1 0
BITMAP
48
48
00
78
CC
04
7C
C4
84
CC
76
ENDCHAR
STARTCHAR aring
ENCODING 229
SWIDTH 576 0
DWIDTH 8 0
BBX 7 12 1 0
BITMAP
30
48
30
00
78
CC
04
7C
C4
84
CC
76
ENDCHAR
STARTCHAR ae
ENCODING 230
SWIDTH 936 0
DWIDTH 13 0
BBX 11 8 1 0
BITMAP
7BC0
C660
0420
7FE0
C400
8400
CE60
7BC0
ENDCHAR
STARTCHAR ccedilla
ENCODING 231
SWIDTH 576 0
DWIDTH 8 0
BBX 6 11 1 -3
BITMAP
78
CC
80
80
80
84
CC
78
10
48
30
ENDCHAR
STARTCHAR egrave
ENCODING 232
SWIDTH 576 0
DWIDTH 8 0
BBX 6 11 1 0
BITMAP
20
10
00
78
CC
84
FC
80
80
CC
78
ENDCHAR
STARTCHAR eacute
ENCODING 233
SWIDTH 576 0
DWIDTH 8 0
BBX 6 11 1 0
BITMAP
10
20
00
78
CC
84
FC
80
80
CC
78
ENDCHAR
STARTCHAR ecircumflex
ENCODING 234
SWIDTH 576 0
DWIDTH 8 0
BBX 6 11 1 0
BITMAP
30
48
00
78
CC
84
FC
80
80
CC
78
ENDCHAR
STARTCHAR edieresis
ENCODING 235
SWIDTH 576 0
DWIDTH 8 0
BBX 6 11 1 0
BITMAP
48
48
00
78
CC
84
FC
80
80
CC
78
ENDCHAR
STARTCHAR igrave
ENCODING 236
SWIDTH 216 0
DWIDTH 3 0
BBX 2 11 1 0
BITMAP
80
40
00
80
80
80
80
80
80
80
80
ENDCHAR
STARTCHAR iacute
ENCODING 237
SWIDTH 216 0
DWIDTH 3 0
BBX 2 11 1 0
BITMAP
40
80
00
80
80
80
80
80
80
80
80
ENDCHAR
STARTCHAR icircumflex
ENCODING 238
SWIDTH 216 0
DWIDTH 3 0
BBX 4 11 0 0
BITMAP
60
90
00
40
40
40
40
40
40
40
40
ENDCHAR
STARTCHAR idieresis
ENCODING 239
SWIDTH 216 0
DWIDTH 3 0
BBX 3 11 0 0
BITMAP
A0
A0
00
40
40
40
40
40
40
40
40
ENDCHAR
STARTCHAR eth
ENCODING 240
SWIDTH 576 0
DWIDTH 8 0
BBX 6 11 1 0
BITMAP
D8
70
90
78
CC
84
84
84
84
CC
78
ENDCHAR
STARTCHAR ntilde
ENCODING 241
SWIDTH 576 0
DWIDTH 8 0
BBX 6 11 1 0
BITMAP
68
B0
00
B8
CC
84
84
84
84
84
84
ENDCHAR
STARTCHAR ograve
ENCODING 242
SWIDTH 576 0
DWIDTH 8 0
BBX 6 11 1 0
BITMAP
20
10
00
78
CC
84
84
84
84
CC
78
ENDCHAR
STARTCHAR oacute
ENCODING 243
SWIDTH 576 0
DWIDTH 8 0
BBX 6 11 1 0
BITMAP
10
20
00
78
CC
84
84
84
84
CC
78
ENDCHAR
STARTCHAR ocircumflex
ENCODING 244
SWIDTH 576 0
DWIDTH 8 0
BBX 6 11 1 0
BITMAP
30
48
00
78
CC
84
84
84
84
CC
78
ENDCHAR
STARTCHAR otilde
ENCODING 245
SWIDTH 576 0
DWIDTH 8 0
BBX 6 11 1 0
BITMAP
68
B0
00
78
CC
84
84
84
84
CC
78
ENDCHAR
STARTCHAR odieresis
ENCODING 246
SWIDTH 576 0
DWIDTH 8 0
BBX 6 11 1 0
BITMAP
48
48
00
78
CC
84
84
84
84
CC
78
ENDCHAR
STARTCHAR divide
ENCODING 247
SWIDTH 648 0
DWIDTH 9 0
BBX 7 7 1 1
BITMAP
10
10
00
FE
00
10
10
ENDCHAR
STARTCHAR oslash
ENCODING 248
SWIDTH 576 0
DWIDTH 8 0
BBX 8 8 0 0
BITMAP
3D
62
46
4A
52
62
46
BC
ENDCHAR
STARTCHAR ugrave
ENCODING 249
SWIDTH 576 0
DWIDTH 8 0
BBX 6 11 1 0
BITMAP
20
10
00
84
84
84
84
84
84
CC
74
ENDCHAR
STARTCHAR uacute
ENCODING 250
SWIDTH 576 0
DWIDTH 8 0
BBX 6 11 1 0
BITMAP
10
20
00
84
84
84
84
84
84
CC
74
ENDCHAR
STARTCHAR ucircumflex
ENCODING 251
SWIDTH 576 0
DWIDTH 8 0
BBX 6 11 1 0
BITMAP
30
48
00
84
84
84
84
84
84
CC
74
ENDCHAR
STARTCHAR udieresis
ENCODING 252
SWIDTH 576 0
DWIDTH 8 0
BBX 6 11 1 0
BITMAP
48
48
00
84
84
84
84
84
84
CC
74
ENDCHAR
STARTCHAR yacute
ENCODING 253
SWIDTH 504 0
DWIDTH 7 0
BBX 7 14 0 -3
BITMAP
08
10
00
82
C2
44
44
24
28
18
10
10
30
60
ENDCHAR
STARTCHAR thorn
ENCODING 254
SWIDTH 576 0
DWIDTH 8 0
BBX 6 14 1 -3
BITMAP
80
80
80
B8
CC
84
84
84
84
CC
B8
80
80
80
ENDCHAR
STARTCHAR ydieresis
ENCODING 255
SWIDTH 504 0
DWIDTH 7 0
BBX 7 14 0 -3
BITMAP
24
24
00
82
C2
44
44
24
28
18
10
10
30
60
ENDCHAR
STARTCHAR Amacron
ENCODING 256
SWIDTH 648 0
DWIDTH 9 0
BBX 9 13 0 0
BITMAP
1E00
0000
0800
1C00
1400
1400
2200
2200
4100
7F00
4100
8080
8080
ENDCHAR
STARTCHAR amacron
ENCODING 257
SWIDTH 576 0
DWIDTH 8 0
BBX 7 10 1 0
BITMAP
78
00
78
CC
04
7C
C4
84
CC
76
ENDCHAR
STARTCHAR Abreve
ENCODING 258
SWIDTH 648 0
DWIDTH 9 0
BBX 9 14 0 0
BITMAP
2200
1C00
0000
0800
1C00
1400
1400
2200
2200
4100
7F00
4100
8080
8080
ENDCHAR
STARTCHAR abreve
ENCODING 259
SWIDTH 576 0
DWIDTH 8 0
BBX 7 11 1 0
BITMAP
44
38
00
78
CC
04
7C
C4
84
CC
76
ENDCHAR
STARTCHAR Aogonek
ENCODING 260
SWIDTH 648 0
DWIDTH 9 0
BBX 9 14 0 -3
BITMAP
0800
1C00
1400
1400
2200
2200
4100
7F00
4100
8080
8080
0800
1000
1C00
ENDCHAR
STARTCHAR aogonek
ENCODING 261
SWIDTH 576 0
DWIDTH 8 0
BBX 7 11 1 -3
BITMAP
78
CC
04
7C
C4
84
CC
76
10
20
38
ENDCHAR
STARTCHAR Cacute
ENCODING 262
SWIDTH 720 0
DWIDTH 10 0
BBX 8 14 1 0
BITMAP
04
08
00
1C
63
41
80
80
80
80
80
41
63
1C
ENDCHAR
STARTCHAR cacute
ENCODING 263
SWIDTH 504 0
DWIDTH 7 0
BBX 6 11 1 0
BITMAP
10
20
00
78
CC
80
80
80
84
CC
78
ENDCHAR
STARTCHAR Ccircumflex
ENCODING 264
SWIDTH 720 0
DWIDTH 10 0
BBX 8 14 1 0
BITMAP
08
14
00
1C
63
41
80
80
80
80
80
41
63
1C
ENDCHAR
STARTCHAR ccircumflex
ENCODING 265
SWIDTH 504 0
DWIDTH 7 0
BBX 6 11 1 0
BITMAP
20
50
00
78
CC
80
80
80
84
CC
78
ENDCHAR
STARTCHAR Cdotaccent
ENCODING 266
SWIDTH 720 0
DWIDTH 10 0
BBX 8 13 1 0
BITMAP
18
00
1C
63
41
80
80
80
80
80
41
63
1C
ENDCHAR
STARTCHAR cdotaccent
ENCODING 267
SWIDTH 504 0
DWIDTH 7 0
BBX 6 10 1 0
BITMAP
30
00
78
CC
80
80
80
84
CC
78
ENDCHAR
STARTCHAR Ccaron
ENCODING 268
SWIDTH 720 0
DWIDTH 10 0
BBX 8 14 1 0
BITMAP
14
08
00
1C
63
41
80
80
80
80
80
41
63
1C
ENDCHAR
STARTCHAR ccaron
ENCODING 269
SWIDTH 504 0
DWIDTH 7 0
BBX 6 11 1 0
BITMAP
50
20
00
78
CC
80
80
80
84
CC
78
ENDCHAR
STARTCHAR Dcaron
ENCODING 270
SWIDTH 720 0
DWIDTH 10 0
BBX 8 14 1 0
BITMAP
28
10
00
F8
86
82
81
81
81
81
81
82
86
F8
ENDCHAR
STARTCHAR dcaron
ENCODING 271
SWIDTH 792 0
DWIDTH 11 0
BBX 10 11 1 0
BITMAP
04C0
0440
0480
7400
CC00
8400
8400
8400
8400
CC00
7400
ENDCHAR
STARTCHAR Dcroat
ENCODING 272
SWIDTH 720 0
DWIDTH 10 0
BBX 9 11 0 0
BITMAP
7C00
4300
4100
4080
4080
F080
4080
4080
4100
4300
7C00
ENDCHAR
STARTCHAR dcroat
ENCODING 273
SWIDTH 576 0
DWIDTH 8 0
BBX 6 11 1 0
BITMAP
04
3C
04
74
CC
84
84
84
84
CC
74
ENDCHAR
STARTCHAR Emacron
ENCODING 274
SWIDTH 648 0
DWIDTH 9 0
BBX 7 13 1 0
BITMAP
78
00
FE
80
80
80
80
FC
80
80
80
80
FE
ENDCHAR
STARTCHAR emacron
ENCODING 275
SWIDTH 576 0
DWIDTH 8 0
BBX 6 10 1 0
BITMAP
78
00
78
CC
84
FC
80
80
CC
78
ENDCHAR
STARTCHAR Ebreve
ENCODING 276
SWIDTH 648 0
DWIDTH 9 0
BBX 7 14 1 0
BITMAP
44
38
00
FE
80
80
80
80
FC
80
80
80
80
FE
ENDCHAR
STARTCHAR ebreve
ENCODING 277
SWIDTH 576 0
DWIDTH 8 0
BBX 6 11 1 0
BITMAP
44
38
00
78
CC
84
FC
80
80
CC
78
ENDCHAR
STARTCHAR Edotaccent
ENCODING 278
SWIDTH 648 0
DWIDTH 9 0
BBX 7 13 1 0
BITMAP
30
00
FE
80
80
80
80
FC
80
80
80
80
FE
ENDCHAR
STARTCHAR edotaccent
ENCODING 279
SWIDTH 576 0
DWIDTH 8 0
BBX 6 10 1 0
BITMAP
30
00
78
CC
84
FC
80
80
CC
78
ENDCHAR
STARTCHAR Eogonek
ENCODING 280
SWIDTH 648 0
DWIDTH 9 0
BBX 7 14 1 -3
BITMAP
FE
80
80
80
80
FC
80
80
80
80
FE
10
20
38
ENDCHAR
STARTCHAR eogonek
ENCODING 281
SWIDTH 576 0
DWIDTH 8 0
BBX 6 11 1 -3
BITMAP
78
CC
84
FC
80
80
CC
78
20
40
70
ENDCHAR
STARTCHAR Ecaron
ENCODING 282
SWIDTH 648 0
DWIDTH 9 0
BBX 7 14 1 0
BITMAP
28
10
00
FE
80
80
80
80
FC
80
80
80
80
FE
ENDCHAR
STARTCHAR ecaron
ENCODING 283
SWIDTH 576 0
DWIDTH 8 0
BBX 6 11 1 0
BITMAP
28
10
00
78
CC
84
FC
80
80
CC
78
ENDCHAR
STARTCHAR Gcircumflex
ENCODING 284
SWIDTH 792 0
DWIDTH 11 0
BBX 9 14 1 0
BITMAP
0800
1400
0000
1E00
6180
4080
8000
8000
8780
8080
8080
4080
6380
1C80
ENDCHAR
STARTCHAR gcircumflex
ENCODING 285
SWIDTH 576 0
DWIDTH 8 0
BBX 6 14 1 -3
BITMAP
10
28
00
74
CC
84
84
84
84
CC
74
04
CC
78
ENDCHAR
STARTCHAR Gbreve
ENCODING 286
SWIDTH 792 0
DWIDTH 11 0
BBX 9 14 1 0
BITMAP
2200
1C00
0000
1E00
6180
4080
8000
8000
8780
8080
8080
4080
6380
1C80
ENDCHAR
STARTCHAR gbreve
ENCODING 287
SWIDTH 576 0
DWIDTH 8 0
BBX 6 14 1 -3
BITMAP
44
38
00
74
CC
84
84
84
84
CC
74
04
CC
78
ENDCHAR
STARTCHAR Gdotaccent
ENCODING 288
SWIDTH 792 0
DWIDTH 11 0
BBX 9 13 1 0
BITMAP
0C00
0000
1E00
6180
4080
8000
8000
8780
8080
8080
4080
6380
1C80
ENDCHAR
STARTCHAR gdotaccent
ENCODING 289
SWIDTH 576 0
DWIDTH 8 0
BBX 6 13 1 -3
BITMAP
30
00
74
CC
84
84
84
84
CC
74
04
CC
78
ENDCHAR
STARTCHAR Gcommaaccent
ENCODING 290
SWIDTH 792 0
DWIDTH 11 0
BBX 9 16 1 -5
BITMAP
1E00
6180
4080
8000
8000
8780
8080
8080
4080
6380
1C80
0000
0400
0400
0400
0800
ENDCHAR
STARTCHAR gcommaaccent
ENCODING 291
SWIDTH 576 0
DWIDTH 8 0
BBX 6 15 1 -3
BITMAP
10
20
30
00
74
CC
84
84
84
84
CC
74
04
CC
78
ENDCHAR
STARTCHAR Hcircumflex
ENCODING 292
SWIDTH 720 0
DWIDTH 10 0
BBX 8 14 1 0
BITMAP
08
14
00
81
81
81
81
81
FF
81
81
81
81
81
ENDCHAR
STARTCHAR hcircumflex
ENCODING 293
SWIDTH 576 0
DWIDTH 8 0
BBX 6 14 1 0
BITMAP
40
A0
00
80
80
80
B8
CC
84
84
84
84
84
84
ENDCHAR
STARTCHAR Hbar
ENCODING 294
SWIDTH 720 0
DWIDTH 10 0
BBX 8 11 1 0
BITMAP
81
81
FF
81
81
FF
81
81
81
81
81
ENDCHAR
STARTCHAR hbar
ENCODING 295
SWIDTH 576 0
DWIDTH 8 0
BBX 6 11 1 0
BITMAP
80
F0
80
B8
CC
84
84
84
84
84
84
ENDCHAR
STARTCHAR Itilde
ENCODING 296
SWIDTH 288 0
DWIDTH 4 0
BBX 5 14 0 0
BITMAP
68
B0
00
20
20
20
20
20
20
20
20
20
20
20
ENDCHAR
STARTCHAR itilde
ENCODING 297
SWIDTH 216 0
DWIDTH 3 0
BBX 5 11 -1 0
BITMAP
68
B0
00
20
20
20
20
20
20
20
20
ENDCHAR
STARTCHAR Imacron
ENCODING 298
SWIDTH 288 0
DWIDTH 4 0
BBX 4 13 1 0
BITMAP
F0
00
40
40
40
40
40
40
40
40
40
40
40
ENDCHAR
STARTCHAR imacron
ENCODING 299
SWIDTH 216 0
DWIDTH 3 0
BBX 4 10 0 0
BITMAP
F0
00
40
40
40
40
40
40
40
40
ENDCHAR
STARTCHAR Ibreve
ENCODING 300
SWIDTH 288 0
DWIDTH 4 0
BBX 5 14 0 0
BITMAP
88
70
00
20
20
20
20
20
20
20
20
20
20
20
ENDCHAR
STARTCHAR ibreve
ENCODING 301
SWIDTH 216 0
DWIDTH 3 0
BBX 5 11 -1 0
BITMAP
88
70
00
20
20
20
20
20
20
20
20
ENDCHAR
STARTCHAR Iogonek
ENCODING 302
SWIDTH 288 0
DWIDTH 4 0
BBX 3 14 1 -3
BITMAP
40
40
40
40
40
40
40
40
40
40
40
40
80
E0
ENDCHAR
STARTCHAR iogonek
ENCODING 303
SWIDTH 216 0
DWIDTH 3 0
BBX 3 14 0 -3
BITMAP
40
40
00
40
40
40
40
40
40
40
40
40
80
E0
ENDCHAR
STARTCHAR Idotaccent
ENCODING 304
SWIDTH 288 0
DWIDTH 4 0
BBX 2 13 2 0
BITMAP
C0
00
80
80
80
80
80
80
80
80
80
80
80
ENDCHAR
STARTCHAR dotlessi
ENCODING 305
SWIDTH 216 0
DWIDTH 3 0
BBX 1 8 1 0
BITMAP
80
80
80
80
80
80
80
80
ENDCHAR
STARTCHAR IJ
ENCODING 306
SWIDTH 792 0
DWIDTH 11 0
BBX 8 11 2 0
BITMAP
81
81
81
81
81
81
81
81
A1
A1
9E
ENDCHAR
STARTCHAR ij
ENCODING 307
SWIDTH 432 0
DWIDTH 6 0
BBX 4 14 1 -3
BITMAP
90
90
00
90
90
90
90
90
90
90
90
10
10
60
ENDCHAR
STARTCHAR Jcircumflex
ENCODING 308
SWIDTH 504 0
DWIDTH 7 0
BBX 6 14 0 0
BITMAP
08
14
00
04
04
04
04
04
04
04
04
84
84
78
ENDCHAR
STARTCHAR jcircumflex
ENCODING 309
SWIDTH 216 0
DWIDTH 3 0
BBX 4 14 -1 -3
BITMAP
20
50
00
20
20
20
20
20
20
20
20
20
20
C0
ENDCHAR
STARTCHAR Kcommaaccent
ENCODING 310
SWIDTH 648 0
DWIDTH 9 0
BBX 8 16 1 -5
BITMAP
82
84
88
90
A0
E0
90
88
84
82
81
00
10
10
10
20
ENDCHAR
STARTCHAR kcommaaccent
ENCODING 311
SWIDTH 504 0
DWIDTH 7 0
BBX 6 16 1 -5
BITMAP
80
80
80
88
90
A0
C0
A0
90
88
84
00
20
20
20
40
ENDCHAR
STARTCHAR kgreenlandic
ENCODING 312
SWIDTH 504 0
DWIDTH 7 0
BBX 6 8 1 0
BITMAP
88
90
A0
C0
A0
90
88
84
ENDCHAR
STARTCHAR Lacute
ENCODING 313
SWIDTH 576 0
DWIDTH 8 0
BBX 6 14 2 0
BITMAP
20
40
00
80
80
80
80
80
80
80
80
80
80
FC
ENDCHAR
STARTCHAR lacute
ENCODING 314
SWIDTH 216 0
DWIDTH 3 0
BBX 2 14 1 0
BITMAP
40
80
00
80
80
80
80
80
80
80
80
80
80
80
ENDCHAR
STARTCHAR Lcommaaccent
ENCODING 315
SWIDTH 576 0
DWIDTH 8 0
BBX 6 16 2 -5
BITMAP
80
80
80
80
80
80
80
80
80
80
FC
00
20
20
20
40
ENDCHAR
STARTCHAR lcommaaccent
ENCODING 316
SWIDTH 216 0
DWIDTH 3 0
BBX 2 16 0 -5
BITMAP
40
40
40
40
40
40
40
40
40
40
40
00
40
40
40
80
ENDCHAR
STARTCHAR Lcaron
ENCODING 317
SWIDTH 792 0
DWIDTH 11 0
BBX 9 11 2 0
BITMAP
8180
8080
8100
8000
8000
8000
8000
8000
8000
8000
FC00
ENDCHAR
STARTCHAR lcaron
ENCODING 318
SWIDTH 432 0
DWIDTH 6 0
BBX 5 11 1 0
BITMAP
98
88
90
80
80
80
80
80
80
80
80
ENDCHAR
STARTCHAR Ldot
ENCODING 319
SWIDTH 864 0
DWIDTH 12 0
BBX 9 11 2 0
BITMAP
8000
8000
8000
8000
8000
8000
8180
8000
8000
8000
FC00
ENDCHAR
STARTCHAR ldot
ENCODING 320
SWIDTH 504 0
DWIDTH 7 0
BBX 5 11 1 0
BITMAP
80
80
80
80
80
80
98
80
80
80
80
ENDCHAR
STARTCHAR Lslash
ENCODING 321
SWIDTH 576 0
DWIDTH 8 0
BBX 8 11 -1 0
BITMAP
20
20
20
28
30
60
A0
20
20
20
3F
ENDCHAR
STARTCHAR lslash
ENCODING 322
SWIDTH 216 0
DWIDTH 3 0
BBX 3 11 0 0
BITMAP
40
40
40
40
60
C0
40
40
40
40
40
ENDCHAR
STARTCHAR Nacute
ENCODING 323
SWIDTH 720 0
DWIDTH 10 0
BBX 8 14 1 0
BITMAP
08
10
00
C1
A1
A1
91
91
89
89
85
85
83
83
ENDCHAR
STARTCHAR nacute
ENCODING 324
SWIDTH 576 0
DWIDTH 8 0
BBX 6 11 1 0
BITMAP
10
20
00
B8
CC
84
84
84
84
84
84
ENDCHAR
STARTCHAR Ncommaaccent
ENCODING 325
SWIDTH 720 0
DWIDTH 10 0
BBX 8 16 1 -5
BITMAP
C1
A1
A1
91
91
89
89
85
85
83
83
00
08
08
08
10
ENDCHAR
STARTCHAR ncommaaccent
ENCODING 326
SWIDTH 576 0
DWIDTH 8 0
BBX 6 13 1 -5
BITMAP
B8
CC
84
84
84
84
84
84
00
10
10
10
20
ENDCHAR
STARTCHAR Ncaron
ENCODING 327
SWIDTH 720 0
DWIDTH 10 0
BBX 8 14 1 0
BITMAP
28
10
00
C1
A1
A1
91
91
89
89
85
85
83
83
ENDCHAR
STARTCHAR ncaron
ENCODING 328
SWIDTH 576 0
DWIDTH 8 0
BBX 6 11 1 0
BITMAP
50
20
00
B8
CC
84
84
84
84
84
84
ENDCHAR
STARTCHAR napostrophe
ENCODING 329
SWIDTH 792 0
DWIDTH 11 0
BBX 9 11 1 0
BITMAP
C000
4000
8000
1700
1980
1080
1080
1080
1080
1080
1080
ENDCHAR
STARTCHAR Eng
ENCODING 330
SWIDTH 720 0
DWIDTH 10 0
BBX 8 14 1 -3
BITMAP
C1
A1
A1
91
91
89
89
85
85
83
83
01
01
06
ENDCHAR
STARTCHAR eng
ENCODING 331
SWIDTH 576 0
DWIDTH 8 0
BBX 6 11 1 -3
BITMAP
B8
CC
84
84
84
84
84
84
04
04
18
ENDCHAR
STARTCHAR Omacron
ENCODING 332
SWIDTH 792 0
DWIDTH 11 0
BBX 9 13 1 0
BITMAP
1E00
0000
1C00
6300
4100
8080
8080
8080
8080
8080
4100
6300
1C00
ENDCHAR
STARTCHAR omacron
ENCODING 333
SWIDTH 576 0
DWIDTH 8 0
BBX 6 10 1 0
BITMAP
78
00
78
CC
84
84
84
84
CC
78
ENDCHAR
STARTCHAR Obreve
ENCODING 334
SWIDTH 792 0
DWIDTH 11 0
BBX 9 14 1 0
BITMAP
2200
1C00
0000
1C00
6300
4100
8080
8080
8080
8080
8080
4100
6300
1C00
ENDCHAR
STARTCHAR obreve
ENCODING 335
SWIDTH 576 0
DWIDTH 8 0
BBX 6 11 1 0
BITMAP
44
38
00
78
CC
84
84
84
84
CC
78
ENDCHAR
STARTCHAR Ohungarumlaut
ENCODING 336
SWIDTH 792 0
DWIDTH 11 0
BBX 9 15 1 0
BITMAP
0500
0A00
1400
0000
1C00
6300
4100
8080
8080
8080
8080
8080
4100
6300
1C00
ENDCHAR
STARTCHAR ohungarumlaut
ENCODING 337
SWIDTH 576 0
DWIDTH 8 0
BBX 6 12 1 0
BITMAP
14
28
50
00
78
CC
84
84
84
84
CC
78
ENDCHAR
STARTCHAR OE
ENCODING 338
SWIDTH 1080 0
DWIDTH 15 0
BBX 13 11 1 0
BITMAP
1FF8
6300
4100
8100
8100
81F8
8100
8100
4100
6300
1FF8
ENDCHAR
STARTCHAR oe
ENCODING 339
SWIDTH 936 0
DWIDTH 13 0
BBX 11 8 1 0
BITMAP
7BC0
CE60
8420
87E0
8400
8400
CE60
7BC0
ENDCHAR
STARTCHAR Racute
ENCODING 340
SWIDTH 720 0
DWIDTH 10 0
BBX 8 14 1 0
BITMAP
08
10
00
FE
83
81
81
82
FC
82
81
81
81
81
ENDCHAR
STARTCHAR racute
ENCODING 341
SWIDTH 360 0
DWIDTH 5 0
BBX 4 11 1 0
BITMAP
20
40
00
B0
C0
80
80
80
80
80
80
ENDCHAR
STARTCHAR Rcommaaccent
ENCODING 342
SWIDTH 720 0
DWIDTH 10 0
BBX 8 16 1 -5
BITMAP
FE
83
81
81
82
FC
82
81
81
81
81
00
08
08
08
10
ENDCHAR
STARTCHAR rcommaaccent
ENCODING 343
SWIDTH 360 0
DWIDTH 5 0
BBX 4 13 1 -5
BITMAP
B0
C0
80
80
80
80
80
80
00
40
40
40
80
ENDCHAR
STARTCHAR Rcaron
ENCODING 344
SWIDTH 720 0
DWIDTH 10 0
BBX 8 14 1 0
BITMAP
28
10
00
FE
83
81
81
82
FC
82
81
81
81
81
ENDCHAR
STARTCHAR rcaron
ENCODING 345
SWIDTH 360 0
DWIDTH 5 0
BBX 4 11 1 0
BITMAP
A0
40
00
B0
C0
80
80
80
80
80
80
ENDCHAR
STARTCHAR Sacute
ENCODING 346
SWIDTH 648 0
DWIDTH 9 0
BBX 7 14 1 0
BITMAP
08
10
00
38
C6
82
80
60
18
06
02
82
C6
38
ENDCHAR
STARTCHAR sacute
ENCODING 347
SWIDTH 504 0
DWIDTH 7 0
BBX 5 11 1 0
BITMAP
10
20
00
70
88
C0
70
18
08
88
70
ENDCHAR
STARTCHAR Scircumflex
ENCODING 348
SWIDTH 648 0
DWIDTH 9 0
BBX 7 14 1 0
BITMAP
10
28
00
38
C6
82
80
60
18
06
02
82
C6
38
ENDCHAR
STARTCHAR scircumflex
ENCODING 349
SWIDTH 504 0
DWIDTH 7 0
BBX 5 11 1 0
BITMAP
20
50
00
70
88
C0
70
18
08
88
70
ENDCHAR
STARTCHAR Scedilla
ENCODING 350
SWIDTH 648 0
DWIDTH 9 0
BBX 7 14 1 -3
BITMAP
38
C6
82
80
60
18
06
02
82
C6
38
10
48
30
ENDCHAR
STARTCHAR scedilla
ENCODING 351
SWIDTH 504 0
DWIDTH 7 0
BBX 5 11 1 -3
BITMAP
70
88
C0
70
18
08
88
70
20
90
60
ENDCHAR
STARTCHAR Scaron
ENCODING 352
SWIDTH 648 0
DWIDTH 9 0
BBX 7 11 1 0
BITMAP
28
10
00
7C
82
80
7C
02
02
82
7C
ENDCHAR
STARTCHAR scaron
ENCODING 353
SWIDTH 576 0
DWIDTH 8 0
BBX 6 11 1 0
BITMAP
50
20
00
78
84
80
78
0C
04
84
78
ENDCHAR
STARTCHAR Tcommaaccent
ENCODING 354
SWIDTH 648 0
DWIDTH 9 0
BBX 9 14 0 -3
BITMAP
FF80
0800
0800
0800
0800
0800
0800
0800
0800
0800
0800
0800
2400
1800
ENDCHAR
STARTCHAR tcommaaccent
ENCODING 355
SWIDTH 288 0
DWIDTH 4 0
BBX 4 13 0 -3
BITMAP
40
40
E0
40
40
40
40
40
40
30
20
90
60
ENDCHAR
STARTCHAR Tcaron
ENCODING 356
SWIDTH 648 0
DWIDTH 9 0
BBX 9 14 0 0
BITMAP
1400
0800
0000
FF80
0800
0800
0800
0800
0800
0800
0800
0800
0800
0800
ENDCHAR
STARTCHAR tcaron
ENCODING 357
SWIDTH 504 0
DWIDTH 7 0
BBX 7 11 0 0
BITMAP
06
42
44
E0
40
40
40
40
40
40
30
ENDCHAR
STARTCHAR Tbar
ENCODING 358
SWIDTH 648 0
DWIDTH 9 0
BBX 9 11 0 0
BITMAP
FF80
0800
0800
0800
0800
1E00
0800
0800
0800
0800
0800
ENDCHAR
STARTCHAR tbar
ENCODING 359
SWIDTH 288 0
DWIDTH 4 0
BBX 4 10 0 0
BITMAP
40
40
E0
40
40
F0
40
40
40
30
ENDCHAR
STARTCHAR Utilde
ENCODING 360
SWIDTH 720 0
DWIDTH 10 0
BBX 8 14 1 0
BITMAP
1A
2C
00
81
81
81
81
81
81
81
81
81
42
3C
ENDCHAR
STARTCHAR utilde
ENCODING 361
SWIDTH 504 0
DWIDTH 7 0
BBX 6 11 1 0
BITMAP
34
58
00
84
84
84
84
84
84
CC
74
ENDCHAR
STARTCHAR Umacron
ENCODING 362
SWIDTH 720 0
DWIDTH 10 0
BBX 8 13 1 0
BITMAP
3C
00
81
81
81
81
81
81
81
81
81
42
3C
ENDCHAR
STARTCHAR umacron
ENCODING 363
SWIDTH 504 0
DWIDTH 7 0
BBX 6 10 1 0
BITMAP
78
00
84
84
84
84
84
84
CC
74
ENDCHAR
STARTCHAR Ubreve
ENCODING 364
SWIDTH 720 0
DWIDTH 10 0
BBX 8 14 1 0
BITMAP
22
1C
00
81
81
81
81
81
81
81
81
81
42
3C
ENDCHAR
STARTCHAR ubreve
ENCODING 365
SWIDTH 504 0
DWIDTH 7 0
BBX 6 11 1 0
BITMAP
44
38
00
84
84
84
84
84
84
CC
74
ENDCHAR
STARTCHAR Uring
ENCODING 366
SWIDTH 720 0
DWIDTH 10 0
BBX 8 15 1 0
BITMAP
18
24
18
00
81
81
81
81
81
81
81
81
81
42
3C
ENDCHAR
STARTCHAR uring
ENCODING 367
SWIDTH 504 0
DWIDTH 7 0
BBX 6 12 1 0
BITMAP
30
48
30
00
84
84
84
84
84
84
CC
74
ENDCHAR
STARTCHAR Uhungarumlaut
ENCODING 368
SWIDTH 720 0
DWIDTH 10 0
BBX 8 15 1 0
BITMAP
0A
14
28
00
81
81
81
81
81
81
81
81
81
42
3C
ENDCHAR
STARTCHAR uhungarumlaut
ENCODING 369
SWIDTH 504 0
DWIDTH 7 0
BBX 6 12 1 0
BITMAP
14
28
50
00
84
84
84
84
84
84
CC
74
ENDCHAR
STARTCHAR Uogonek
ENCODING 370
SWIDTH 720 0
DWIDTH 10 0
BBX 8 14 1 -3
BITMAP
81
81
81
81
81
81
81
81
81
42
3C
08
10
1C
ENDCHAR
STARTCHAR uogonek
ENCODING 371
SWIDTH 504 0
DWIDTH 7 0
BBX 6 11 1 -3
BITMAP
84
84
84
84
84
84
CC
74
10
20
38
ENDCHAR
STARTCHAR Wcircumflex
ENCODING 372
SWIDTH 936 0
DWIDTH 13 0
BBX 13 14 0 0
BITMAP
0200
0500
0000
8208
8208
8508
4510
4510
4510
28A0
28A0
28A0
1040
1040
ENDCHAR
STARTCHAR wcircumflex
ENCODING 373
SWIDTH 720 0
DWIDTH 10 0
BBX 9 11 0 0
BITMAP
0800
1400
0000
8880
8880
8880
4900
4900
5500
2200
2200
ENDCHAR
STARTCHAR Ycircumflex
ENCODING 374
SWIDTH 648 0
DWIDTH 9 0
BBX 9 14 0 0
BITMAP
0800
1400
0000
8080
C180
4100
2200
2200
1400
1C00
0800
0800
0800
0800
ENDCHAR
STARTCHAR ycircumflex
ENCODING 375
SWIDTH 504 0
DWIDTH 7 0
BBX 7 14 0 -3
BITMAP
10
28
00
82
C2
44
44
24
28
18
10
10
30
60
ENDCHAR
STARTCHAR Ydieresis
ENCODING 376
SWIDTH 648 0
DWIDTH 9 0
BBX 7 11 1 0
BITMAP
6C
00
00
82
44
44
28
10
10
10
10
ENDCHAR
STARTCHAR Zacute
ENCODING 377
SWIDTH 648 0
DWIDTH 9 0
BBX 7 14 1 0
BITMAP
08
10
00
FE
02
04
08
18
10
20
60
40
80
FE
ENDCHAR
STARTCHAR zacute
ENCODING 378
SWIDTH 504 0
DWIDTH 7 0
BBX 6 11 0 0
BITMAP
08
10
00
FC
04
08
10
20
40
80
FC
ENDCHAR
STARTCHAR Zdotaccent
ENCODING 379
SWIDTH 648 0
DWIDTH 9 0
BBX 7 13 1 0
BITMAP
18
00
FE
02
04
08
18
10
20
60
40
80
FE
ENDCHAR
STARTCHAR zdotaccent
ENCODING 380
SWIDTH 504 0
DWIDTH 7 0
BBX 6 10 0 0
BITMAP
30
00
FC
04
08
10
20
40
80
FC
ENDCHAR
STARTCHAR Zcaron
ENCODING 381
SWIDTH 648 0
DWIDTH 9 0
BBX 7 11 1 0
BITMAP
28
10
00
7E
04
08
10
20
40
80
FE
ENDCHAR
STARTCHAR zcaron
ENCODING 382
SWIDTH 504 0
DWIDTH 7 0
BBX 6 11 0 0
BITMAP
50
20
00
FC
04
08
10
20
40
80
FC
ENDCHAR
STARTCHAR uni0186
ENCODING 390
SWIDTH 720 0
DWIDTH 10 0
BBX 8 11 1 0
BITMAP
38
C6
82
01
01
01
01
01
82
C6
38
ENDCHAR
STARTCHAR uni0189
ENCODING 393
SWIDTH 720 0
DWIDTH 10 0
BBX 9 11 0 0
BITMAP
7C00
4300
4100
4080
4080
F080
4080
4080
4100
4300
7C00
ENDCHAR
STARTCHAR uni018E
ENCODING 398
SWIDTH 648 0
DWIDTH 9 0
BBX 7 11 1 0
BITMAP
FE
02
02
02
02
7E
02
02
02
02
FE
ENDCHAR
STARTCHAR florin
ENCODING 402
SWIDTH 576 0
DWIDTH 8 0
BBX 8 13 0 -3
BITMAP
07
08
08
7E
10
10
10
10
10
20
20
20
C0
ENDCHAR
STARTCHAR uni0197
ENCODING 407
SWIDTH 288 0
DWIDTH 4 0
BBX 4 11 1 0
BITMAP
40
40
40
40
40
F0
40
40
40
40
40
ENDCHAR
STARTCHAR uni019A
ENCODING 410
SWIDTH 216 0
DWIDTH 3 0
BBX 4 11 0 0
BITMAP
40
40
40
40
40
F0
40
40
40
40
40
ENDCHAR
STARTCHAR uni019D
ENCODING 413
SWIDTH 720 0
DWIDTH 10 0
BBX 10 14 -1 -3
BITMAP
3040
2840
2840
2440
2440
2240
2240
2140
2140
20C0
20C0
2000
2000
C000
ENDCHAR
STARTCHAR uni019F
ENCODING 415
SWIDTH 792 0
DWIDTH 11 0
BBX 9 11 1 0
BITMAP
1C00
6300
4100
8080
8080
FF80
8080
8080
4100
6300
1C00
ENDCHAR
STARTCHAR Ohorn
ENCODING 416
SWIDTH 792 0
DWIDTH 11 0
BBX 10 11 1 0
BITMAP
1CC0
6340
4180
8080
8080
8080
8080
8080
4100
6300
1C00
ENDCHAR
STARTCHAR ohorn
ENCODING 417
SWIDTH 576 0
DWIDTH 8 0
BBX 8 8 1 0
BITMAP
7B
CD
86
84
84
84
CC
78
ENDCHAR
STARTCHAR uni01A7
ENCODING 423
SWIDTH 648 0
DWIDTH 9 0
BBX 7 11 1 0
BITMAP
38
C6
82
02
0C
30
C0
80
82
C6
38
ENDCHAR
STARTCHAR uni01A8
ENCODING 424
SWIDTH 504 0
DWIDTH 7 0
BBX 5 8 1 0
BITMAP
70
88
18
70
C0
80
88
70
ENDCHAR
STARTCHAR uni01AE
ENCODING 430
SWIDTH 648 0
DWIDTH 9 0
BBX 9 14 0 -3
BITMAP
FF80
0800
0800
0800
0800
0800
0800
0800
0800
0800
0800
0800
0800
0600
ENDCHAR
STARTCHAR Uhorn
ENCODING 431
SWIDTH 720 0
DWIDTH 10 0
BBX 10 11 1 0
BITMAP
81C0
8140
8180
8100
8100
8100
8100
8100
8100
4200
3C00
ENDCHAR
STARTCHAR uhorn
ENCODING 432
SWIDTH 504 0
DWIDTH 7 0
BBX 8 8 1 0
BITMAP
87
85
86
84
84
84
CC
74
ENDCHAR
STARTCHAR uni01B5
ENCODING 437
SWIDTH 648 0
DWIDTH 9 0
BBX 7 11 1 0
BITMAP
FE
02
04
08
18
3C
20
60
40
80
FE
ENDCHAR
STARTCHAR uni01B6
ENCODING 438
SWIDTH 504 0
DWIDTH 7 0
BBX 6 8 0 0
BITMAP
FC
04
08
78
20
40
80
FC
ENDCHAR
STARTCHAR uni01BB
ENCODING 443
SWIDTH 576 0
DWIDTH 8 0
BBX 6 11 1 0
BITMAP
78
84
84
04
08
FC
20
40
80
80
FC
ENDCHAR
STARTCHAR uni01BC
ENCODING 444
SWIDTH 576 0
DWIDTH 8 0
BBX 6 11 1 0
BITMAP
FC
80
80
80
F8
04
04
04
84
84
78
ENDCHAR
STARTCHAR uni01C0
ENCODING 448
SWIDTH 216 0
DWIDTH 3 0
BBX 1 14 1 -3
BITMAP
80
80
80
80
80
80
80
80
80
80
80
80
80
80
ENDCHAR
STARTCHAR uni01C2
ENCODING 450
SWIDTH 648 0
DWIDTH 9 0
BBX 6 14 1 -2
BITMAP
10
10
10
10
10
10
FC
10
FC
10
10
10
10
10
ENDCHAR
STARTCHAR uni01C3
ENCODING 451
SWIDTH 288 0
DWIDTH 4 0
BBX 1 11 2 0
BITMAP
80
80
80
80
80
80
80
80
00
80
80
ENDCHAR
STARTCHAR uni01CD
ENCODING 461
SWIDTH 648 0
DWIDTH 9 0
BBX 9 14 0 0
BITMAP
1400
0800
0000
0800
1C00
1400
1400
2200
2200
4100
7F00
4100
8080
8080
ENDCHAR
STARTCHAR uni01CE
ENCODING 462
SWIDTH 576 0
DWIDTH 8 0
BBX 7 11 1 0
BITMAP
28
10
00
78
CC
04
7C
C4
84
CC
76
ENDCHAR
STARTCHAR uni01CF
ENCODING 463
SWIDTH 288 0
DWIDTH 4 0
BBX 3 14 1 0
BITMAP
A0
40
00
40
40
40
40
40
40
40
40
40
40
40
ENDCHAR
STARTCHAR uni01D0
ENCODING 464
SWIDTH 216 0
DWIDTH 3 0
BBX 3 11 0 0
BITMAP
A0
40
00
40
40
40
40
40
40
40
40
ENDCHAR
STARTCHAR uni01D1
ENCODING 465
SWIDTH 792 0
DWIDTH 11 0
BBX 9 14 1 0
BITMAP
1400
0800
0000
1C00
6300
4100
8080
8080
8080
8080
8080
4100
6300
1C00
ENDCHAR
STARTCHAR uni01D2
ENCODING 466
SWIDTH 576 0
DWIDTH 8 0
BBX 6 11 1 0
BITMAP
28
10
00
78
CC
84
84
84
84
CC
78
ENDCHAR
STARTCHAR uni01D3
ENCODING 467
SWIDTH 720 0
DWIDTH 10 0
BBX 8 14 1 0
BITMAP
14
08
00
81
81
81
81
81
81
81
81
81
42
3C
ENDCHAR
STARTCHAR uni01D4
ENCODING 468
SWIDTH 504 0
DWIDTH 7 0
BBX 6 11 1 0
BITMAP
28
10
00
84
84
84
84
84
84
CC
74
ENDCHAR
STARTCHAR uni01D5
ENCODING 469
SWIDTH 720 0
DWIDTH 10 0
BBX 8 15 1 0
BITMAP
3C
00
66
00
81
81
81
81
81
81
81
81
81
42
3C
ENDCHAR
STARTCHAR uni01D6
ENCODING 470
SWIDTH 576 0
DWIDTH 8 0
BBX 6 13 1 0
BITMAP
78
00
48
48
00
84
84
84
84
84
84
CC
74
ENDCHAR
STARTCHAR uni01D7
ENCODING 471
SWIDTH 720 0
DWIDTH 10 0
BBX 8 16 1 0
BITMAP
08
10
00
66
00
81
81
81
81
81
81
81
81
81
42
3C
ENDCHAR
STARTCHAR uni01D8
ENCODING 472
SWIDTH 576 0
DWIDTH 8 0
BBX 6 14 1 0
BITMAP
10
20
00
48
48
00
84
84
84
84
84
84
CC
74
ENDCHAR
STARTCHAR uni01D9
ENCODING 473
SWIDTH 720 0
DWIDTH 10 0
BBX 8 16 1 0
BITMAP
14
08
00
66
00
81
81
81
81
81
81
81
81
81
42
3C
ENDCHAR
STARTCHAR uni01DA
ENCODING 474
SWIDTH 576 0
DWIDTH 8 0
BBX 6 14 1 0
BITMAP
28
10
00
48
48
00
84
84
84
84
84
84
CC
74
ENDCHAR
STARTCHAR uni01DB
ENCODING 475
SWIDTH 720 0
DWIDTH 10 0
BBX 8 16 1 0
BITMAP
10
08
00
66
00
81
81
81
81
81
81
81
81
81
42
3C
ENDCHAR
STARTCHAR uni01DC
ENCODING 476
SWIDTH 576 0
DWIDTH 8 0
BBX 6 14 1 0
BITMAP
20
10
00
48
48
00
84
84
84
84
84
84
CC
74
ENDCHAR
STARTCHAR uni01DD
ENCODING 477
SWIDTH 576 0
DWIDTH 8 0
BBX 6 8 1 0
BITMAP
78
CC
04
04
FC
84
CC
78
ENDCHAR
STARTCHAR uni01DE
ENCODING 478
SWIDTH 648 0
DWIDTH 9 0
BBX 9 15 0 0
BITMAP
1E00
0000
3600
0000
0800
1C00
1400
1400
2200
2200
4100
7F00
4100
8080
8080
ENDCHAR
STARTCHAR uni01DF
ENCODING 479
SWIDTH 576 0
DWIDTH 8 0
BBX 7 13 1 0
BITMAP
78
00
48
48
00
78
CC
04
7C
C4
84
CC
76
ENDCHAR
STARTCHAR uni01E0
ENCODING 480
SWIDTH 648 0
DWIDTH 9 0
BBX 9 15 0 0
BITMAP
1E00
0000
0C00
0000
0800
1C00
1400
1400
2200
2200
4100
7F00
4100
8080
8080
ENDCHAR
STARTCHAR uni01E1
ENCODING 481
SWIDTH 576 0
DWIDTH 8 0
BBX 7 12 1 0
BITMAP
78
00
30
00
78
CC
04
7C
C4
84
CC
76
ENDCHAR
STARTCHAR uni01E2
ENCODING 482
SWIDTH 1008 0
DWIDTH 14 0
BBX 12 13 1 0
BITMAP
0F00
0000
1FF0
1200
1200
2200
2200
23F0
7E00
4200
4200
8200
83F0
ENDCHAR
STARTCHAR uni01E3
ENCODING 483
SWIDTH 936 0
DWIDTH 13 0
BBX 11 10 1 0
BITMAP
0F00
0000
7BC0
C660
0420
7FE0
C400
8400
CE60
7BC0
ENDCHAR
STARTCHAR uni01E4
ENCODING 484
SWIDTH 792 0
DWIDTH 11 0
BBX 9 11 1 0
BITMAP
1E00
6180
4080
8000
8000
8780
8080
8780
4080
6380
1C80
ENDCHAR
STARTCHAR uni01E5
ENCODING 485
SWIDTH 576 0
DWIDTH 8 0
BBX 6 11 1 -3
BITMAP
74
CC
84
84
84
84
CC
74
FC
CC
78
ENDCHAR
STARTCHAR Gcaron
ENCODING 486
SWIDTH 792 0
DWIDTH 11 0
BBX 9 14 1 0
BITMAP
1400
0800
0000
1E00
6180
4080
8000
8000
8780
8080
8080
4080
6380
1C80
ENDCHAR
STARTCHAR gcaron
ENCODING 487
SWIDTH 576 0
DWIDTH 8 0
BBX 6 14 1 -3
BITMAP
28
10
00
74
CC
84
84
84
84
CC
74
04
CC
78
ENDCHAR
STARTCHAR uni01E8
ENCODING 488
SWIDTH 648 0
DWIDTH 9 0
BBX 8 14 1 0
BITMAP
28
10
00
82
84
88
90
A0
E0
90
88
84
82
81
ENDCHAR
STARTCHAR uni01E9
ENCODING 489
SWIDTH 504 0
DWIDTH 7 0
BBX 6 14 1 0
BITMAP
A0
40
00
80
80
80
88
90
A0
C0
A0
90
88
84
ENDCHAR
STARTCHAR uni01EA
ENCODING 490
SWIDTH 792 0
DWIDTH 11 0
BBX 9 14 1 -3
BITMAP
1C00
6300
4100
8080
8080
8080
8080
8080
4100
6300
1C00
0800
1000
1C00
ENDCHAR
STARTCHAR uni01EB
ENCODING 491
SWIDTH 576 0
DWIDTH 8 0
BBX 6 11 1 -3
BITMAP
78
CC
84
84
84
84
CC
78
10
20
38
ENDCHAR
STARTCHAR uni01EC
ENCODING 492
SWIDTH 792 0
DWIDTH 11 0
BBX 9 16 1 -3
BITMAP
1E00
0000
1C00
6300
4100
8080
8080
8080
8080
8080
4100
6300
1C00
0800
1000
1C00
ENDCHAR
STARTCHAR uni01ED
ENCODING 493
SWIDTH 576 0
DWIDTH 8 0
BBX 6 13 1 -3
BITMAP
78
00
78
CC
84
84
84
84
CC
78
10
20
38
ENDCHAR
STARTCHAR uni01F0
ENCODING 496
SWIDTH 216 0
DWIDTH 3 0
BBX 4 14 -1 -3
BITMAP
50
20
00
20
20
20
20
20
20
20
20
20
20
C0
ENDCHAR
STARTCHAR uni01F4
ENCODING 500
SWIDTH 792 0
DWIDTH 11 0
BBX 9 14 1 0
BITMAP
0400
0800
0000
1E00
6180
4080
8000
8000
8780
8080
8080
4080
6380
1C80
ENDCHAR
STARTCHAR uni01F5
ENCODING 501
SWIDTH 576 0
DWIDTH 8 0
BBX 6 14 1 -3
BITMAP
10
20
00
74
CC
84
84
84
84
CC
74
04
CC
78
ENDCHAR
STARTCHAR uni01F8
ENCODING 504
SWIDTH 720 0
DWIDTH 10 0
BBX 8 14 1 0
BITMAP
20
10
00
C1
A1
A1
91
91
89
89
85
85
83
83
ENDCHAR
STARTCHAR uni01F9
ENCODING 505
SWIDTH 576 0
DWIDTH 8 0
BBX 6 11 1 0
BITMAP
20
10
00
B8
CC
84
84
84
84
84
84
ENDCHAR
STARTCHAR Aringacute
ENCODING 506
SWIDTH 648 0
DWIDTH 9 0
BBX 9 17 0 0
BITMAP
0400
0800
0000
0C00
1200
1200
0C00
0C00
1400
1400
2200
2200
4100
7F00
4100
8080
8080
ENDCHAR
STARTCHAR aringacute
ENCODING 507
SWIDTH 576 0
DWIDTH 8 0
BBX 7 15 1 0
BITMAP
08
10
00
30
48
30
00
78
CC
04
7C
C4
84
CC
76
ENDCHAR
STARTCHAR AEacute
ENCODING 508
SWIDTH 1008 0
DWIDTH 14 0
BBX 12 14 1 0
BITMAP
0100
0200
0000
1FF0
1200
1200
2200
2200
23F0
7E00
4200
4200
8200
83F0
ENDCHAR
STARTCHAR aeacute
ENCODING 509
SWIDTH 936 0
DWIDTH 13 0
BBX 11 11 1 0
BITMAP
0200
0400
0000
7BC0
C660
0420
7FE0
C400
8400
CE60
7BC0
ENDCHAR
STARTCHAR Oslashacute
ENCODING 510
SWIDTH 792 0
DWIDTH 11 0
BBX 11 14 0 0
BITMAP
0200
0400
0000
0E20
31C0
2080
4140
4240
4440
4840
5040
2080
7180
8E00
ENDCHAR
STARTCHAR oslashacute
ENCODING 511
SWIDTH 576 0
DWIDTH 8 0
BBX 8 11 0 0
BITMAP
04
08
00
3D
62
46
4A
52
62
46
BC
ENDCHAR
STARTCHAR uni0200
ENCODING 512
SWIDTH 648 0
DWIDTH 9 0
BBX 9 15 0 0
BITMAP
5000
2800
1400
0000
0800
1C00
1400
1400
2200
2200
4100
7F00
4100
8080
8080
ENDCHAR
STARTCHAR uni0201
ENCODING 513
SWIDTH 576 0
DWIDTH 8 0
BBX 7 12 1 0
BITMAP
A0
50
28
00
78
CC
04
7C
C4
84
CC
76
ENDCHAR
STARTCHAR uni0202
ENCODING 514
SWIDTH 648 0
DWIDTH 9 0
BBX 9 14 0 0
BITMAP
1C00
2200
0000
0800
1C00
1400
1400
2200
2200
4100
7F00
4100
8080
8080
ENDCHAR
STARTCHAR uni0203
ENCODING 515
SWIDTH 576 0
DWIDTH 8 0
BBX 7 11 1 0
BITMAP
38
44
00
78
CC
04
7C
C4
84
CC
76
ENDCHAR
STARTCHAR uni0204
ENCODING 516
SWIDTH 648 0
DWIDTH 9 0
BBX 7 15 1 0
BITMAP
A0
50
28
00
FE
80
80
80
80
FC
80
80
80
80
FE
ENDCHAR
STARTCHAR uni0205
ENCODING 517
SWIDTH 576 0
DWIDTH 8 0
BBX 6 12 1 0
BITMAP
A0
50
28
00
78
CC
84
FC
80
80
CC
78
ENDCHAR
STARTCHAR uni0206
ENCODING 518
SWIDTH 648 0
DWIDTH 9 0
BBX 7 14 1 0
BITMAP
38
44
00
FE
80
80
80
80
FC
80
80
80
80
FE
ENDCHAR
STARTCHAR uni0207
ENCODING 519
SWIDTH 576 0
DWIDTH 8 0
BBX 6 11 1 0
BITMAP
38
44
00
78
CC
84
FC
80
80
CC
78
ENDCHAR
STARTCHAR uni0208
ENCODING 520
SWIDTH 288 0
DWIDTH 4 0
BBX 5 15 -1 0
BITMAP
A0
50
28
00
10
10
10
10
10
10
10
10
10
10
10
ENDCHAR
STARTCHAR uni0209
ENCODING 521
SWIDTH 216 0
DWIDTH 3 0
BBX 5 12 -2 0
BITMAP
A0
50
28
00
10
10
10
10
10
10
10
10
ENDCHAR
STARTCHAR uni020A
ENCODING 522
SWIDTH 288 0
DWIDTH 4 0
BBX 5 14 0 0
BITMAP
70
88
00
20
20
20
20
20
20
20
20
20
20
20
ENDCHAR
STARTCHAR uni020B
ENCODING 523
SWIDTH 216 0
DWIDTH 3 0
BBX 5 11 -1 0
BITMAP
70
88
00
20
20
20
20
20
20
20
20
ENDCHAR
STARTCHAR uni020C
ENCODING 524
SWIDTH 792 0
DWIDTH 11 0
BBX 9 15 1 0
BITMAP
5000
2800
1400
0000
1C00
6300
4100
8080
8080
8080
8080
8080
4100
6300
1C00
ENDCHAR
STARTCHAR uni020D
ENCODING 525
SWIDTH 576 0
DWIDTH 8 0
BBX 6 12 1 0
BITMAP
A0
50
28
00
78
CC
84
84
84
84
CC
78
ENDCHAR
STARTCHAR uni020E
ENCODING 526
SWIDTH 792 0
DWIDTH 11 0
BBX 9 14 1 0
BITMAP
1C00
2200
0000
1C00
6300
4100
8080
8080
8080
8080
8080
4100
6300
1C00
ENDCHAR
STARTCHAR uni020F
ENCODING 527
SWIDTH 576 0
DWIDTH 8 0
BBX 6 11 1 0
BITMAP
38
44
00
78
CC
84
84
84
84
CC
78
ENDCHAR
STARTCHAR uni0210
ENCODING 528
SWIDTH 720 0
DWIDTH 10 0
BBX 8 15 1 0
BITMAP
50
28
14
00
FE
83
81
81
82
FC
82
81
81
81
81
ENDCHAR
STARTCHAR uni0211
ENCODING 529
SWIDTH 360 0
DWIDTH 5 0
BBX 5 12 0 0
BITMAP
A0
50
28
00
58
60
40
40
40
40
40
40
ENDCHAR
STARTCHAR uni0212
ENCODING 530
SWIDTH 720 0
DWIDTH 10 0
BBX 8 14 1 0
BITMAP
38
44
00
FE
83
81
81
82
FC
82
81
81
81
81
ENDCHAR
STARTCHAR uni0213
ENCODING 531
SWIDTH 360 0
DWIDTH 5 0
BBX 5 11 0 0
BITMAP
70
88
00
58
60
40
40
40
40
40
40
ENDCHAR
STARTCHAR uni0214
ENCODING 532
SWIDTH 720 0
DWIDTH 10 0
BBX 8 15 1 0
BITMAP
50
28
14
00
81
81
81
81
81
81
81
81
81
42
3C
ENDCHAR
STARTCHAR uni0215
ENCODING 533
SWIDTH 504 0
DWIDTH 7 0
BBX 6 12 1 0
BITMAP
A0
50
28
00
84
84
84
84
84
84
CC
74
ENDCHAR
STARTCHAR uni0216
ENCODING 534
SWIDTH 720 0
DWIDTH 10 0
BBX 8 14 1 0
BITMAP
1C
22
00
81
81
81
81
81
81
81
81
81
42
3C
ENDCHAR
STARTCHAR uni0217
ENCODING 535
SWIDTH 504 0
DWIDTH 7 0
BBX 6 11 1 0
BITMAP
38
44
00
84
84
84
84
84
84
CC
74
ENDCHAR
STARTCHAR Scommaaccent
ENCODING 536
SWIDTH 648 0
DWIDTH 9 0
BBX 7 16 1 -5
BITMAP
38
C6
82
80
60
18
06
02
82
C6
38
00
10
10
10
20
ENDCHAR
STARTCHAR scommaaccent
ENCODING 537
SWIDTH 504 0
DWIDTH 7 0
BBX 5 13 1 -5
BITMAP
70
88
C0
70
18
08
88
70
00
20
20
20
40
ENDCHAR
STARTCHAR Tcommaaccent
ENCODING 538
SWIDTH 648 0
DWIDTH 9 0
BBX 9 16 0 -5
BITMAP
FF80
0800
0800
0800
0800
0800
0800
0800
0800
0800
0800
0000
0800
0800
0800
1000
ENDCHAR
STARTCHAR tcommaaccent
ENCODING 539
SWIDTH 288 0
DWIDTH 4 0
BBX 4 15 0 -5
BITMAP
40
40
E0
40
40
40
40
40
40
30
00
20
20
20
40
ENDCHAR
STARTCHAR uni021E
ENCODING 542
SWIDTH 720 0
DWIDTH 10 0
BBX 8 14 1 0
BITMAP
14
08
00
81
81
81
81
81
FF
81
81
81
81
81
ENDCHAR
STARTCHAR uni021F
ENCODING 543
SWIDTH 576 0
DWIDTH 8 0
BBX 6 14 1 0
BITMAP
A0
40
00
80
80
80
B8
CC
84
84
84
84
84
84
ENDCHAR
STARTCHAR uni0226
ENCODING 550
SWIDTH 648 0
DWIDTH 9 0
BBX 9 13 0 0
BITMAP
0C00
0000
0800
1C00
1400
1400
2200
2200
4100
7F00
4100
8080
8080
ENDCHAR
STARTCHAR uni0227
ENCODING 551
SWIDTH 576 0
DWIDTH 8 0
BBX 7 10 1 0
BITMAP
30
00
78
CC
04
7C
C4
84
CC
76
ENDCHAR
STARTCHAR uni0228
ENCODING 552
SWIDTH 648 0
DWIDTH 9 0
BBX 7 14 1 -3
BITMAP
FE
80
80
80
80
FC
80
80
80
80
FE
10
48
30
ENDCHAR
STARTCHAR uni0229
ENCODING 553
SWIDTH 576 0
DWIDTH 8 0
BBX 6 11 1 -3
BITMAP
78
CC
84
FC
80
80
CC
78
20
90
60
ENDCHAR
STARTCHAR uni022A
ENCODING 554
SWIDTH 792 0
DWIDTH 11 0
BBX 9 15 1 0
BITMAP
1E00
0000
3300
0000
1C00
6300
4100
8080
8080
8080
8080
8080
4100
6300
1C00
ENDCHAR
STARTCHAR uni022B
ENCODING 555
SWIDTH 576 0
DWIDTH 8 0
BBX 6 13 1 0
BITMAP
78
00
48
48
00
78
CC
84
84
84
84
CC
78
ENDCHAR
STARTCHAR uni022C
ENCODING 556
SWIDTH 792 0
DWIDTH 11 0
BBX 9 16 1 0
BITMAP
1E00
0000
1A00
2C00
0000
1C00
6300
4100
8080
8080
8080
8080
8080
4100
6300
1C00
ENDCHAR
STARTCHAR uni022D
ENCODING 557
SWIDTH 576 0
DWIDTH 8 0
BBX 6 13 1 0
BITMAP
78
00
68
B0
00
78
CC
84
84
84
84
CC
78
ENDCHAR
STARTCHAR uni022E
ENCODING 558
SWIDTH 792 0
DWIDTH 11 0
BBX 9 13 1 0
BITMAP
0C00
0000
1C00
6300
4100
8080
8080
8080
8080
8080
4100
6300
1C00
ENDCHAR
STARTCHAR uni022F
ENCODING 559
SWIDTH 576 0
DWIDTH 8 0
BBX 6 10 1 0
BITMAP
30
00
78
CC
84
84
84
84
CC
78
ENDCHAR
STARTCHAR uni0230
ENCODING 560
SWIDTH 792 0
DWIDTH 11 0
BBX 9 15 1 0
BITMAP
1E00
0000
0C00
0000
1C00
6300
4100
8080
8080
8080
8080
8080
4100
6300
1C00
ENDCHAR
STARTCHAR uni0231
ENCODING 561
SWIDTH 576 0
DWIDTH 8 0
BBX 6 12 1 0
BITMAP
78
00
30
00
78
CC
84
84
84
84
CC
78
ENDCHAR
STARTCHAR uni0232
ENCODING 562
SWIDTH 648 0
DWIDTH 9 0
BBX 9 13 0 0
BITMAP
1E00
0000
8080
C180
4100
2200
2200
1400
1C00
0800
0800
0800
0800
ENDCHAR
STARTCHAR uni0233
ENCODING 563
SWIDTH 504 0
DWIDTH 7 0
BBX 7 13 0 -3
BITMAP
78
00
82
C2
44
44
24
28
18
10
10
30
60
ENDCHAR
STARTCHAR uni0250
ENCODING 592
SWIDTH 576 0
DWIDTH 8 0
BBX 7 8 1 0
BITMAP
DC
66
42
46
7C
40
66
3C
ENDCHAR
STARTCHAR uni0254
ENCODING 596
SWIDTH 504 0
DWIDTH 7 0
BBX 6 8 1 0
BITMAP
78
CC
04
04
04
84
CC
78
ENDCHAR
STARTCHAR uni0258
ENCODING 600
SWIDTH 576 0
DWIDTH 8 0
BBX 6 8 1 0
BITMAP
78
CC
84
FC
04
04
CC
78
ENDCHAR
STARTCHAR uni0259
ENCODING 601
SWIDTH 576 0
DWIDTH 8 0
BBX 6 8 1 0
BITMAP
78
CC
04
04
FC
84
CC
78
ENDCHAR
STARTCHAR uni025F
ENCODING 607
SWIDTH 288 0
DWIDTH 4 0
BBX 4 11 0 -3
BITMAP
20
20
20
20
20
20
20
70
20
20
C0
ENDCHAR
STARTCHAR uni0265
ENCODING 613
SWIDTH 576 0
DWIDTH 8 0
BBX 6 11 1 -3
BITMAP
84
84
84
84
84
84
CC
74
04
04
04
ENDCHAR
STARTCHAR uni0275
ENCODING 629
SWIDTH 576 0
DWIDTH 8 0
BBX 6 8 1 0
BITMAP
78
CC
84
FC
84
84
CC
78
ENDCHAR
STARTCHAR uni0279
ENCODING 633
SWIDTH 360 0
DWIDTH 5 0
BBX 4 8 1 0
BITMAP
10
10
10
10
10
10
30
D0
ENDCHAR
STARTCHAR uni0287
ENCODING 647
SWIDTH 288 0
DWIDTH 4 0
BBX 4 10 0 0
BITMAP
C0
20
20
20
20
20
20
70
20
20
ENDCHAR
STARTCHAR uni0288
ENCODING 648
SWIDTH 288 0
DWIDTH 4 0
BBX 4 13 0 -3
BITMAP
40
40
E0
40
40
40
40
40
40
40
40
40
30
ENDCHAR
STARTCHAR uni0289
ENCODING 649
SWIDTH 504 0
DWIDTH 7 0
BBX 6 8 1 0
BITMAP
84
84
84
FC
84
84
CC
74
ENDCHAR
STARTCHAR uni028C
ENCODING 652
SWIDTH 504 0
DWIDTH 7 0
BBX 7 8 0 0
BITMAP
10
28
28
44
44
44
82
82
ENDCHAR
STARTCHAR uni028D
ENCODING 653
SWIDTH 720 0
DWIDTH 10 0
BBX 9 8 0 0
BITMAP
2200
2200
5500
4900
4900
8880
8880
8880
ENDCHAR
STARTCHAR uni028E
ENCODING 654
SWIDTH 504 0
DWIDTH 7 0
BBX 7 11 0 0
BITMAP
0C
18
10
10
30
28
48
44
44
86
82
ENDCHAR
STARTCHAR uni029E
ENCODING 670
SWIDTH 504 0
DWIDTH 7 0
BBX 6 11 1 -3
BITMAP
84
44
24
14
0C
14
24
44
04
04
04
ENDCHAR
STARTCHAR uni02BB
ENCODING 699
SWIDTH 216 0
DWIDTH 3 0
BBX 2 3 0 8
BITMAP
40
80
C0
ENDCHAR
STARTCHAR afii57929
ENCODING 700
SWIDTH 216 0
DWIDTH 3 0
BBX 2 3 1 8
BITMAP
C0
40
80
ENDCHAR
STARTCHAR afii64937
ENCODING 701
SWIDTH 216 0
DWIDTH 3 0
BBX 2 3 1 8
BITMAP
C0
80
40
ENDCHAR
STARTCHAR circumflex
ENCODING 710
SWIDTH 360 0
DWIDTH 5 0
BBX 3 2 1 9
BITMAP
40
A0
ENDCHAR
STARTCHAR caron
ENCODING 711
SWIDTH 360 0
DWIDTH 5 0
BBX 3 2 1 9
BITMAP
A0
40
ENDCHAR
STARTCHAR uni02C8
ENCODING 712
SWIDTH 216 0
DWIDTH 3 0
BBX 1 3 1 8
BITMAP
80
80
80
ENDCHAR
STARTCHAR macron
ENCODING 713
SWIDTH 288 0
DWIDTH 4 0
BBX 4 1 0 9
BITMAP
F0
ENDCHAR
STARTCHAR uni02CA
ENCODING 714
SWIDTH 360 0
DWIDTH 5 0
BBX 2 2 2 9
BITMAP
40
80
ENDCHAR
STARTCHAR uni02CB
ENCODING 715
SWIDTH 360 0
DWIDTH 5 0
BBX 2 2 1 9
BITMAP
80
40
ENDCHAR
STARTCHAR uni02CD
ENCODING 717
SWIDTH 288 0
DWIDTH 4 0
BBX 4 1 0 -2
BITMAP
F0
ENDCHAR
STARTCHAR uni02CE
ENCODING 718
SWIDTH 360 0
DWIDTH 5 0
BBX 2 2 1 -3
BITMAP
80
40
ENDCHAR
STARTCHAR uni02CF
ENCODING 719
SWIDTH 360 0
DWIDTH 5 0
BBX 2 2 2 -3
BITMAP
40
80
ENDCHAR
STARTCHAR breve
ENCODING 728
SWIDTH 360 0
DWIDTH 5 0
BBX 5 2 0 9
BITMAP
88
70
ENDCHAR
STARTCHAR dotaccent
ENCODING 729
SWIDTH 288 0
DWIDTH 4 0
BBX 2 1 1 9
BITMAP
C0
ENDCHAR
STARTCHAR ring
ENCODING 730
SWIDTH 360 0
DWIDTH 5 0
BBX 4 3 0 8
BITMAP
60
90
60
ENDCHAR
STARTCHAR ogonek
ENCODING 731
SWIDTH 360 0
DWIDTH 5 0
BBX 3 3 2 -3
BITMAP
40
80
E0
ENDCHAR
STARTCHAR tilde
ENCODING 732
SWIDTH 360 0
DWIDTH 5 0
BBX 5 2 0 9
BITMAP
68
B0
ENDCHAR
STARTCHAR hungarumlaut
ENCODING 733
SWIDTH 360 0
DWIDTH 5 0
BBX 5 3 0 8
BITMAP
28
50
A0
ENDCHAR
STARTCHAR uni02EE
ENCODING 750
SWIDTH 432 0
DWIDTH 6 0
BBX 5 3 1 8
BITMAP
D8
48
90
ENDCHAR
STARTCHAR uni037E
ENCODING 894
SWIDTH 288 0
DWIDTH 4 0
BBX 2 10 0 -2
BITMAP
40
40
00
00
00
00
40
40
40
80
ENDCHAR
STARTCHAR tonos
ENCODING 900
SWIDTH 360 0
DWIDTH 5 0
BBX 2 2 2 9
BITMAP
40
80
ENDCHAR
STARTCHAR dieresistonos
ENCODING 901
SWIDTH 360 0
DWIDTH 5 0
BBX 5 4 0 9
BITMAP
10
20
00
D8
ENDCHAR
STARTCHAR anoteleia
ENCODING 903
SWIDTH 288 0
DWIDTH 4 0
BBX 2 1 1 4
BITMAP
C0
ENDCHAR
STARTCHAR mu
ENCODING 956
SWIDTH 576 0
DWIDTH 8 0
BBX 6 11 1 -3
BITMAP
84
84
84
84
84
84
CC
B4
80
80
80
ENDCHAR
STARTCHAR uni1780
ENCODING 6016
SWIDTH 648 0
DWIDTH 9 0
BBX 7 9 1 0
BITMAP
FE
00
7C
82
82
82
82
82
82
ENDCHAR
STARTCHAR uni1781
ENCODING 6017
SWIDTH 648 0
DWIDTH 9 0
BBX 7 9 1 0
BITMAP
7C
82
82
04
38
C0
82
82
7C
ENDCHAR
STARTCHAR uni1782
ENCODING 6018
SWIDTH 648 0
DWIDTH 9 0
BBX 7 9 1 0
BITMAP
FE
00
7C
82
82
B2
C2
82
82
ENDCHAR
STARTCHAR uni1783
ENCODING 6019
SWIDTH 936 0
DWIDTH 13 0
BBX 11 9 1 0
BITMAP
C660
4880
4CE0
8420
8420
8420
8420
8420
7BC0
ENDCHAR
STARTCHAR uni1784
ENCODING 6020
SWIDTH 648 0
DWIDTH 9 0
BBX 7 10 1 0
BITMAP
80
8C
94
7C
02
02
82
92
AA
C6
ENDCHAR
STARTCHAR uni1785
ENCODING 6021
SWIDTH 648 0
DWIDTH 9 0
BBX 8 9 0 0
BITMAP
7F
80
C3
45
47
41
41
41
3E
ENDCHAR
STARTCHAR uni1786
ENCODING 6022
SWIDTH 648 0
DWIDTH 9 0
BBX 8 9 0 0
BITMAP
7F
80
43
25
27
21
71
AD
43
ENDCHAR
STARTCHAR uni1787
ENCODING 6023
SWIDTH 648 0
DWIDTH 9 0
BBX 8 10 0 0
BITMAP
01
79
87
C0
40
41
41
49
55
63
ENDCHAR
STARTCHAR uni1788
ENCODING 6024
SWIDTH 1296 0
DWIDTH 18 0
BBX 16 9 1 0
BITMAP
7863
8484
84E7
8421
8421
8421
E421
A421
C3DE
ENDCHAR
STARTCHAR uni1789
ENCODING 6025
SWIDTH 936 0
DWIDTH 13 0
BBX 11 14 1 -5
BITMAP
6DC0
9620
8420
8420
8420
8420
E420
A420
C420
0000
00C0
E020
1C20
03C0
ENDCHAR
STARTCHAR uni178A
ENCODING 6026
SWIDTH 648 0
DWIDTH 9 0
BBX 7 10 1 0
BITMAP
02
62
82
7C
00
82
82
92
AA
C6
ENDCHAR
STARTCHAR uni178B
ENCODING 6027
SWIDTH 648 0
DWIDTH 9 0
BBX 7 10 1 0
BITMAP
02
C6
48
4E
82
82
82
82
82
7C
ENDCHAR
STARTCHAR uni178C
ENCODING 6028
SWIDTH 648 0
DWIDTH 9 0
BBX 7 9 1 0
BITMAP
6C
92
82
04
38
C0
86
8A
72
ENDCHAR
STARTCHAR uni178D
ENCODING 6029
SWIDTH 936 0
DWIDTH 13 0
BBX 11 9 1 0
BITMAP
6C60
9480
84E0
8420
8420
8420
E520
A6A0
C460
ENDCHAR
STARTCHAR uni178E
ENCODING 6030
SWIDTH 1224 0
DWIDTH 17 0
BBX 15 9 1 0
BITMAP
783C
8442
8442
8442
8442
8442
E542
A6C2
C442
ENDCHAR
STARTCHAR uni178F
ENCODING 6031
SWIDTH 648 0
DWIDTH 9 0
BBX 7 9 1 0
BITMAP
FE
00
7C
82
82
82
E2
A2
C2
ENDCHAR
STARTCHAR uni1790
ENCODING 6032
SWIDTH 648 0
DWIDTH 9 0
BBX 8 10 0 0
BITMAP
01
79
86
C0
43
45
47
41
41
3E
ENDCHAR
STARTCHAR uni1791
ENCODING 6033
SWIDTH 648 0
DWIDTH 9 0
BBX 7 9 1 0
BITMAP
7C
82
80
84
7A
04
44
44
38
ENDCHAR
STARTCHAR uni1792
ENCODING 6034
SWIDTH 648 0
DWIDTH 9 0
BBX 8 9 0 0
BITMAP
7F
80
C3
45
47
41
49
55
63
ENDCHAR
STARTCHAR uni1793
ENCODING 6035
SWIDTH 648 0
DWIDTH 9 0
BBX 7 9 1 0
BITMAP
7C
82
80
60
1C
02
C2
B2
8C
ENDCHAR
STARTCHAR uni1794
ENCODING 6036
SWIDTH 648 0
DWIDTH 9 0
BBX 8 9 0 0
BITMAP
63
84
C7
41
41
41
41
41
3E
ENDCHAR
STARTCHAR uni1795
ENCODING 6037
SWIDTH 648 0
DWIDTH 9 0
BBX 8 10 0 0
BITMAP
01
79
86
C0
43
45
47
61
59
47
ENDCHAR
STARTCHAR uni1796
ENCODING 6038
SWIDTH 648 0
DWIDTH 9 0
BBX 7 9 1 0
BITMAP
6C
92
82
82
82
82
E2
A2
C2
ENDCHAR
STARTCHAR uni1797
ENCODING 6039
SWIDTH 648 0
DWIDTH 9 0
BBX 7 9 1 0
BITMAP
FE
00
7C
82
82
42
22
22
C2
ENDCHAR
STARTCHAR uni1798
ENCODING 6040
SWIDTH 648 0
DWIDTH 9 0
BBX 8 9 0 0
BITMAP
63
84
C7
41
5D
41
41
41
3E
ENDCHAR
STARTCHAR uni1799
ENCODING 6041
SWIDTH 936 0
DWIDTH 13 0
BBX 11 9 1 0
BITMAP
CC60
9080
9CE0
8420
8420
8420
8420
8420
7BC0
ENDCHAR
STARTCHAR uni179A
ENCODING 6042
SWIDTH 360 0
DWIDTH 5 0
BBX 3 9 1 0
BITMAP
60
80
E0
20
20
20
E0
A0
60
ENDCHAR
STARTCHAR uni179B
ENCODING 6043
SWIDTH 936 0
DWIDTH 13 0
BBX 11 9 1 0
BITMAP
7860
8480
84E0
8420
8420
8420
E420
A420
C3C0
ENDCHAR
STARTCHAR uni179C
ENCODING 6044
SWIDTH 360 0
DWIDTH 5 0
BBX 3 10 1 0
BITMAP
20
60
80
E0
20
20
20
E0
A0
60
ENDCHAR
STARTCHAR uni179D
ENCODING 6045
SWIDTH 648 0
DWIDTH 9 0
BBX 8 9 1 0
BITMAP
FE
00
7C
82
82
B7
C2
82
82
ENDCHAR
STARTCHAR uni179E
ENCODING 6046
SWIDTH 720 0
DWIDTH 10 0
BBX 9 9 1 0
BITMAP
6300
8400
C700
4100
4380
4D00
4100
4100
3E00
ENDCHAR
STARTCHAR uni179F
ENCODING 6047
SWIDTH 936 0
DWIDTH 13 0
BBX 11 9 1 0
BITMAP
7860
8080
78E0
8420
8420
8420
E420
A420
C3C0
ENDCHAR
STARTCHAR uni17A0
ENCODING 6048
SWIDTH 1008 0
DWIDTH 14 0
BBX 12 9 1 0
BITMAP
61E0
8210
C210
4210
4210
4210
4210
4210
3C10
ENDCHAR
STARTCHAR uni17A1
ENCODING 6049
SWIDTH 1008 0
DWIDTH 14 0
BBX 12 14 1 -5
BITMAP
7C30
8240
8070
8410
7A10
0410
4410
4410
3810
0010
0610
0290
0350
0230
ENDCHAR
STARTCHAR uni17A2
ENCODING 6050
SWIDTH 720 0
DWIDTH 10 0
BBX 8 9 1 0
BITMAP
63
84
E7
21
3F
21
E7
A5
63
ENDCHAR
STARTCHAR uni17A5
ENCODING 6053
SWIDTH 648 0
DWIDTH 9 0
BBX 7 10 1 0
BITMAP
02
FE
00
7C
82
82
82
E2
A2
C2
ENDCHAR
STARTCHAR uni17A6
ENCODING 6054
SWIDTH 864 0
DWIDTH 12 0
BBX 10 19 1 -5
BITMAP
0400
0400
0780
0040
0040
7840
8440
8440
8440
8440
8440
E440
A440
C440
0040
7840
8440
8640
C5C0
ENDCHAR
STARTCHAR uni17A7
ENCODING 6055
SWIDTH 648 0
DWIDTH 9 0
BBX 7 9 1 0
BITMAP
7C
82
82
04
38
C0
86
8A
72
ENDCHAR
STARTCHAR uni17A8
ENCODING 6056
SWIDTH 648 0
DWIDTH 9 0
BBX 7 12 1 0
BITMAP
EE
10
00
7C
82
82
04
38
C0
86
8A
72
ENDCHAR
STARTCHAR uni17A9
ENCODING 6057
SWIDTH 648 0
DWIDTH 9 0
BBX 7 9 1 0
BITMAP
7C
82
82
04
38
C0
8A
8A
6A
ENDCHAR
STARTCHAR uni17AA
ENCODING 6058
SWIDTH 648 0
DWIDTH 9 0
BBX 7 14 1 0
BITMAP
02
72
8C
80
00
7C
82
82
04
38
C0
86
8A
72
ENDCHAR
STARTCHAR uni17AB
ENCODING 6059
SWIDTH 648 0
DWIDTH 9 0
BBX 8 13 0 -4
BITMAP
63
84
C7
41
41
41
41
41
3E
04
02
42
3C
ENDCHAR
STARTCHAR uni17AC
ENCODING 6060
SWIDTH 648 0
DWIDTH 9 0
BBX 8 14 0 -5
BITMAP
63
84
C7
41
41
41
41
41
3E
04
02
42
3C
03
ENDCHAR
STARTCHAR uni17AD
ENCODING 6061
SWIDTH 648 0
DWIDTH 9 0
BBX 7 13 1 -4
BITMAP
6C
92
82
82
82
82
E2
A2
C2
08
04
84
78
ENDCHAR
STARTCHAR uni17AE
ENCODING 6062
SWIDTH 648 0
DWIDTH 9 0
BBX 7 14 1 -5
BITMAP
6C
92
82
82
82
82
E2
A2
C2
08
04
84
78
06
ENDCHAR
STARTCHAR uni17AF
ENCODING 6063
SWIDTH 648 0
DWIDTH 9 0
BBX 7 11 1 0
BITMAP
80
80
BC
C2
02
02
82
82
92
AA
C6
ENDCHAR
STARTCHAR uni17B0
ENCODING 6064
SWIDTH 648 0
DWIDTH 9 0
BBX 7 14 1 -5
BITMAP
6C
92
82
82
82
82
E2
A2
C2
04
78
82
92
6C
ENDCHAR
STARTCHAR uni17B1
ENCODING 6065
SWIDTH 648 0
DWIDTH 9 0
BBX 7 13 1 0
BITMAP
70
8C
82
00
7C
82
82
04
38
C0
86
8A
72
ENDCHAR
STARTCHAR uni17B2
ENCODING 6066
SWIDTH 648 0
DWIDTH 9 0
BBX 7 9 1 0
BITMAP
7C
80
8C
92
82
8C
82
82
7C
ENDCHAR
STARTCHAR uni17B3
ENCODING 6067
SWIDTH 648 0
DWIDTH 9 0
BBX 8 14 1 0
BITMAP
03
72
8A
86
00
7C
82
82
04
38
C0
86
8A
72
ENDCHAR
STARTCHAR uni17B6
ENCODING 6070
SWIDTH 288 0
DWIDTH 4 0
BBX 4 9 -1 0
BITMAP
E0
10
10
10
10
10
10
10
10
ENDCHAR
STARTCHAR uni17B7
ENCODING 6071
SWIDTH 0 0
DWIDTH 0 0
BBX 7 3 -8 10
BITMAP
78
84
FE
ENDCHAR
STARTCHAR uni17B8
ENCODING 6072
SWIDTH 0 0
DWIDTH 0 0
BBX 7 4 -8 10
BITMAP
02
7A
86
FE
ENDCHAR
STARTCHAR uni17B9
ENCODING 6073
SWIDTH 0 0
DWIDTH 0 0
BBX 8 3 -8 10
BITMAP
7B
85
FE
ENDCHAR
STARTCHAR uni17BA
ENCODING 6074
SWIDTH 0 0
DWIDTH 0 0
BBX 7 4 -8 10
BITMAP
0A
7A
86
FE
ENDCHAR
STARTCHAR uni17BB
ENCODING 6075
SWIDTH 0 0
DWIDTH 0 0
BBX 2 4 -3 -5
BITMAP
C0
40
40
40
ENDCHAR
STARTCHAR uni17BC
ENCODING 6076
SWIDTH 0 0
DWIDTH 0 0
BBX 4 4 -5 -5
BITMAP
90
90
90
60
ENDCHAR
STARTCHAR uni17BD
ENCODING 6077
SWIDTH 0 0
DWIDTH 0 0
BBX 5 4 -6 -5
BITMAP
88
A8
D8
88
ENDCHAR
STARTCHAR uni17BE
ENCODING 6078
SWIDTH 0 0
DWIDTH 0 0
BBX 7 4 -8 10
BITMAP
02
7A
86
FE
ENDCHAR
STARTCHAR uni17BF
ENCODING 6079
SWIDTH 288 0
DWIDTH 4 0
BBX 6 19 -3 -5
BITMAP
14
74
8C
FC
04
04
04
04
04
04
04
04
04
04
04
44
44
44
38
ENDCHAR
STARTCHAR uni17C0
ENCODING 6080
SWIDTH 288 0
DWIDTH 4 0
BBX 5 19 -2 -5
BITMAP
80
80
F0
08
08
08
08
08
08
08
08
08
08
08
08
88
88
88
70
ENDCHAR
STARTCHAR uni17C1
ENCODING 6081
SWIDTH 360 0
DWIDTH 5 0
BBX 3 9 1 0
BITMAP
60
80
C0
40
40
40
40
40
60
ENDCHAR
STARTCHAR uni17C2
ENCODING 6082
SWIDTH 360 0
DWIDTH 5 0
BBX 4 14 1 0
BITMAP
30
10
90
60
00
60
80
C0
40
40
40
40
40
60
ENDCHAR
STARTCHAR uni17C3
ENCODING 6083
SWIDTH 360 0
DWIDTH 5 0
BBX 4 14 1 0
BITMAP
80
F0
10
60
00
60
80
C0
40
40
40
40
40
60
ENDCHAR
STARTCHAR uni17C4
ENCODING 6084
SWIDTH 288 0
DWIDTH 4 0
BBX 4 9 -1 0
BITMAP
E0
10
10
10
10
10
10
10
10
ENDCHAR
STARTCHAR uni17C5
ENCODING 6085
SWIDTH 288 0
DWIDTH 4 0
BBX 4 13 -1 0
BITMAP
30
10
10
10
E0
10
10
10
10
10
10
10
10
ENDCHAR
STARTCHAR uni17C6
ENCODING 6086
SWIDTH 0 0
DWIDTH 0 0
BBX 3 3 -5 10
BITMAP
C0
A0
E0
ENDCHAR
STARTCHAR uni17C7
ENCODING 6087
SWIDTH 360 0
DWIDTH 5 0
BBX 3 9 1 0
BITMAP
C0
A0
E0
00
00
00
C0
A0
E0
ENDCHAR
STARTCHAR uni17C8
ENCODING 6088
SWIDTH 216 0
DWIDTH 3 0
BBX 2 9 0 0
BITMAP
80
C0
00
00
00
00
00
80
C0
ENDCHAR
STARTCHAR uni17C9
ENCODING 6089
SWIDTH 0 0
DWIDTH 0 0
BBX 3 3 -6 10
BITMAP
A0
A0
A0
ENDCHAR
STARTCHAR uni17CA
ENCODING 6090
SWIDTH 0 0
DWIDTH 0 0
BBX 7 2 -8 9
BITMAP
EE
10
ENDCHAR
STARTCHAR uni17CB
ENCODING 6091
SWIDTH 0 0
DWIDTH 0 0
BBX 1 3 -5 10
BITMAP
80
80
80
ENDCHAR
STARTCHAR uni17CC
ENCODING 6092
SWIDTH 0 0
DWIDTH 0 0
BBX 6 4 -8 10
BITMAP
70
8C
C0
20
ENDCHAR
STARTCHAR uni17CD
ENCODING 6093
SWIDTH 0 0
DWIDTH 0 0
BBX 6 3 -7 10
BITMAP
6C
90
C8
ENDCHAR
STARTCHAR uni17CE
ENCODING 6094
SWIDTH 0 0
DWIDTH 0 0
BBX 3 3 -6 10
BITMAP
40
E0
40
ENDCHAR
STARTCHAR uni17CF
ENCODING 6095
SWIDTH 0 0
DWIDTH 0 0
BBX 5 4 -7 10
BITMAP
78
80
A8
D8
ENDCHAR
STARTCHAR uni17D0
ENCODING 6096
SWIDTH 0 0
DWIDTH 0 0
BBX 6 4 -7 10
BITMAP
04
64
84
78
ENDCHAR
STARTCHAR uni17D1
ENCODING 6097
SWIDTH 0 0
DWIDTH 0 0
BBX 7 1 -8 11
BITMAP
FE
ENDCHAR
STARTCHAR uni17D2
ENCODING 6098
SWIDTH 0 0
DWIDTH 0 0
BBX 3 3 -6 -4
BITMAP
40
E0
40
ENDCHAR
STARTCHAR uni17D3
ENCODING 6099
SWIDTH 0 0
DWIDTH 0 0
BBX 3 4 -6 11
BITMAP
40
A0
A0
40
ENDCHAR
STARTCHAR uni17D4
ENCODING 6100
SWIDTH 576 0
DWIDTH 8 0
BBX 6 9 1 0
BITMAP
C4
84
8C
74
04
04
04
04
04
ENDCHAR
STARTCHAR uni17D5
ENCODING 6101
SWIDTH 792 0
DWIDTH 11 0
BBX 9 9 1 0
BITMAP
C480
8480
8C80
7480
0480
0480
0480
0480
0480
ENDCHAR
STARTCHAR uni17D6
ENCODING 6102
SWIDTH 504 0
DWIDTH 7 0
BBX 5 9 1 0
BITMAP
60
50
70
00
F8
00
60
50
70
ENDCHAR
STARTCHAR uni17D7
ENCODING 6103
SWIDTH 648 0
DWIDTH 9 0
BBX 7 11 1 -2
BITMAP
6C
92
82
82
62
02
02
02
02
42
3C
ENDCHAR
STARTCHAR uni17DB
ENCODING 6107
SWIDTH 432 0
DWIDTH 6 0
BBX 4 9 1 0
BITMAP
60
80
E0
20
F0
20
E0
A0
60
ENDCHAR
STARTCHAR uni17DD
ENCODING 6109
SWIDTH 0 0
DWIDTH 0 0
BBX 7 2 -8 10
BITMAP
7C
82
ENDCHAR
STARTCHAR uni17E0
ENCODING 6112
SWIDTH 648 0
DWIDTH 9 0
BBX 7 9 1 0
BITMAP
38
44
82
82
82
82
82
44
38
ENDCHAR
STARTCHAR uni17E1
ENCODING 6113
SWIDTH 648 0
DWIDTH 9 0
BBX 7 9 1 0
BITMAP
7C
82
82
82
E2
02
02
02
7C
ENDCHAR
STARTCHAR uni17E2
ENCODING 6114
SWIDTH 720 0
DWIDTH 10 0
BBX 9 11 0 0
BITMAP
C000
4000
4D80
5680
5080
5080
5C80
4080
4080
4080
3F00
ENDCHAR
STARTCHAR uni17E3
ENCODING 6115
SWIDTH 936 0
DWIDTH 13 0
BBX 11 9 1 0
BITMAP
7BC0
8420
8420
8420
8420
8420
E420
A420
C420
ENDCHAR
STARTCHAR uni17E4
ENCODING 6116
SWIDTH 648 0
DWIDTH 9 0
BBX 7 11 1 0
BITMAP
02
02
7A
86
80
80
86
84
84
82
7E
ENDCHAR
STARTCHAR uni17E5
ENCODING 6117
SWIDTH 648 0
DWIDTH 9 0
BBX 7 11 1 0
BITMAP
02
22
52
7E
80
80
86
84
84
82
7E
ENDCHAR
STARTCHAR uni17E6
ENCODING 6118
SWIDTH 648 0
DWIDTH 9 0
BBX 7 11 1 0
BITMAP
80
80
BC
C2
02
02
E2
82
82
82
7C
ENDCHAR
STARTCHAR uni17E7
ENCODING 6119
SWIDTH 792 0
DWIDTH 11 0
BBX 9 11 1 0
BITMAP
0080
0080
6C80
B480
8480
8480
8480
8480
E480
A480
C700
ENDCHAR
STARTCHAR uni17E8
ENCODING 6120
SWIDTH 648 0
DWIDTH 9 0
BBX 7 11 1 0
BITMAP
02
02
7A
86
80
80
8E
82
82
92
6C
ENDCHAR
STARTCHAR uni17E9
ENCODING 6121
SWIDTH 648 0
DWIDTH 9 0
BBX 7 11 1 0
BITMAP
02
02
3A
46
40
20
7C
80
80
82
7C
ENDCHAR
STARTCHAR ba-khmer.alt
ENCODING 6122
SWIDTH 648 0
DWIDTH 9 0
BBX 8 9 0 0
BITMAP
7F
80
C0
41
41
41
43
45
39
ENDCHAR
STARTCHAR nyo-khmer.less
ENCODING 6123
SWIDTH 936 0
DWIDTH 13 0
BBX 11 9 1 0
BITMAP
6DC0
9620
8420
8420
8420
8420
E420
A420
C420
ENDCHAR
STARTCHAR uni1E00
ENCODING 7680
SWIDTH 648 0
DWIDTH 9 0
BBX 9 15 0 -4
BITMAP
0800
1C00
1400
1400
2200
2200
4100
7F00
4100
8080
8080
0000
0C00
1200
0C00
ENDCHAR
STARTCHAR uni1E01
ENCODING 7681
SWIDTH 576 0
DWIDTH 8 0
BBX 7 12 1 -4
BITMAP
78
CC
04
7C
C4
84
CC
76
00
30
48
30
ENDCHAR
STARTCHAR uni1E02
ENCODING 7682
SWIDTH 648 0
DWIDTH 9 0
BBX 7 13 1 0
BITMAP
30
00
FC
86
82
82
84
F8
84
82
82
86
FC
ENDCHAR
STARTCHAR uni1E03
ENCODING 7683
SWIDTH 504 0
DWIDTH 7 0
BBX 6 13 1 0
BITMAP
C0
00
80
80
80
B8
CC
84
84
84
84
CC
B8
ENDCHAR
STARTCHAR uni1E04
ENCODING 7684
SWIDTH 648 0
DWIDTH 9 0
BBX 7 13 1 -2
BITMAP
FC
86
82
82
84
F8
84
82
82
86
FC
00
30
ENDCHAR
STARTCHAR uni1E05
ENCODING 7685
SWIDTH 504 0
DWIDTH 7 0
BBX 6 13 1 -2
BITMAP
80
80
80
B8
CC
84
84
84
84
CC
B8
00
30
ENDCHAR
STARTCHAR uni1E06
ENCODING 7686
SWIDTH 648 0
DWIDTH 9 0
BBX 7 13 1 -2
BITMAP
FC
86
82
82
84
F8
84
82
82
86
FC
00
78
ENDCHAR
STARTCHAR uni1E07
ENCODING 7687
SWIDTH 504 0
DWIDTH 7 0
BBX 6 13 1 -2
BITMAP
80
80
80
B8
CC
84
84
84
84
CC
B8
00
78
ENDCHAR
STARTCHAR uni1E08
ENCODING 7688
SWIDTH 720 0
DWIDTH 10 0
BBX 8 17 1 -3
BITMAP
08
10
00
1C
63
41
80
80
80
80
80
41
63
1C
08
24
18
ENDCHAR
STARTCHAR uni1E09
ENCODING 7689
SWIDTH 576 0
DWIDTH 8 0
BBX 6 14 1 -3
BITMAP
10
20
00
78
CC
80
80
80
84
CC
78
10
48
30
ENDCHAR
STARTCHAR uni1E0A
ENCODING 7690
SWIDTH 720 0
DWIDTH 10 0
BBX 8 13 1 0
BITMAP
30
00
F8
86
82
81
81
81
81
81
82
86
F8
ENDCHAR
STARTCHAR uni1E0B
ENCODING 7691
SWIDTH 576 0
DWIDTH 8 0
BBX 6 13 1 0
BITMAP
0C
00
04
04
04
74
CC
84
84
84
84
CC
74
ENDCHAR
STARTCHAR uni1E0C
ENCODING 7692
SWIDTH 720 0
DWIDTH 10 0
BBX 8 13 1 -2
BITMAP
F8
86
82
81
81
81
81
81
82
86
F8
00
30
ENDCHAR
STARTCHAR uni1E0D
ENCODING 7693
SWIDTH 576 0
DWIDTH 8 0
BBX 6 13 1 -2
BITMAP
04
04
04
74
CC
84
84
84
84
CC
74
00
30
ENDCHAR
STARTCHAR uni1E0E
ENCODING 7694
SWIDTH 720 0
DWIDTH 10 0
BBX 8 13 1 -2
BITMAP
F8
86
82
81
81
81
81
81
82
86
F8
00
78
ENDCHAR
STARTCHAR uni1E0F
ENCODING 7695
SWIDTH 576 0
DWIDTH 8 0
BBX 6 13 1 -2
BITMAP
04
04
04
74
CC
84
84
84
84
CC
74
00
78
ENDCHAR
STARTCHAR uni1E10
ENCODING 7696
SWIDTH 720 0
DWIDTH 10 0
BBX 8 14 1 -3
BITMAP
F8
86
82
81
81
81
81
81
82
86
F8
10
48
30
ENDCHAR
STARTCHAR uni1E11
ENCODING 7697
SWIDTH 576 0
DWIDTH 8 0
BBX 6 14 1 -3
BITMAP
04
04
04
74
CC
84
84
84
84
CC
74
10
48
30
ENDCHAR
STARTCHAR uni1E12
ENCODING 7698
SWIDTH 720 0
DWIDTH 10 0
BBX 8 14 1 -3
BITMAP
F8
86
82
81
81
81
81
81
82
86
F8
00
10
28
ENDCHAR
STARTCHAR uni1E13
ENCODING 7699
SWIDTH 576 0
DWIDTH 8 0
BBX 6 14 1 -3
BITMAP
04
04
04
74
CC
84
84
84
84
CC
74
00
10
28
ENDCHAR
STARTCHAR uni1E14
ENCODING 7700
SWIDTH 648 0
DWIDTH 9 0
BBX 7 16 1 0
BITMAP
20
10
00
78
00
FE
80
80
80
80
FC
80
80
80
80
FE
ENDCHAR
STARTCHAR uni1E15
ENCODING 7701
SWIDTH 576 0
DWIDTH 8 0
BBX 6 13 1 0
BITMAP
20
10
00
78
00
78
CC
84
FC
80
80
CC
78
ENDCHAR
STARTCHAR uni1E16
ENCODING 7702
SWIDTH 648 0
DWIDTH 9 0
BBX 7 16 1 0
BITMAP
08
10
00
78
00
FE
80
80
80
80
FC
80
80
80
80
FE
ENDCHAR
STARTCHAR uni1E17
ENCODING 7703
SWIDTH 576 0
DWIDTH 8 0
BBX 6 13 1 0
BITMAP
10
20
00
78
00
78
CC
84
FC
80
80
CC
78
ENDCHAR
STARTCHAR uni1E18
ENCODING 7704
SWIDTH 648 0
DWIDTH 9 0
BBX 7 14 1 -3
BITMAP
FE
80
80
80
80
FC
80
80
80
80
FE
00
10
28
ENDCHAR
STARTCHAR uni1E19
ENCODING 7705
SWIDTH 576 0
DWIDTH 8 0
BBX 6 11 1 -3
BITMAP
78
CC
84
FC
80
80
CC
78
00
20
50
ENDCHAR
STARTCHAR uni1E1A
ENCODING 7706
SWIDTH 648 0
DWIDTH 9 0
BBX 7 14 1 -3
BITMAP
FE
80
80
80
80
FC
80
80
80
80
FE
00
68
B0
ENDCHAR
STARTCHAR uni1E1B
ENCODING 7707
SWIDTH 576 0
DWIDTH 8 0
BBX 6 11 1 -3
BITMAP
78
CC
84
FC
80
80
CC
78
00
68
B0
ENDCHAR
STARTCHAR uni1E1C
ENCODING 7708
SWIDTH 648 0
DWIDTH 9 0
BBX 7 17 1 -3
BITMAP
88
70
00
FE
80
80
80
80
FC
80
80
80
80
FE
10
48
30
ENDCHAR
STARTCHAR uni1E1D
ENCODING 7709
SWIDTH 576 0
DWIDTH 8 0
BBX 6 14 1 -3
BITMAP
44
38
00
78
CC
84
FC
80
80
CC
78
20
90
60
ENDCHAR
STARTCHAR uni1E1E
ENCODING 7710
SWIDTH 576 0
DWIDTH 8 0
BBX 7 13 1 0
BITMAP
30
00
FE
80
80
80
80
FC
80
80
80
80
80
ENDCHAR
STARTCHAR uni1E1F
ENCODING 7711
SWIDTH 288 0
DWIDTH 4 0
BBX 4 13 0 0
BITMAP
60
00
30
40
40
E0
40
40
40
40
40
40
40
ENDCHAR
STARTCHAR uni1E20
ENCODING 7712
SWIDTH 792 0
DWIDTH 11 0
BBX 9 13 1 0
BITMAP
1E00
0000
1E00
6180
4080
8000
8000
8780
8080
8080
4080
6380
1C80
ENDCHAR
STARTCHAR uni1E21
ENCODING 7713
SWIDTH 576 0
DWIDTH 8 0
BBX 6 13 1 -3
BITMAP
78
00
74
CC
84
84
84
84
CC
74
04
CC
78
ENDCHAR
STARTCHAR uni1E22
ENCODING 7714
SWIDTH 720 0
DWIDTH 10 0
BBX 8 13 1 0
BITMAP
18
00
81
81
81
81
81
FF
81
81
81
81
81
ENDCHAR
STARTCHAR uni1E23
ENCODING 7715
SWIDTH 576 0
DWIDTH 8 0
BBX 6 13 1 0
BITMAP
C0
00
80
80
80
B8
CC
84
84
84
84
84
84
ENDCHAR
STARTCHAR uni1E24
ENCODING 7716
SWIDTH 720 0
DWIDTH 10 0
BBX 8 13 1 -2
BITMAP
81
81
81
81
81
FF
81
81
81
81
81
00
18
ENDCHAR
STARTCHAR uni1E25
ENCODING 7717
SWIDTH 576 0
DWIDTH 8 0
BBX 6 13 1 -2
BITMAP
80
80
80
B8
CC
84
84
84
84
84
84
00
30
ENDCHAR
STARTCHAR uni1E26
ENCODING 7718
SWIDTH 720 0
DWIDTH 10 0
BBX 8 13 1 0
BITMAP
36
00
81
81
81
81
81
FF
81
81
81
81
81
ENDCHAR
STARTCHAR uni1E27
ENCODING 7719
SWIDTH 576 0
DWIDTH 8 0
BBX 7 13 0 0
BITMAP
D8
00
40
40
40
5C
66
42
42
42
42
42
42
ENDCHAR
STARTCHAR uni1E28
ENCODING 7720
SWIDTH 720 0
DWIDTH 10 0
BBX 8 14 1 -3
BITMAP
81
81
81
81
81
FF
81
81
81
81
81
08
24
18
ENDCHAR
STARTCHAR uni1E29
ENCODING 7721
SWIDTH 576 0
DWIDTH 8 0
BBX 6 14 1 -3
BITMAP
80
80
80
B8
CC
84
84
84
84
84
84
10
48
30
ENDCHAR
STARTCHAR uni1E2A
ENCODING 7722
SWIDTH 720 0
DWIDTH 10 0
BBX 8 14 1 -3
BITMAP
81
81
81
81
81
FF
81
81
81
81
81
00
22
1C
ENDCHAR
STARTCHAR uni1E2B
ENCODING 7723
SWIDTH 576 0
DWIDTH 8 0
BBX 6 14 1 -3
BITMAP
80
80
80
B8
CC
84
84
84
84
84
84
00
44
38
ENDCHAR
STARTCHAR uni1E2C
ENCODING 7724
SWIDTH 288 0
DWIDTH 4 0
BBX 5 14 0 -3
BITMAP
20
20
20
20
20
20
20
20
20
20
20
00
68
B0
ENDCHAR
STARTCHAR uni1E2D
ENCODING 7725
SWIDTH 216 0
DWIDTH 3 0
BBX 5 14 -1 -3
BITMAP
20
20
00
20
20
20
20
20
20
20
20
00
68
B0
ENDCHAR
STARTCHAR uni1E2E
ENCODING 7726
SWIDTH 288 0
DWIDTH 4 0
BBX 5 16 0 0
BITMAP
10
20
00
D8
00
20
20
20
20
20
20
20
20
20
20
20
ENDCHAR
STARTCHAR uni1E2F
ENCODING 7727
SWIDTH 216 0
DWIDTH 3 0
BBX 3 14 0 0
BITMAP
20
40
00
A0
A0
00
40
40
40
40
40
40
40
40
ENDCHAR
STARTCHAR uni1E30
ENCODING 7728
SWIDTH 648 0
DWIDTH 9 0
BBX 8 14 1 0
BITMAP
08
10
00
82
84
88
90
A0
E0
90
88
84
82
81
ENDCHAR
STARTCHAR uni1E31
ENCODING 7729
SWIDTH 504 0
DWIDTH 7 0
BBX 6 14 1 0
BITMAP
20
40
00
80
80
80
88
90
A0
C0
A0
90
88
84
ENDCHAR
STARTCHAR uni1E32
ENCODING 7730
SWIDTH 648 0
DWIDTH 9 0
BBX 8 13 1 -2
BITMAP
82
84
88
90
A0
E0
90
88
84
82
81
00
18
ENDCHAR
STARTCHAR uni1E33
ENCODING 7731
SWIDTH 504 0
DWIDTH 7 0
BBX 6 13 1 -2
BITMAP
80
80
80
88
90
A0
C0
A0
90
88
84
00
30
ENDCHAR
STARTCHAR uni1E34
ENCODING 7732
SWIDTH 648 0
DWIDTH 9 0
BBX 8 13 1 -2
BITMAP
82
84
88
90
A0
E0
90
88
84
82
81
00
3C
ENDCHAR
STARTCHAR uni1E35
ENCODING 7733
SWIDTH 504 0
DWIDTH 7 0
BBX 6 13 1 -2
BITMAP
80
80
80
88
90
A0
C0
A0
90
88
84
00
78
ENDCHAR
STARTCHAR uni1E36
ENCODING 7734
SWIDTH 576 0
DWIDTH 8 0
BBX 6 13 2 -2
BITMAP
80
80
80
80
80
80
80
80
80
80
FC
00
30
ENDCHAR
STARTCHAR uni1E37
ENCODING 7735
SWIDTH 216 0
DWIDTH 3 0
BBX 2 13 1 -2
BITMAP
80
80
80
80
80
80
80
80
80
80
80
00
C0
ENDCHAR
STARTCHAR uni1E38
ENCODING 7736
SWIDTH 576 0
DWIDTH 8 0
BBX 7 15 1 -2
BITMAP
F0
00
40
40
40
40
40
40
40
40
40
40
7E
00
18
ENDCHAR
STARTCHAR uni1E39
ENCODING 7737
SWIDTH 216 0
DWIDTH 3 0
BBX 4 15 0 -2
BITMAP
F0
00
40
40
40
40
40
40
40
40
40
40
40
00
60
ENDCHAR
STARTCHAR uni1E3A
ENCODING 7738
SWIDTH 576 0
DWIDTH 8 0
BBX 6 13 2 -2
BITMAP
80
80
80
80
80
80
80
80
80
80
FC
00
78
ENDCHAR
STARTCHAR uni1E3B
ENCODING 7739
SWIDTH 216 0
DWIDTH 3 0
BBX 4 13 0 -2
BITMAP
40
40
40
40
40
40
40
40
40
40
40
00
F0
ENDCHAR
STARTCHAR uni1E3C
ENCODING 7740
SWIDTH 576 0
DWIDTH 8 0
BBX 6 14 2 -3
BITMAP
80
80
80
80
80
80
80
80
80
80
FC
00
20
50
ENDCHAR
STARTCHAR uni1E3D
ENCODING 7741
SWIDTH 216 0
DWIDTH 3 0
BBX 3 14 0 -3
BITMAP
40
40
40
40
40
40
40
40
40
40
40
00
40
A0
ENDCHAR
STARTCHAR uni1E3E
ENCODING 7742
SWIDTH 864 0
DWIDTH 12 0
BBX 11 14 0 0
BITMAP
0200
0400
0000
8020
C060
C060
A0A0
A0A0
9120
9120
8A20
8A20
8420
8420
ENDCHAR
STARTCHAR uni1E3F
ENCODING 7743
SWIDTH 792 0
DWIDTH 11 0
BBX 9 11 1 0
BITMAP
0400
0800
0000
B300
CC80
8880
8880
8880
8880
8880
8880
ENDCHAR
STARTCHAR uni1E40
ENCODING 7744
SWIDTH 864 0
DWIDTH 12 0
BBX 11 13 0 0
BITMAP
0600
0000
8020
C060
C060
A0A0
A0A0
9120
9120
8A20
8A20
8420
8420
ENDCHAR
STARTCHAR uni1E41
ENCODING 7745
SWIDTH 792 0
DWIDTH 11 0
BBX 9 10 1 0
BITMAP
1800
0000
B300
CC80
8880
8880
8880
8880
8880
8880
ENDCHAR
STARTCHAR uni1E42
ENCODING 7746
SWIDTH 864 0
DWIDTH 12 0
BBX 11 13 0 -2
BITMAP
8020
C060
C060
A0A0
A0A0
9120
9120
8A20
8A20
8420
8420
0000
0600
ENDCHAR
STARTCHAR uni1E43
ENCODING 7747
SWIDTH 792 0
DWIDTH 11 0
BBX 9 10 1 -2
BITMAP
B300
CC80
8880
8880
8880
8880
8880
8880
0000
0C00
ENDCHAR
STARTCHAR uni1E44
ENCODING 7748
SWIDTH 720 0
DWIDTH 10 0
BBX 8 13 1 0
BITMAP
18
00
C1
A1
A1
91
91
89
89
85
85
83
83
ENDCHAR
STARTCHAR uni1E45
ENCODING 7749
SWIDTH 576 0
DWIDTH 8 0
BBX 6 10 1 0
BITMAP
30
00
B8
CC
84
84
84
84
84
84
ENDCHAR
STARTCHAR uni1E46
ENCODING 7750
SWIDTH 720 0
DWIDTH 10 0
BBX 8 13 1 -2
BITMAP
C1
A1
A1
91
91
89
89
85
85
83
83
00
18
ENDCHAR
STARTCHAR uni1E47
ENCODING 7751
SWIDTH 576 0
DWIDTH 8 0
BBX 6 10 1 -2
BITMAP
B8
CC
84
84
84
84
84
84
00
30
ENDCHAR
STARTCHAR uni1E48
ENCODING 7752
SWIDTH 720 0
DWIDTH 10 0
BBX 8 13 1 -2
BITMAP
C1
A1
A1
91
91
89
89
85
85
83
83
00
3C
ENDCHAR
STARTCHAR uni1E49
ENCODING 7753
SWIDTH 576 0
DWIDTH 8 0
BBX 6 10 1 -2
BITMAP
B8
CC
84
84
84
84
84
84
00
78
ENDCHAR
STARTCHAR uni1E4A
ENCODING 7754
SWIDTH 720 0
DWIDTH 10 0
BBX 8 14 1 -3
BITMAP
C1
A1
A1
91
91
89
89
85
85
83
83
00
08
14
ENDCHAR
STARTCHAR uni1E4B
ENCODING 7755
SWIDTH 576 0
DWIDTH 8 0
BBX 6 11 1 -3
BITMAP
B8
CC
84
84
84
84
84
84
00
10
28
ENDCHAR
STARTCHAR uni1E4C
ENCODING 7756
SWIDTH 792 0
DWIDTH 11 0
BBX 9 17 1 0
BITMAP
0400
0800
0000
1A00
2C00
0000
1C00
6300
4100
8080
8080
8080
8080
8080
4100
6300
1C00
ENDCHAR
STARTCHAR uni1E4D
ENCODING 7757
SWIDTH 576 0
DWIDTH 8 0
BBX 6 14 1 0
BITMAP
10
20
00
68
B0
00
78
CC
84
84
84
84
CC
78
ENDCHAR
STARTCHAR uni1E4E
ENCODING 7758
SWIDTH 792 0
DWIDTH 11 0
BBX 9 16 1 0
BITMAP
3600
0000
1A00
2C00
0000
1C00
6300
4100
8080
8080
8080
8080
8080
4100
6300
1C00
ENDCHAR
STARTCHAR uni1E4F
ENCODING 7759
SWIDTH 576 0
DWIDTH 8 0
BBX 6 13 1 0
BITMAP
D8
00
68
B0
00
78
CC
84
84
84
84
CC
78
ENDCHAR
STARTCHAR uni1E50
ENCODING 7760
SWIDTH 792 0
DWIDTH 11 0
BBX 9 16 1 0
BITMAP
1000
0800
0000
1E00
0000
1C00
6300
4100
8080
8080
8080
8080
8080
4100
6300
1C00
ENDCHAR
STARTCHAR uni1E51
ENCODING 7761
SWIDTH 576 0
DWIDTH 8 0
BBX 6 13 1 0
BITMAP
20
10
00
78
00
78
CC
84
84
84
84
CC
78
ENDCHAR
STARTCHAR uni1E52
ENCODING 7762
SWIDTH 792 0
DWIDTH 11 0
BBX 9 16 1 0
BITMAP
0400
0800
0000
1E00
0000
1C00
6300
4100
8080
8080
8080
8080
8080
4100
6300
1C00
ENDCHAR
STARTCHAR uni1E53
ENCODING 7763
SWIDTH 576 0
DWIDTH 8 0
BBX 6 13 1 0
BITMAP
10
20
00
78
00
78
CC
84
84
84
84
CC
78
ENDCHAR
STARTCHAR uni1E54
ENCODING 7764
SWIDTH 648 0
DWIDTH 9 0
BBX 7 14 1 0
BITMAP
08
10
00
FC
86
82
82
86
FC
80
80
80
80
80
ENDCHAR
STARTCHAR uni1E55
ENCODING 7765
SWIDTH 576 0
DWIDTH 8 0
BBX 6 14 1 -3
BITMAP
10
20
00
B8
CC
84
84
84
84
CC
B8
80
80
80
ENDCHAR
STARTCHAR uni1E56
ENCODING 7766
SWIDTH 648 0
DWIDTH 9 0
BBX 7 13 1 0
BITMAP
30
00
FC
86
82
82
86
FC
80
80
80
80
80
ENDCHAR
STARTCHAR uni1E57
ENCODING 7767
SWIDTH 576 0
DWIDTH 8 0
BBX 6 13 1 -3
BITMAP
30
00
B8
CC
84
84
84
84
CC
B8
80
80
80
ENDCHAR
STARTCHAR uni1E58
ENCODING 7768
SWIDTH 720 0
DWIDTH 10 0
BBX 8 13 1 0
BITMAP
18
00
FE
83
81
81
82
FC
82
81
81
81
81
ENDCHAR
STARTCHAR uni1E59
ENCODING 7769
SWIDTH 360 0
DWIDTH 5 0
BBX 4 10 1 0
BITMAP
60
00
B0
C0
80
80
80
80
80
80
ENDCHAR
STARTCHAR uni1E5A
ENCODING 7770
SWIDTH 720 0
DWIDTH 10 0
BBX 8 13 1 -2
BITMAP
FE
83
81
81
82
FC
82
81
81
81
81
00
18
ENDCHAR
STARTCHAR uni1E5B
ENCODING 7771
SWIDTH 360 0
DWIDTH 5 0
BBX 4 10 1 -2
BITMAP
B0
C0
80
80
80
80
80
80
00
C0
ENDCHAR
STARTCHAR uni1E5C
ENCODING 7772
SWIDTH 720 0
DWIDTH 10 0
BBX 8 15 1 -2
BITMAP
3C
00
FE
83
81
81
82
FC
82
81
81
81
81
00
18
ENDCHAR
STARTCHAR uni1E5D
ENCODING 7773
SWIDTH 360 0
DWIDTH 5 0
BBX 4 12 1 -2
BITMAP
F0
00
B0
C0
80
80
80
80
80
80
00
C0
ENDCHAR
STARTCHAR uni1E5E
ENCODING 7774
SWIDTH 720 0
DWIDTH 10 0
BBX 8 13 1 -2
BITMAP
FE
83
81
81
82
FC
82
81
81
81
81
00
3C
ENDCHAR
STARTCHAR uni1E5F
ENCODING 7775
SWIDTH 360 0
DWIDTH 5 0
BBX 5 10 0 -2
BITMAP
58
60
40
40
40
40
40
40
00
F0
ENDCHAR
STARTCHAR uni1E60
ENCODING 7776
SWIDTH 648 0
DWIDTH 9 0
BBX 7 13 1 0
BITMAP
18
00
38
C6
82
80
60
18
06
02
82
C6
38
ENDCHAR
STARTCHAR uni1E61
ENCODING 7777
SWIDTH 504 0
DWIDTH 7 0
BBX 5 10 1 0
BITMAP
60
00
70
88
C0
70
18
08
88
70
ENDCHAR
STARTCHAR uni1E62
ENCODING 7778
SWIDTH 648 0
DWIDTH 9 0
BBX 7 13 1 -2
BITMAP
38
C6
82
80
60
18
06
02
82
C6
38
00
18
ENDCHAR
STARTCHAR uni1E63
ENCODING 7779
SWIDTH 504 0
DWIDTH 7 0
BBX 5 10 1 -2
BITMAP
70
88
C0
70
18
08
88
70
00
30
ENDCHAR
STARTCHAR uni1E64
ENCODING 7780
SWIDTH 648 0
DWIDTH 9 0
BBX 7 16 1 0
BITMAP
18
00
08
10
00
38
C6
82
80
60
18
06
02
82
C6
38
ENDCHAR
STARTCHAR uni1E65
ENCODING 7781
SWIDTH 504 0
DWIDTH 7 0
BBX 5 13 1 0
BITMAP
30
00
10
20
00
70
88
C0
70
18
08
88
70
ENDCHAR
STARTCHAR uni1E66
ENCODING 7782
SWIDTH 648 0
DWIDTH 9 0
BBX 7 13 1 0
BITMAP
18
00
28
10
00
7C
82
80
7C
02
02
82
7C
ENDCHAR
STARTCHAR uni1E67
ENCODING 7783
SWIDTH 576 0
DWIDTH 8 0
BBX 6 13 1 0
BITMAP
30
00
50
20
00
78
84
80
78
0C
04
84
78
ENDCHAR
STARTCHAR uni1E68
ENCODING 7784
SWIDTH 648 0
DWIDTH 9 0
BBX 7 15 1 -2
BITMAP
30
00
38
C6
82
80
60
18
06
02
82
C6
38
00
18
ENDCHAR
STARTCHAR uni1E69
ENCODING 7785
SWIDTH 504 0
DWIDTH 7 0
BBX 5 12 1 -2
BITMAP
60
00
70
88
C0
70
18
08
88
70
00
30
ENDCHAR
STARTCHAR uni1E6A
ENCODING 7786
SWIDTH 648 0
DWIDTH 9 0
BBX 9 13 0 0
BITMAP
0C00
0000
FF80
0800
0800
0800
0800
0800
0800
0800
0800
0800
0800
ENDCHAR
STARTCHAR uni1E6B
ENCODING 7787
SWIDTH 288 0
DWIDTH 4 0
BBX 4 12 0 0
BITMAP
60
00
40
40
E0
40
40
40
40
40
40
30
ENDCHAR
STARTCHAR uni1E6C
ENCODING 7788
SWIDTH 648 0
DWIDTH 9 0
BBX 9 13 0 -2
BITMAP
FF80
0800
0800
0800
0800
0800
0800
0800
0800
0800
0800
0000
0C00
ENDCHAR
STARTCHAR uni1E6D
ENCODING 7789
SWIDTH 288 0
DWIDTH 4 0
BBX 4 12 0 -2
BITMAP
40
40
E0
40
40
40
40
40
40
30
00
60
ENDCHAR
STARTCHAR uni1E6E
ENCODING 7790
SWIDTH 648 0
DWIDTH 9 0
BBX 9 13 0 -2
BITMAP
FF80
0800
0800
0800
0800
0800
0800
0800
0800
0800
0800
0000
1E00
ENDCHAR
STARTCHAR uni1E6F
ENCODING 7791
SWIDTH 288 0
DWIDTH 4 0
BBX 4 12 0 -2
BITMAP
40
40
E0
40
40
40
40
40
40
30
00
F0
ENDCHAR
STARTCHAR uni1E70
ENCODING 7792
SWIDTH 648 0
DWIDTH 9 0
BBX 9 14 0 -3
BITMAP
FF80
0800
0800
0800
0800
0800
0800
0800
0800
0800
0800
0000
0800
1400
ENDCHAR
STARTCHAR uni1E71
ENCODING 7793
SWIDTH 288 0
DWIDTH 4 0
BBX 4 13 0 -3
BITMAP
40
40
E0
40
40
40
40
40
40
30
00
20
50
ENDCHAR
STARTCHAR uni1E72
ENCODING 7794
SWIDTH 720 0
DWIDTH 10 0
BBX 8 13 1 -2
BITMAP
81
81
81
81
81
81
81
81
81
42
3C
00
36
ENDCHAR
STARTCHAR uni1E73
ENCODING 7795
SWIDTH 504 0
DWIDTH 7 0
BBX 6 10 1 -2
BITMAP
84
84
84
84
84
84
CC
74
00
6C
ENDCHAR
STARTCHAR uni1E74
ENCODING 7796
SWIDTH 720 0
DWIDTH 10 0
BBX 8 14 1 -3
BITMAP
81
81
81
81
81
81
81
81
81
42
3C
00
34
58
ENDCHAR
STARTCHAR uni1E75
ENCODING 7797
SWIDTH 504 0
DWIDTH 7 0
BBX 6 11 1 -3
BITMAP
84
84
84
84
84
84
CC
74
00
68
B0
ENDCHAR
STARTCHAR uni1E76
ENCODING 7798
SWIDTH 720 0
DWIDTH 10 0
BBX 8 14 1 -3
BITMAP
81
81
81
81
81
81
81
81
81
42
3C
00
08
14
ENDCHAR
STARTCHAR uni1E77
ENCODING 7799
SWIDTH 504 0
DWIDTH 7 0
BBX 6 11 1 -3
BITMAP
84
84
84
84
84
84
CC
74
00
10
28
ENDCHAR
STARTCHAR uni1E78
ENCODING 7800
SWIDTH 720 0
DWIDTH 10 0
BBX 8 17 1 0
BITMAP
04
08
00
1A
2C
00
81
81
81
81
81
81
81
81
81
42
3C
ENDCHAR
STARTCHAR uni1E79
ENCODING 7801
SWIDTH 504 0
DWIDTH 7 0
BBX 6 14 1 0
BITMAP
08
10
00
34
58
00
84
84
84
84
84
84
CC
74
ENDCHAR
STARTCHAR uni1E7A
ENCODING 7802
SWIDTH 720 0
DWIDTH 10 0
BBX 8 15 1 0
BITMAP
36
00
3C
00
81
81
81
81
81
81
81
81
81
42
3C
ENDCHAR
STARTCHAR uni1E7B
ENCODING 7803
SWIDTH 504 0
DWIDTH 7 0
BBX 6 12 1 0
BITMAP
6C
00
78
00
84
84
84
84
84
84
CC
74
ENDCHAR
STARTCHAR uni1E7C
ENCODING 7804
SWIDTH 648 0
DWIDTH 9 0
BBX 9 14 0 0
BITMAP
1A00
2C00
0000
8080
8080
4100
4100
6300
2200
2200
1400
1400
0800
0800
ENDCHAR
STARTCHAR uni1E7D
ENCODING 7805
SWIDTH 504 0
DWIDTH 7 0
BBX 7 11 0 0
BITMAP
34
58
00
82
82
44
44
44
28
28
10
ENDCHAR
STARTCHAR uni1E7E
ENCODING 7806
SWIDTH 648 0
DWIDTH 9 0
BBX 9 13 0 -2
BITMAP
8080
8080
4100
4100
6300
2200
2200
1400
1400
0800
0800
0000
0C00
ENDCHAR
STARTCHAR uni1E7F
ENCODING 7807
SWIDTH 504 0
DWIDTH 7 0
BBX 7 10 0 -2
BITMAP
82
82
44
44
44
28
28
10
00
18
ENDCHAR
STARTCHAR Wgrave
ENCODING 7808
SWIDTH 936 0
DWIDTH 13 0
BBX 13 14 0 0
BITMAP
0400
0200
0000
8208
8208
8508
4510
4510
4510
28A0
28A0
28A0
1040
1040
ENDCHAR
STARTCHAR wgrave
ENCODING 7809
SWIDTH 720 0
DWIDTH 10 0
BBX 9 11 0 0
BITMAP
1000
0800
0000
8880
8880
8880
4900
4900
5500
2200
2200
ENDCHAR
STARTCHAR Wacute
ENCODING 7810
SWIDTH 936 0
DWIDTH 13 0
BBX 13 14 0 0
BITMAP
0100
0200
0000
8208
8208
8508
4510
4510
4510
28A0
28A0
28A0
1040
1040
ENDCHAR
STARTCHAR wacute
ENCODING 7811
SWIDTH 720 0
DWIDTH 10 0
BBX 9 11 0 0
BITMAP
0400
0800
0000
8880
8880
8880
4900
4900
5500
2200
2200
ENDCHAR
STARTCHAR Wdieresis
ENCODING 7812
SWIDTH 936 0
DWIDTH 13 0
BBX 13 13 0 0
BITMAP
0D80
0000
8208
8208
8508
4510
4510
4510
28A0
28A0
28A0
1040
1040
ENDCHAR
STARTCHAR wdieresis
ENCODING 7813
SWIDTH 720 0
DWIDTH 10 0
BBX 9 10 0 0
BITMAP
3600
0000
8880
8880
8880
4900
4900
5500
2200
2200
ENDCHAR
STARTCHAR uni1E86
ENCODING 7814
SWIDTH 936 0
DWIDTH 13 0
BBX 13 13 0 0
BITMAP
0300
0000
8208
8208
8508
4510
4510
4510
28A0
28A0
28A0
1040
1040
ENDCHAR
STARTCHAR uni1E87
ENCODING 7815
SWIDTH 720 0
DWIDTH 10 0
BBX 9 10 0 0
BITMAP
0C00
0000
8880
8880
8880
4900
4900
5500
2200
2200
ENDCHAR
STARTCHAR uni1E88
ENCODING 7816
SWIDTH 936 0
DWIDTH 13 0
BBX 13 13 0 -2
BITMAP
8208
8208
8508
4510
4510
4510
28A0
28A0
28A0
1040
1040
0000
0300
ENDCHAR
STARTCHAR uni1E89
ENCODING 7817
SWIDTH 720 0
DWIDTH 10 0
BBX 9 10 0 -2
BITMAP
8880
8880
8880
4900
4900
5500
2200
2200
0000
0C00
ENDCHAR
STARTCHAR uni1E8A
ENCODING 7818
SWIDTH 648 0
DWIDTH 9 0
BBX 9 13 0 0
BITMAP
0C00
0000
8080
4100
2200
1400
0800
0800
1400
2200
4100
4100
8080
ENDCHAR
STARTCHAR uni1E8B
ENCODING 7819
SWIDTH 504 0
DWIDTH 7 0
BBX 7 10 0 0
BITMAP
18
00
C6
44
28
10
10
28
44
C6
ENDCHAR
STARTCHAR uni1E8C
ENCODING 7820
SWIDTH 648 0
DWIDTH 9 0
BBX 9 13 0 0
BITMAP
3600
0000
8080
4100
2200
1400
0800
0800
1400
2200
4100
4100
8080
ENDCHAR
STARTCHAR uni1E8D
ENCODING 7821
SWIDTH 504 0
DWIDTH 7 0
BBX 7 10 0 0
BITMAP
6C
00
C6
44
28
10
10
28
44
C6
ENDCHAR
STARTCHAR uni1E8E
ENCODING 7822
SWIDTH 648 0
DWIDTH 9 0
BBX 9 13 0 0
BITMAP
0C00
0000
8080
C180
4100
2200
2200
1400
1C00
0800
0800
0800
0800
ENDCHAR
STARTCHAR uni1E8F
ENCODING 7823
SWIDTH 504 0
DWIDTH 7 0
BBX 7 13 0 -3
BITMAP
30
00
82
C2
44
44
24
28
18
10
10
30
60
ENDCHAR
STARTCHAR uni1E90
ENCODING 7824
SWIDTH 648 0
DWIDTH 9 0
BBX 7 14 1 0
BITMAP
10
28
00
FE
02
04
08
18
10
20
60
40
80
FE
ENDCHAR
STARTCHAR uni1E91
ENCODING 7825
SWIDTH 504 0
DWIDTH 7 0
BBX 6 11 0 0
BITMAP
10
28
00
FC
04
08
10
20
40
80
FC
ENDCHAR
STARTCHAR uni1E92
ENCODING 7826
SWIDTH 648 0
DWIDTH 9 0
BBX 7 13 1 -2
BITMAP
FE
02
04
08
18
10
20
60
40
80
FE
00
30
ENDCHAR
STARTCHAR uni1E93
ENCODING 7827
SWIDTH 504 0
DWIDTH 7 0
BBX 6 10 0 -2
BITMAP
FC
04
08
10
20
40
80
FC
00
30
ENDCHAR
STARTCHAR uni1E94
ENCODING 7828
SWIDTH 648 0
DWIDTH 9 0
BBX 7 13 1 -2
BITMAP
FE
02
04
08
18
10
20
60
40
80
FE
00
78
ENDCHAR
STARTCHAR uni1E95
ENCODING 7829
SWIDTH 504 0
DWIDTH 7 0
BBX 6 10 0 -2
BITMAP
FC
04
08
10
20
40
80
FC
00
78
ENDCHAR
STARTCHAR uni1E96
ENCODING 7830
SWIDTH 576 0
DWIDTH 8 0
BBX 6 13 1 -2
BITMAP
80
80
80
B8
CC
84
84
84
84
84
84
00
78
ENDCHAR
STARTCHAR uni1E97
ENCODING 7831
SWIDTH 288 0
DWIDTH 4 0
BBX 5 12 -1 0
BITMAP
D8
00
20
20
70
20
20
20
20
20
20
18
ENDCHAR
STARTCHAR uni1E98
ENCODING 7832
SWIDTH 720 0
DWIDTH 10 0
BBX 9 12 0 0
BITMAP
0C00
1200
0C00
0000
8880
8880
8880
4900
4900
5500
2200
2200
ENDCHAR
STARTCHAR uni1E99
ENCODING 7833
SWIDTH 504 0
DWIDTH 7 0
BBX 7 15 0 -3
BITMAP
30
48
30
00
82
C2
44
44
24
28
18
10
10
30
60
ENDCHAR
STARTCHAR uni1EA0
ENCODING 7840
SWIDTH 648 0
DWIDTH 9 0
BBX 9 13 0 -2
BITMAP
0800
1C00
1400
1400
2200
2200
4100
7F00
4100
8080
8080
0000
0C00
ENDCHAR
STARTCHAR uni1EA1
ENCODING 7841
SWIDTH 576 0
DWIDTH 8 0
BBX 7 10 1 -2
BITMAP
78
CC
04
7C
C4
84
CC
76
00
30
ENDCHAR
STARTCHAR uni1EA4
ENCODING 7844
SWIDTH 648 0
DWIDTH 9 0
BBX 9 17 0 0
BITMAP
0400
0800
0000
0C00
1200
0000
0800
1C00
1400
1400
2200
2200
4100
7F00
4100
8080
8080
ENDCHAR
STARTCHAR uni1EA5
ENCODING 7845
SWIDTH 576 0
DWIDTH 8 0
BBX 7 14 1 0
BITMAP
08
10
00
30
48
00
78
CC
04
7C
C4
84
CC
76
ENDCHAR
STARTCHAR uni1EA6
ENCODING 7846
SWIDTH 648 0
DWIDTH 9 0
BBX 9 17 0 0
BITMAP
1000
0800
0000
0C00
1200
0000
0800
1C00
1400
1400
2200
2200
4100
7F00
4100
8080
8080
ENDCHAR
STARTCHAR uni1EA7
ENCODING 7847
SWIDTH 576 0
DWIDTH 8 0
BBX 7 14 1 0
BITMAP
20
10
00
30
48
00
78
CC
04
7C
C4
84
CC
76
ENDCHAR
STARTCHAR uni1EAA
ENCODING 7850
SWIDTH 648 0
DWIDTH 9 0
BBX 9 17 0 0
BITMAP
1A00
2C00
0000
0C00
1200
0000
0800
1C00
1400
1400
2200
2200
4100
7F00
4100
8080
8080
ENDCHAR
STARTCHAR uni1EAB
ENCODING 7851
SWIDTH 576 0
DWIDTH 8 0
BBX 7 14 1 0
BITMAP
34
58
00
30
48
00
78
CC
04
7C
C4
84
CC
76
ENDCHAR
STARTCHAR uni1EAC
ENCODING 7852
SWIDTH 648 0
DWIDTH 9 0
BBX 9 16 0 -2
BITMAP
0800
1400
0000
0800
1C00
1400
1400
2200
2200
4100
7F00
4100
8080
8080
0000
0C00
ENDCHAR
STARTCHAR uni1EAD
ENCODING 7853
SWIDTH 576 0
DWIDTH 8 0
BBX 7 13 1 -2
BITMAP
10
28
00
78
CC
04
7C
C4
84
CC
76
00
30
ENDCHAR
STARTCHAR uni1EAE
ENCODING 7854
SWIDTH 648 0
DWIDTH 9 0
BBX 9 17 0 0
BITMAP
0400
0800
0000
2200
1C00
0000
0800
1C00
1400
1400
2200
2200
4100
7F00
4100
8080
8080
ENDCHAR
STARTCHAR uni1EAF
ENCODING 7855
SWIDTH 576 0
DWIDTH 8 0
BBX 7 14 1 0
BITMAP
08
10
00
44
38
00
78
CC
04
7C
C4
84
CC
76
ENDCHAR
STARTCHAR uni1EB0
ENCODING 7856
SWIDTH 648 0
DWIDTH 9 0
BBX 9 17 0 0
BITMAP
1000
0800
0000
2200
1C00
0000
0800
1C00
1400
1400
2200
2200
4100
7F00
4100
8080
8080
ENDCHAR
STARTCHAR uni1EB1
ENCODING 7857
SWIDTH 576 0
DWIDTH 8 0
BBX 7 14 1 0
BITMAP
20
10
00
44
38
00
78
CC
04
7C
C4
84
CC
76
ENDCHAR
STARTCHAR uni1EB4
ENCODING 7860
SWIDTH 648 0
DWIDTH 9 0
BBX 9 17 0 0
BITMAP
1A00
2C00
0000
2200
1C00
0000
0800
1C00
1400
1400
2200
2200
4100
7F00
4100
8080
8080
ENDCHAR
STARTCHAR uni1EB5
ENCODING 7861
SWIDTH 576 0
DWIDTH 8 0
BBX 7 14 1 0
BITMAP
34
58
00
44
38
00
78
CC
04
7C
C4
84
CC
76
ENDCHAR
STARTCHAR uni1EB6
ENCODING 7862
SWIDTH 648 0
DWIDTH 9 0
BBX 9 16 0 -2
BITMAP
2200
1C00
0000
0800
1C00
1400
1400
2200
2200
4100
7F00
4100
8080
8080
0000
0C00
ENDCHAR
STARTCHAR uni1EB7
ENCODING 7863
SWIDTH 576 0
DWIDTH 8 0
BBX 7 13 1 -2
BITMAP
44
38
00
78
CC
04
7C
C4
84
CC
76
00
30
ENDCHAR
STARTCHAR uni1EB8
ENCODING 7864
SWIDTH 648 0
DWIDTH 9 0
BBX 7 13 1 -2
BITMAP
FE
80
80
80
80
FC
80
80
80
80
FE
00
30
ENDCHAR
STARTCHAR uni1EB9
ENCODING 7865
SWIDTH 576 0
DWIDTH 8 0
BBX 6 10 1 -2
BITMAP
78
CC
84
FC
80
80
CC
78
00
30
ENDCHAR
STARTCHAR uni1EBC
ENCODING 7868
SWIDTH 648 0
DWIDTH 9 0
BBX 7 14 1 0
BITMAP
34
58
00
FE
80
80
80
80
FC
80
80
80
80
FE
ENDCHAR
STARTCHAR uni1EBD
ENCODING 7869
SWIDTH 576 0
DWIDTH 8 0
BBX 6 11 1 0
BITMAP
34
58
00
78
CC
84
FC
80
80
CC
78
ENDCHAR
STARTCHAR uni1EBE
ENCODING 7870
SWIDTH 648 0
DWIDTH 9 0
BBX 7 17 1 0
BITMAP
08
10
00
18
24
00
FE
80
80
80
80
FC
80
80
80
80
FE
ENDCHAR
STARTCHAR uni1EBF
ENCODING 7871
SWIDTH 576 0
DWIDTH 8 0
BBX 6 14 1 0
BITMAP
10
20
00
30
48
00
78
CC
84
FC
80
80
CC
78
ENDCHAR
STARTCHAR uni1EC0
ENCODING 7872
SWIDTH 648 0
DWIDTH 9 0
BBX 7 17 1 0
BITMAP
20
10
00
18
24
00
FE
80
80
80
80
FC
80
80
80
80
FE
ENDCHAR
STARTCHAR uni1EC1
ENCODING 7873
SWIDTH 576 0
DWIDTH 8 0
BBX 6 14 1 0
BITMAP
20
10
00
30
48
00
78
CC
84
FC
80
80
CC
78
ENDCHAR
STARTCHAR uni1EC4
ENCODING 7876
SWIDTH 648 0
DWIDTH 9 0
BBX 7 17 1 0
BITMAP
34
58
00
18
24
00
FE
80
80
80
80
FC
80
80
80
80
FE
ENDCHAR
STARTCHAR uni1EC5
ENCODING 7877
SWIDTH 576 0
DWIDTH 8 0
BBX 6 14 1 0
BITMAP
34
58
00
30
48
00
78
CC
84
FC
80
80
CC
78
ENDCHAR
STARTCHAR uni1EC6
ENCODING 7878
SWIDTH 648 0
DWIDTH 9 0
BBX 7 16 1 -2
BITMAP
20
50
00
FE
80
80
80
80
FC
80
80
80
80
FE
00
30
ENDCHAR
STARTCHAR uni1EC7
ENCODING 7879
SWIDTH 576 0
DWIDTH 8 0
BBX 6 13 1 -2
BITMAP
10
28
00
78
CC
84
FC
80
80
CC
78
00
30
ENDCHAR
STARTCHAR uni1ECA
ENCODING 7882
SWIDTH 288 0
DWIDTH 4 0
BBX 2 13 2 -2
BITMAP
80
80
80
80
80
80
80
80
80
80
80
00
C0
ENDCHAR
STARTCHAR uni1ECB
ENCODING 7883
SWIDTH 216 0
DWIDTH 3 0
BBX 2 13 1 -2
BITMAP
80
80
00
80
80
80
80
80
80
80
80
00
C0
ENDCHAR
STARTCHAR uni1ECC
ENCODING 7884
SWIDTH 792 0
DWIDTH 11 0
BBX 9 13 1 -2
BITMAP
1C00
6300
4100
8080
8080
8080
8080
8080
4100
6300
1C00
0000
0C00
ENDCHAR
STARTCHAR uni1ECD
ENCODING 7885
SWIDTH 576 0
DWIDTH 8 0
BBX 6 10 1 -2
BITMAP
78
CC
84
84
84
84
CC
78
00
30
ENDCHAR
STARTCHAR uni1ED0
ENCODING 7888
SWIDTH 792 0
DWIDTH 11 0
BBX 9 17 1 0
BITMAP
0400
0800
0000
0C00
1200
0000
1C00
6300
4100
8080
8080
8080
8080
8080
4100
6300
1C00
ENDCHAR
STARTCHAR uni1ED1
ENCODING 7889
SWIDTH 576 0
DWIDTH 8 0
BBX 6 14 1 0
BITMAP
10
20
00
30
48
00
78
CC
84
84
84
84
CC
78
ENDCHAR
STARTCHAR uni1ED2
ENCODING 7890
SWIDTH 792 0
DWIDTH 11 0
BBX 9 17 1 0
BITMAP
1000
0800
0000
0C00
1200
0000
1C00
6300
4100
8080
8080
8080
8080
8080
4100
6300
1C00
ENDCHAR
STARTCHAR uni1ED3
ENCODING 7891
SWIDTH 576 0
DWIDTH 8 0
BBX 6 14 1 0
BITMAP
20
10
00
30
48
00
78
CC
84
84
84
84
CC
78
ENDCHAR
STARTCHAR uni1ED6
ENCODING 7894
SWIDTH 792 0
DWIDTH 11 0
BBX 9 17 1 0
BITMAP
1A00
2C00
0000
0C00
1200
0000
1C00
6300
4100
8080
8080
8080
8080
8080
4100
6300
1C00
ENDCHAR
STARTCHAR uni1ED7
ENCODING 7895
SWIDTH 576 0
DWIDTH 8 0
BBX 6 14 1 0
BITMAP
34
58
00
30
48
00
78
CC
84
84
84
84
CC
78
ENDCHAR
STARTCHAR uni1ED8
ENCODING 7896
SWIDTH 792 0
DWIDTH 11 0
BBX 9 16 1 -2
BITMAP
0800
1400
0000
1C00
6300
4100
8080
8080
8080
8080
8080
4100
6300
1C00
0000
0C00
ENDCHAR
STARTCHAR uni1ED9
ENCODING 7897
SWIDTH 576 0
DWIDTH 8 0
BBX 6 13 1 -2
BITMAP
10
28
00
78
CC
84
84
84
84
CC
78
00
30
ENDCHAR
STARTCHAR uni1EDA
ENCODING 7898
SWIDTH 792 0
DWIDTH 11 0
BBX 10 14 1 0
BITMAP
0200
0400
0000
1CC0
6340
4180
8080
8080
8080
8080
8080
4100
6300
1C00
ENDCHAR
STARTCHAR uni1EDB
ENCODING 7899
SWIDTH 576 0
DWIDTH 8 0
BBX 8 11 1 0
BITMAP
08
10
00
7B
CD
86
84
84
84
CC
78
ENDCHAR
STARTCHAR uni1EDC
ENCODING 7900
SWIDTH 792 0
DWIDTH 11 0
BBX 10 14 1 0
BITMAP
0800
0400
0000
1CC0
6340
4180
8080
8080
8080
8080
8080
4100
6300
1C00
ENDCHAR
STARTCHAR uni1EDD
ENCODING 7901
SWIDTH 576 0
DWIDTH 8 0
BBX 8 11 1 0
BITMAP
10
08
00
7B
CD
86
84
84
84
CC
78
ENDCHAR
STARTCHAR uni1EE0
ENCODING 7904
SWIDTH 792 0
DWIDTH 11 0
BBX 10 14 1 0
BITMAP
0D00
1600
0000
1CC0
6340
4180
8080
8080
8080
8080
8080
4100
6300
1C00
ENDCHAR
STARTCHAR uni1EE1
ENCODING 7905
SWIDTH 576 0
DWIDTH 8 0
BBX 8 11 1 0
BITMAP
1A
2C
00
7B
CD
86
84
84
84
CC
78
ENDCHAR
STARTCHAR uni1EE2
ENCODING 7906
SWIDTH 792 0
DWIDTH 11 0
BBX 10 13 1 -2
BITMAP
1CC0
6340
4180
8080
8080
8080
8080
8080
4100
6300
1C00
0000
0C00
ENDCHAR
STARTCHAR uni1EE3
ENCODING 7907
SWIDTH 576 0
DWIDTH 8 0
BBX 8 10 1 -2
BITMAP
7B
CD
86
84
84
84
CC
78
00
30
ENDCHAR
STARTCHAR uni1EE4
ENCODING 7908
SWIDTH 720 0
DWIDTH 10 0
BBX 8 13 1 -2
BITMAP
81
81
81
81
81
81
81
81
81
42
3C
00
18
ENDCHAR
STARTCHAR uni1EE5
ENCODING 7909
SWIDTH 504 0
DWIDTH 7 0
BBX 6 10 1 -2
BITMAP
84
84
84
84
84
84
CC
74
00
30
ENDCHAR
STARTCHAR uni1EE8
ENCODING 7912
SWIDTH 720 0
DWIDTH 10 0
BBX 10 14 1 0
BITMAP
0200
0400
0000
81C0
8140
8180
8100
8100
8100
8100
8100
8100
4200
3C00
ENDCHAR
STARTCHAR uni1EE9
ENCODING 7913
SWIDTH 504 0
DWIDTH 7 0
BBX 8 11 1 0
BITMAP
04
08
00
87
85
86
84
84
84
CC
74
ENDCHAR
STARTCHAR uni1EEA
ENCODING 7914
SWIDTH 720 0
DWIDTH 10 0
BBX 10 14 1 0
BITMAP
0800
0400
0000
81C0
8140
8180
8100
8100
8100
8100
8100
8100
4200
3C00
ENDCHAR
STARTCHAR uni1EEB
ENCODING 7915
SWIDTH 504 0
DWIDTH 7 0
BBX 8 11 1 0
BITMAP
10
08
00
87
85
86
84
84
84
CC
74
ENDCHAR
STARTCHAR uni1EEE
ENCODING 7918
SWIDTH 720 0
DWIDTH 10 0
BBX 10 14 1 0
BITMAP
0D00
1600
0000
81C0
8140
8180
8100
8100
8100
8100
8100
8100
4200
3C00
ENDCHAR
STARTCHAR uni1EEF
ENCODING 7919
SWIDTH 504 0
DWIDTH 7 0
BBX 8 11 1 0
BITMAP
1A
2C
00
87
85
86
84
84
84
CC
74
ENDCHAR
STARTCHAR uni1EF0
ENCODING 7920
SWIDTH 720 0
DWIDTH 10 0
BBX 10 13 1 -2
BITMAP
81C0
8140
8180
8100
8100
8100
8100
8100
8100
4200
3C00
0000
1800
ENDCHAR
STARTCHAR uni1EF1
ENCODING 7921
SWIDTH 504 0
DWIDTH 7 0
BBX 8 10 1 -2
BITMAP
87
85
86
84
84
84
CC
74
00
30
ENDCHAR
STARTCHAR Ygrave
ENCODING 7922
SWIDTH 648 0
DWIDTH 9 0
BBX 9 14 0 0
BITMAP
1000
0800
0000
8080
C180
4100
2200
2200
1400
1C00
0800
0800
0800
0800
ENDCHAR
STARTCHAR ygrave
ENCODING 7923
SWIDTH 504 0
DWIDTH 7 0
BBX 7 14 0 -3
BITMAP
20
10
00
82
C2
44
44
24
28
18
10
10
30
60
ENDCHAR
STARTCHAR uni1EF4
ENCODING 7924
SWIDTH 648 0
DWIDTH 9 0
BBX 9 13 0 -2
BITMAP
8080
C180
4100
2200
2200
1400
1C00
0800
0800
0800
0800
0000
0C00
ENDCHAR
STARTCHAR uni1EF5
ENCODING 7925
SWIDTH 504 0
DWIDTH 7 0
BBX 7 13 0 -5
BITMAP
82
C2
44
44
24
28
18
10
10
30
60
00
30
ENDCHAR
STARTCHAR uni1EF8
ENCODING 7928
SWIDTH 648 0
DWIDTH 9 0
BBX 9 14 0 0
BITMAP
1A00
2C00
0000
8080
C180
4100
2200
2200
1400
1C00
0800
0800
0800
0800
ENDCHAR
STARTCHAR uni1EF9
ENCODING 7929
SWIDTH 504 0
DWIDTH 7 0
BBX 7 14 0 -3
BITMAP
34
58
00
82
C2
44
44
24
28
18
10
10
30
60
ENDCHAR
STARTCHAR uni2000
ENCODING 8192
SWIDTH 504 0
DWIDTH 7 0
BBX 0 0 0 0
BITMAP
ENDCHAR
STARTCHAR uni2001
ENCODING 8193
SWIDTH 1008 0
DWIDTH 14 0
BBX 0 0 0 0
BITMAP
ENDCHAR
STARTCHAR uni2002
ENCODING 8194
SWIDTH 504 0
DWIDTH 7 0
BBX 0 0 0 0
BITMAP
ENDCHAR
STARTCHAR uni2003
ENCODING 8195
SWIDTH 1008 0
DWIDTH 14 0
BBX 0 0 0 0
BITMAP
ENDCHAR
STARTCHAR uni2004
ENCODING 8196
SWIDTH 360 0
DWIDTH 5 0
BBX 0 0 0 0
BITMAP
ENDCHAR
STARTCHAR uni2005
ENCODING 8197
SWIDTH 216 0
DWIDTH 3 0
BBX 0 0 0 0
BITMAP
ENDCHAR
STARTCHAR uni2006
ENCODING 8198
SWIDTH 144 0
DWIDTH 2 0
BBX 0 0 0 0
BITMAP
ENDCHAR
STARTCHAR uni2007
ENCODING 8199
SWIDTH 576 0
DWIDTH 8 0
BBX 0 0 0 0
BITMAP
ENDCHAR
STARTCHAR uni2008
ENCODING 8200
SWIDTH 216 0
DWIDTH 3 0
BBX 0 0 0 0
BITMAP
ENDCHAR
STARTCHAR uni2009
ENCODING 8201
SWIDTH 216 0
DWIDTH 3 0
BBX 0 0 0 0
BITMAP
ENDCHAR
STARTCHAR uni200A
ENCODING 8202
SWIDTH 72 0
DWIDTH 1 0
BBX 0 0 0 0
BITMAP
ENDCHAR
STARTCHAR uni200B
ENCODING 8203
SWIDTH 0 0
DWIDTH 0 0
BBX 0 0 0 0
BITMAP
ENDCHAR
STARTCHAR uni2010
ENCODING 8208
SWIDTH 288 0
DWIDTH 4 0
BBX 3 1 0 4
BITMAP
E0
ENDCHAR
STARTCHAR uni2011
ENCODING 8209
SWIDTH 288 0
DWIDTH 4 0
BBX 3 1 0 4
BITMAP
E0
ENDCHAR
STARTCHAR figuredash
ENCODING 8210
SWIDTH 576 0
DWIDTH 8 0
BBX 8 1 0 4
BITMAP
FF
ENDCHAR
STARTCHAR endash
ENCODING 8211
SWIDTH 576 0
DWIDTH 8 0
BBX 8 1 0 4
BITMAP
FF
ENDCHAR
STARTCHAR emdash
ENCODING 8212
SWIDTH 1008 0
DWIDTH 14 0
BBX 14 1 0 4
BITMAP
FFFC
ENDCHAR
STARTCHAR afii00208
ENCODING 8213
SWIDTH 1008 0
DWIDTH 14 0
BBX 14 1 0 4
BITMAP
FFFC
ENDCHAR
STARTCHAR quoteleft
ENCODING 8216
SWIDTH 216 0
DWIDTH 3 0
BBX 2 3 0 8
BITMAP
40
80
C0
ENDCHAR
STARTCHAR quoteright
ENCODING 8217
SWIDTH 216 0
DWIDTH 3 0
BBX 2 3 1 8
BITMAP
C0
40
80
ENDCHAR
STARTCHAR quotesinglbase
ENCODING 8218
SWIDTH 216 0
DWIDTH 3 0
BBX 2 3 1 -2
BITMAP
C0
40
80
ENDCHAR
STARTCHAR quotereversed
ENCODING 8219
SWIDTH 216 0
DWIDTH 3 0
BBX 2 3 1 8
BITMAP
C0
80
40
ENDCHAR
STARTCHAR quotedblleft
ENCODING 8220
SWIDTH 432 0
DWIDTH 6 0
BBX 5 3 0 8
BITMAP
48
90
D8
ENDCHAR
STARTCHAR quotedblright
ENCODING 8221
SWIDTH 432 0
DWIDTH 6 0
BBX 5 3 1 8
BITMAP
D8
48
90
ENDCHAR
STARTCHAR quotedblbase
ENCODING 8222
SWIDTH 360 0
DWIDTH 5 0
BBX 5 3 0 -2
BITMAP
D8
48
90
ENDCHAR
STARTCHAR uni201F
ENCODING 8223
SWIDTH 432 0
DWIDTH 6 0
BBX 5 3 1 8
BITMAP
D8
90
48
ENDCHAR
STARTCHAR dagger
ENCODING 8224
SWIDTH 576 0
DWIDTH 8 0
BBX 7 14 0 -3
BITMAP
10
10
10
10
FE
10
10
10
10
10
10
10
10
10
ENDCHAR
STARTCHAR daggerdbl
ENCODING 8225
SWIDTH 576 0
DWIDTH 8 0
BBX 7 14 0 -3
BITMAP
10
10
10
10
FE
10
10
10
10
FE
10
10
10
10
ENDCHAR
STARTCHAR bullet
ENCODING 8226
SWIDTH 360 0
DWIDTH 5 0
BBX 3 4 1 3
BITMAP
40
E0
E0
40
ENDCHAR
STARTCHAR ellipsis
ENCODING 8230
SWIDTH 1080 0
DWIDTH 15 0
BBX 12 1 1 0
BITMAP
C630
ENDCHAR
STARTCHAR perthousand
ENCODING 8240
SWIDTH 936 0
DWIDTH 13 0
BBX 11 11 1 0
BITMAP
0100
6200
9200
9400
6400
0800
1000
16C0
2920
2920
46C0
ENDCHAR
STARTCHAR guilsinglleft
ENCODING 8249
SWIDTH 360 0
DWIDTH 5 0
BBX 3 5 1 2
BITMAP
20
40
80
40
20
ENDCHAR
STARTCHAR guilsinglright
ENCODING 8250
SWIDTH 360 0
DWIDTH 5 0
BBX 3 5 1 2
BITMAP
80
40
20
40
80
ENDCHAR
STARTCHAR fraction
ENCODING 8260
SWIDTH 216 0
DWIDTH 3 0
BBX 5 10 -1 0
BITMAP
08
08
10
10
20
20
40
40
80
80
ENDCHAR
STARTCHAR oneinferior
ENCODING 8321
SWIDTH 360 0
DWIDTH 5 0
BBX 2 6 1 -3
BITMAP
40
C0
40
40
40
40
ENDCHAR
STARTCHAR twoinferior
ENCODING 8322
SWIDTH 360 0
DWIDTH 5 0
BBX 4 6 0 -3
BITMAP
60
90
10
20
40
F0
ENDCHAR
STARTCHAR threeinferior
ENCODING 8323
SWIDTH 360 0
DWIDTH 5 0
BBX 4 6 0 -3
BITMAP
60
90
20
10
90
60
ENDCHAR
STARTCHAR uni20A5
ENCODING 8357
SWIDTH 792 0
DWIDTH 11 0
BBX 9 11 1 -1
BITMAP
0200
0200
B700
CC80
8C80
8880
8880
8880
9880
9880
1000
ENDCHAR
STARTCHAR uni20A6
ENCODING 8358
SWIDTH 720 0
DWIDTH 10 0
BBX 8 11 1 0
BITMAP
C1
A1
A1
91
FF
89
FF
85
85
83
83
ENDCHAR
STARTCHAR uni20A9
ENCODING 8361
SWIDTH 936 0
DWIDTH 13 0
BBX 13 11 0 0
BITMAP
8208
8208
8508
4510
4FD0
4510
2FE0
28A0
28A0
1040
1040
ENDCHAR
STARTCHAR Euro
ENCODING 8364
SWIDTH 720 0
DWIDTH 10 0
BBX 9 11 0 0
BITMAP
0E00
3180
2080
4000
FC00
4000
FC00
4000
2080
3180
0E00
ENDCHAR
STARTCHAR uni20AD
ENCODING 8365
SWIDTH 648 0
DWIDTH 9 0
BBX 8 11 1 0
BITMAP
82
84
88
90
A0
FF
90
88
84
82
81
ENDCHAR
STARTCHAR uni2103
ENCODING 8451
SWIDTH 1152 0
DWIDTH 16 0
BBX 14 11 1 0
BITMAP
6070
918C
9104
6200
0200
0200
0200
0200
0104
018C
0070
ENDCHAR
STARTCHAR uni2109
ENCODING 8457
SWIDTH 1008 0
DWIDTH 14 0
BBX 13 11 1 0
BITMAP
63F8
9200
9200
6200
0200
03F0
0200
0200
0200
0200
0200
ENDCHAR
STARTCHAR trademark
ENCODING 8482
SWIDTH 936 0
DWIDTH 13 0
BBX 11 6 1 4
BITMAP
FA20
2360
22A0
22A0
22A0
22A0
ENDCHAR
STARTCHAR uni212A
ENCODING 8490
SWIDTH 648 0
DWIDTH 9 0
BBX 8 11 1 0
BITMAP
82
84
88
90
A0
E0
90
88
84
82
81
ENDCHAR
STARTCHAR uni212B
ENCODING 8491
SWIDTH 648 0
DWIDTH 9 0
BBX 9 14 0 0
BITMAP
0C00
1200
1200
0C00
0C00
1400
1400
2200
2200
4100
7F00
4100
8080
8080
ENDCHAR
STARTCHAR uni2132
ENCODING 8498
SWIDTH 576 0
DWIDTH 8 0
BBX 7 11 1 0
BITMAP
02
02
02
02
02
7E
02
02
02
02
FE
ENDCHAR
STARTCHAR universal
ENCODING 8704
SWIDTH 648 0
DWIDTH 9 0
BBX 9 11 0 0
BITMAP
8080
8080
4100
7F00
4100
2200
2200
1400
1400
1C00
0800
ENDCHAR
STARTCHAR existential
ENCODING 8707
SWIDTH 648 0
DWIDTH 9 0
BBX 7 11 1 0
BITMAP
FE
02
02
02
02
7E
02
02
02
02
FE
ENDCHAR
STARTCHAR uni2204
ENCODING 8708
SWIDTH 648 0
DWIDTH 9 0
BBX 7 11 1 0
BITMAP
FE
06
0A
0A
0A
7E
12
12
22
22
FE
ENDCHAR
STARTCHAR minus
ENCODING 8722
SWIDTH 648 0
DWIDTH 9 0
BBX 7 1 1 4
BITMAP
FE
ENDCHAR
STARTCHAR fraction
ENCODING 8725
SWIDTH 216 0
DWIDTH 3 0
BBX 5 10 -1 0
BITMAP
08
08
10
10
20
20
40
40
80
80
ENDCHAR
STARTCHAR periodcentered
ENCODING 8729
SWIDTH 288 0
DWIDTH 4 0
BBX 2 1 1 4
BITMAP
C0
ENDCHAR
STARTCHAR uni2236
ENCODING 8758
SWIDTH 216 0
DWIDTH 3 0
BBX 1 8 1 0
BITMAP
80
80
00
00
00
00
80
80
ENDCHAR
STARTCHAR uni2259
ENCODING 8793
SWIDTH 648 0
DWIDTH 9 0
BBX 6 6 1 3
BITMAP
10
28
00
FC
00
FC
ENDCHAR
STARTCHAR uni225A
ENCODING 8794
SWIDTH 648 0
DWIDTH 9 0
BBX 6 6 1 3
BITMAP
28
10
00
FC
00
FC
ENDCHAR
STARTCHAR notequal
ENCODING 8800
SWIDTH 648 0
DWIDTH 9 0
BBX 6 11 1 -1
BITMAP
08
08
10
10
FC
20
FC
20
40
40
40
ENDCHAR
STARTCHAR equivalence
ENCODING 8801
SWIDTH 648 0
DWIDTH 9 0
BBX 6 5 0 2
BITMAP
FC
00
FC
00
FC
ENDCHAR
STARTCHAR uni2262
ENCODING 8802
SWIDTH 648 0
DWIDTH 9 0
BBX 6 11 0 -1
BITMAP
08
08
10
FC
10
FC
20
FC
40
40
40
ENDCHAR
STARTCHAR lessequal
ENCODING 8804
SWIDTH 576 0
DWIDTH 8 0
BBX 6 7 1 0
BITMAP
0C
30
C0
30
0C
00
FC
ENDCHAR
STARTCHAR greaterequal
ENCODING 8805
SWIDTH 576 0
DWIDTH 8 0
BBX 6 7 1 0
BITMAP
C0
30
0C
30
C0
00
FC
ENDCHAR
STARTCHAR uni226E
ENCODING 8814
SWIDTH 576 0
DWIDTH 8 0
BBX 6 11 1 -1
BITMAP
08
08
10
1C
30
E0
30
2C
40
40
40
ENDCHAR
STARTCHAR uni226F
ENCODING 8815
SWIDTH 576 0
DWIDTH 8 0
BBX 6 11 1 -1
BITMAP
08
08
10
D0
30
2C
30
E0
40
40
40
ENDCHAR
STARTCHAR uni2270
ENCODING 8816
SWIDTH 576 0
DWIDTH 8 0
BBX 6 11 1 -2
BITMAP
08
08
1C
30
D0
30
2C
20
FC
40
40
ENDCHAR
STARTCHAR uni2271
ENCODING 8817
SWIDTH 576 0
DWIDTH 8 0
BBX 6 11 1 -2
BITMAP
08
08
D0
30
1C
30
E0
20
FC
40
40
ENDCHAR
STARTCHAR ka-khmer.below
ENCODING 57344
SWIDTH 0 0
DWIDTH 0 0
BBX 7 4 -8 -5
BITMAP
7C
82
82
82
ENDCHAR
STARTCHAR kha-khmer.below
ENCODING 57345
SWIDTH 0 0
DWIDTH 0 0
BBX 7 4 -8 -5
BITMAP
FC
0E
70
9E
ENDCHAR
STARTCHAR ko-khmer.below
ENCODING 57346
SWIDTH 0 0
DWIDTH 0 0
BBX 7 4 -8 -5
BITMAP
7C
82
B2
C2
ENDCHAR
STARTCHAR kho-khmer.post
ENCODING 57347
SWIDTH 288 0
DWIDTH 4 0
BBX 10 14 -7 -5
BITMAP
00C0
0100
0080
0040
0040
0040
0040
0040
0040
0040
C440
4440
4440
3B80
ENDCHAR
STARTCHAR ngo-khmer.below
ENCODING 57348
SWIDTH 0 0
DWIDTH 0 0
BBX 7 4 -8 -5
BITMAP
62
82
84
78
ENDCHAR
STARTCHAR ca-khmer.below
ENCODING 57349
SWIDTH 0 0
DWIDTH 0 0
BBX 7 4 -8 -5
BITMAP
46
8A
8C
72
ENDCHAR
STARTCHAR cha-khmer.below
ENCODING 57350
SWIDTH 0 0
DWIDTH 0 0
BBX 7 4 -8 -5
BITMAP
46
42
B2
CC
ENDCHAR
STARTCHAR co-khmer.below
ENCODING 57351
SWIDTH 0 0
DWIDTH 0 0
BBX 8 4 -8 -5
BITMAP
64
82
92
6D
ENDCHAR
STARTCHAR cho-khmer.post
ENCODING 57352
SWIDTH 288 0
DWIDTH 4 0
BBX 10 14 -7 -5
BITMAP
00C0
0100
0080
0040
0040
0040
0040
0040
0040
0040
7240
9240
9240
DD80
ENDCHAR
STARTCHAR nyo-khmer.below
ENCODING 57353
SWIDTH 0 0
DWIDTH 0 0
BBX 7 4 -8 -5
BITMAP
0C
C2
22
1C
ENDCHAR
STARTCHAR da-khmer.below
ENCODING 57354
SWIDTH 0 0
DWIDTH 0 0
BBX 7 4 -8 -5
BITMAP
7C
82
82
E2
ENDCHAR
STARTCHAR ttha-khmer.below
ENCODING 57355
SWIDTH 0 0
DWIDTH 0 0
BBX 7 4 -8 -5
BITMAP
7E
84
E4
98
ENDCHAR
STARTCHAR do-khmer.below
ENCODING 57356
SWIDTH 0 0
DWIDTH 0 0
BBX 7 4 -8 -5
BITMAP
DC
22
0C
F6
ENDCHAR
STARTCHAR ttho-khmer.post
ENCODING 57357
SWIDTH 288 0
DWIDTH 4 0
BBX 10 14 -7 -5
BITMAP
00C0
0100
0080
0040
0040
0040
0040
0040
0040
0040
6C40
9440
8640
C580
ENDCHAR
STARTCHAR nno-khmer.below
ENCODING 57358
SWIDTH 0 0
DWIDTH 0 0
BBX 13 4 -15 -5
BITMAP
7070
8888
8A88
CD88
ENDCHAR
STARTCHAR ta-khmer.below
ENCODING 57359
SWIDTH 0 0
DWIDTH 0 0
BBX 7 4 -8 -5
BITMAP
7C
82
82
E2
ENDCHAR
STARTCHAR tha-khmer.below
ENCODING 57360
SWIDTH 0 0
DWIDTH 0 0
BBX 7 4 -8 -5
BITMAP
70
88
84
66
ENDCHAR
STARTCHAR to-khmer.below
ENCODING 57361
SWIDTH 0 0
DWIDTH 0 0
BBX 7 4 -8 -5
BITMAP
44
4A
8A
72
ENDCHAR
STARTCHAR tho-khmer.below
ENCODING 57362
SWIDTH 0 0
DWIDTH 0 0
BBX 7 4 -8 -5
BITMAP
7E
82
92
6C
ENDCHAR
STARTCHAR no-khmer.below
ENCODING 57363
SWIDTH 0 0
DWIDTH 0 0
BBX 7 4 -8 -5
BITMAP
7E
84
8A
76
ENDCHAR
STARTCHAR ba-khmer.post
ENCODING 57364
SWIDTH 288 0
DWIDTH 4 0
BBX 5 14 -2 -5
BITMAP
18
20
10
08
08
08
08
08
08
08
88
A8
D8
88
ENDCHAR
STARTCHAR pha-khmer.below
ENCODING 57365
SWIDTH 0 0
DWIDTH 0 0
BBX 7 4 -8 -5
BITMAP
86
A2
D2
8C
ENDCHAR
STARTCHAR po-khmer.below
ENCODING 57366
SWIDTH 0 0
DWIDTH 0 0
BBX 7 4 -8 -5
BITMAP
6C
92
82
C2
ENDCHAR
STARTCHAR pho-khmer.below
ENCODING 57367
SWIDTH 0 0
DWIDTH 0 0
BBX 7 4 -8 -5
BITMAP
7C
82
42
C2
ENDCHAR
STARTCHAR mo-khmer.below
ENCODING 57368
SWIDTH 0 0
DWIDTH 0 0
BBX 7 4 -8 -5
BITMAP
04
84
9A
66
ENDCHAR
STARTCHAR yo-khmer.post
ENCODING 57369
SWIDTH 288 0
DWIDTH 4 0
BBX 5 14 -2 -5
BITMAP
18
20
10
08
08
08
08
08
08
08
88
88
88
70
ENDCHAR
STARTCHAR ro-khmer.pre
ENCODING 57370
SWIDTH 288 0
DWIDTH 4 0
BBX 6 14 0 -5
BITMAP
60
80
C0
40
40
40
40
40
40
40
44
44
44
38
ENDCHAR
STARTCHAR lo-khmer.below
ENCODING 57371
SWIDTH 0 0
DWIDTH 0 0
BBX 7 4 -8 -5
BITMAP
62
92
92
CC
ENDCHAR
STARTCHAR vo-khmer.below
ENCODING 57372
SWIDTH 0 0
DWIDTH 0 0
BBX 7 4 -8 -5
BITMAP
7E
82
84
78
ENDCHAR
STARTCHAR sha-khmer.below
ENCODING 57373
SWIDTH 0 0
DWIDTH 0 0
BBX 8 4 -8 -5
BITMAP
7B
84
B2
C2
ENDCHAR
STARTCHAR sso-khmer.post
ENCODING 57374
SWIDTH 288 0
DWIDTH 4 0
BBX 6 14 -2 -5
BITMAP
18
20
10
08
08
08
08
1C
08
08
88
A8
D8
88
ENDCHAR
STARTCHAR sa-khmer.post
ENCODING 57375
SWIDTH 288 0
DWIDTH 4 0
BBX 6 14 -2 -5
BITMAP
18
20
10
08
08
08
08
1C
08
08
88
88
88
70
ENDCHAR
STARTCHAR ha-khmer.below
ENCODING 57376
SWIDTH 0 0
DWIDTH 0 0
BBX 7 4 -8 -5
BITMAP
9C
92
92
72
ENDCHAR
STARTCHAR qa-khmer.below
ENCODING 57378
SWIDTH 0 0
DWIDTH 0 0
BBX 7 4 -8 -5
BITMAP
C2
7E
42
C6
ENDCHAR
STARTCHAR iMark_toandakhiat-khmer
ENCODING 57392
SWIDTH 0 0
DWIDTH 0 0
BBX 8 4 -8 10
BITMAP
03
7A
84
FE
ENDCHAR
STARTCHAR uMark-khmer.below2
ENCODING 57403
SWIDTH 0 0
DWIDTH 0 0
BBX 1 2 -2 -8
BITMAP
80
80
ENDCHAR
STARTCHAR uuMark-khmer.below2
ENCODING 57404
SWIDTH 0 0
DWIDTH 0 0
BBX 4 2 -5 -8
BITMAP
90
F0
ENDCHAR
STARTCHAR uaMark-khmer.below2
ENCODING 57405
SWIDTH 0 0
DWIDTH 0 0
BBX 5 2 -6 -8
BITMAP
A8
D8
ENDCHAR
STARTCHAR yaSign-khmer.below2
ENCODING 57407
SWIDTH 288 0
DWIDTH 4 0
BBX 6 19 -3 -5
BITMAP
14
74
8C
FC
04
04
04
04
04
04
04
04
04
04
04
04
04
04
1C
ENDCHAR
STARTCHAR ieSign-khmer.below2
ENCODING 57408
SWIDTH 288 0
DWIDTH 4 0
BBX 5 19 -2 -5
BITMAP
80
80
F0
08
08
08
08
08
08
08
08
08
08
08
08
08
08
08
38
ENDCHAR
STARTCHAR nyo-khmer.full.below
ENCODING 57433
SWIDTH 0 0
DWIDTH 0 0
BBX 11 4 -12 -5
BITMAP
6FC0
9420
8420
C5E0
ENDCHAR
STARTCHAR yo-khmer.post2
ENCODING 57449
SWIDTH 288 0
DWIDTH 4 0
BBX 3 14 0 -5
BITMAP
60
80
40
20
20
20
20
20
20
20
20
20
20
E0
ENDCHAR
STARTCHAR ro-khmer.pre2
ENCODING 57450
SWIDTH 360 0
DWIDTH 5 0
BBX 4 14 1 -5
BITMAP
60
80
C0
40
40
40
40
40
40
40
40
40
40
70
ENDCHAR
STARTCHAR iMark-khmer.narrow
ENCODING 57559
SWIDTH 0 0
DWIDTH 0 0
BBX 6 3 -5 10
BITMAP
70
88
FC
ENDCHAR
STARTCHAR iiMark-khmer.narrow
ENCODING 57560
SWIDTH 0 0
DWIDTH 0 0
BBX 6 4 -5 10
BITMAP
04
74
8C
FC
ENDCHAR
STARTCHAR yMark-khmer.narrow
ENCODING 57561
SWIDTH 0 0
DWIDTH 0 0
BBX 6 3 -5 10
BITMAP
6C
94
F8
ENDCHAR
STARTCHAR yyMark-khmer.narrow
ENCODING 57562
SWIDTH 0 0
DWIDTH 0 0
BBX 6 4 -5 10
BITMAP
14
74
8C
FC
ENDCHAR
STARTCHAR nikahit-khmer.ro
ENCODING 57574
SWIDTH 0 0
DWIDTH 0 0
BBX 3 3 -4 10
BITMAP
C0
A0
E0
ENDCHAR
STARTCHAR muusikatoan-khmer.ro
ENCODING 57577
SWIDTH 0 0
DWIDTH 0 0
BBX 3 3 -4 10
BITMAP
A0
A0
A0
ENDCHAR
STARTCHAR iMark-khmer.small
ENCODING 57623
SWIDTH 0 0
DWIDTH 0 0
BBX 6 1 -7 12
BITMAP
FC
ENDCHAR
STARTCHAR iiMark-khmer.small
ENCODING 57624
SWIDTH 0 0
DWIDTH 0 0
BBX 6 3 -7 12
BITMAP
04
04
FC
ENDCHAR
STARTCHAR yMark-khmer.small
ENCODING 57625
SWIDTH 0 0
DWIDTH 0 0
BBX 6 3 -7 12
BITMAP
0C
14
FC
ENDCHAR
STARTCHAR yyMark-khmer.small
ENCODING 57626
SWIDTH 0 0
DWIDTH 0 0
BBX 6 3 -7 12
BITMAP
14
14
FC
ENDCHAR
STARTCHAR nikahit-khmer.small
ENCODING 57638
SWIDTH 0 0
DWIDTH 0 0
BBX 3 3 -6 12
BITMAP
C0
A0
E0
ENDCHAR
STARTCHAR samyoksannya-khmer.small
ENCODING 57648
SWIDTH 0 0
DWIDTH 0 0
BBX 6 3 -7 12
BITMAP
64
84
78
ENDCHAR
STARTCHAR kakabat-khmer.small
ENCODING 57662
SWIDTH 0 0
DWIDTH 0 0
BBX 3 3 -6 12
BITMAP
40
E0
40
ENDCHAR
STARTCHAR U+E000
ENCODING 57856
SWIDTH 864 0
DWIDTH 12 0
BBX 8 8 2 0
BITMAP
FF
FF
FF
FF
FF
FF
FF
FF
ENDCHAR
STARTCHAR U+E001
ENCODING 57857
SWIDTH 864 0
DWIDTH 12 0
BBX 8 8 2 0
BITMAP
FF
FF
C3
C3
C3
C3
FF
FF
ENDCHAR
STARTCHAR U+E002
ENCODING 57858
SWIDTH 864 0
DWIDTH 12 0
BBX 8 8 2 0
BITMAP
F7
F7
F0
F7
F7
F0
F7
F7
ENDCHAR
STARTCHAR U+E003
ENCODING 57859
SWIDTH 864 0
DWIDTH 12 0
BBX 8 8 2 0
BITMAP
FF
FF
FF
FF
00
DB
DB
DB
ENDCHAR
STARTCHAR U+E004
ENCODING 57860
SWIDTH 864 0
DWIDTH 12 0
BBX 8 8 2 0
BITMAP
FF
FF
FF
FF
00
FF
00
FF
ENDCHAR
STARTCHAR U+E005
ENCODING 57861
SWIDTH 864 0
DWIDTH 12 0
BBX 8 8 2 0
BITMAP
DB
DB
00
DB
DB
00
DB
DB
ENDCHAR
STARTCHAR U+E006
ENCODING 57862
SWIDTH 864 0
DWIDTH 12 0
BBX 8 8 2 0
BITMAP
F7
F7
F7
F7
07
FF
FF
FF
ENDCHAR
STARTCHAR U+E007
ENCODING 57863
SWIDTH 864 0
DWIDTH 12 0
BBX 8 8 2 0
BITMAP
F7
F7
F7
F7
F0
F5
F4
F5
ENDCHAR
STARTCHAR U+E008
ENCODING 57864
SWIDTH 864 0
DWIDTH 12 0
BBX 8 8 2 0
BITMAP
F7
F7
F7
F7
F0
F5
F1
F5
ENDCHAR
STARTCHAR U+E009
ENCODING 57865
SWIDTH 864 0
DWIDTH 12 0
BBX 8 8 2 0
BITMAP
F7
F7
F0
F7
07
F0
F7
F7
ENDCHAR
STARTCHAR U+E00A
ENCODING 57866
SWIDTH 864 0
DWIDTH 12 0
BBX 8 8 2 0
BITMAP
F7
F7
F7
F7
00
DB
DB
DB
ENDCHAR
STARTCHAR U+E00B
ENCODING 57867
SWIDTH 864 0
DWIDTH 12 0
BBX 7 9 2 -1
BITMAP
18
14
92
54
38
54
92
14
18
ENDCHAR
STARTCHAR U+E00C
ENCODING 57868
SWIDTH 864 0
DWIDTH 12 0
BBX 5 8 3 0
BITMAP
20
28
A8
A8
B0
60
20
20
ENDCHAR
STARTCHAR U+E00D
ENCODING 57869
SWIDTH 864 0
DWIDTH 12 0
BBX 8 8 2 0
BITMAP
18
18
5A
99
99
81
42
3C
ENDCHAR
STARTCHAR U+E00E
ENCODING 57870
SWIDTH 864 0
DWIDTH 12 0
BBX 8 9 2 -1
BITMAP
18
18
3C
3C
7E
66
E7
C3
81
ENDCHAR
STARTCHAR U+E00F
ENCODING 57871
SWIDTH 864 0
DWIDTH 12 0
BBX 8 8 2 0
BITMAP
3C
6E
FC
F8
F0
FF
7E
3C
ENDCHAR
STARTCHAR U+E010
ENCODING 57872
SWIDTH 864 0
DWIDTH 12 0
BBX 8 8 2 0
BITMAP
FF
FF
FF
E7
E7
FF
FF
FF
ENDCHAR
STARTCHAR U+E011
ENCODING 57873
SWIDTH 864 0
DWIDTH 12 0
BBX 8 8 2 0
BITMAP
FF
F9
F9
FF
FF
9F
9F
FF
ENDCHAR
STARTCHAR U+E012
ENCODING 57874
SWIDTH 864 0
DWIDTH 12 0
BBX 8 8 2 0
BITMAP
FF
F9
F9
E7
E7
9F
9F
FF
ENDCHAR
STARTCHAR U+E013
ENCODING 57875
SWIDTH 864 0
DWIDTH 12 0
BBX 8 8 2 0
BITMAP
FF
99
99
FF
FF
99
99
FF
ENDCHAR
STARTCHAR U+E014
ENCODING 57876
SWIDTH 864 0
DWIDTH 12 0
BBX 8 8 2 0
BITMAP
FF
99
99
E7
E7
99
99
FF
ENDCHAR
STARTCHAR U+E015
ENCODING 57877
SWIDTH 864 0
DWIDTH 12 0
BBX 8 8 2 0
BITMAP
3C
6E
EF
EF
E1
FF
7E
3C
ENDCHAR
STARTCHAR U+E016
ENCODING 57878
SWIDTH 864 0
DWIDTH 12 0
BBX 8 8 2 0
BITMAP
3C
42
91
91
9D
81
42
3C
ENDCHAR
STARTCHAR U+E017
ENCODING 57879
SWIDTH 864 0
DWIDTH 12 0
BBX 8 8 2 0
BITMAP
FF
EF
EF
EF
E1
FF
FF
FF
ENDCHAR
STARTCHAR U+E018
ENCODING 57880
SWIDTH 864 0
DWIDTH 12 0
BBX 8 8 2 0
BITMAP
FF
81
91
91
9D
81
81
FF
ENDCHAR
STARTCHAR U+E019
ENCODING 57881
SWIDTH 864 0
DWIDTH 12 0
BBX 8 8 2 0
BITMAP
18
2C
6E
EF
E1
7E
3C
18
ENDCHAR
STARTCHAR U+E01A
ENCODING 57882
SWIDTH 864 0
DWIDTH 12 0
BBX 8 8 2 0
BITMAP
18
24
52
91
9D
42
24
18
ENDCHAR
STARTCHAR U+E01B
ENCODING 57883
SWIDTH 864 0
DWIDTH 12 0
BBX 8 8 2 0
BITMAP
13
07
4E
14
68
90
90
60
ENDCHAR
STARTCHAR U+E01C
ENCODING 57884
SWIDTH 864 0
DWIDTH 12 0
BBX 6 8 3 0
BITMAP
24
70
74
70
54
88
88
70
ENDCHAR
STARTCHAR U+E01D
ENCODING 57885
SWIDTH 864 0
DWIDTH 12 0
BBX 5 8 3 0
BITMAP
60
78
60
78
60
F0
F0
60
ENDCHAR
STARTCHAR U+E01E
ENCODING 57886
SWIDTH 864 0
DWIDTH 12 0
BBX 7 8 2 0
BITMAP
7C
FE
82
92
8A
92
82
7C
ENDCHAR
STARTCHAR U+E01F
ENCODING 57887
SWIDTH 864 0
DWIDTH 12 0
BBX 7 8 2 0
BITMAP
7C
FE
82
BA
82
BA
82
7C
ENDCHAR
STARTCHAR U+E020
ENCODING 57888
SWIDTH 864 0
DWIDTH 12 0
BBX 7 8 2 0
BITMAP
AA
00
FE
FE
FE
FE
00
AA
ENDCHAR
STARTCHAR U+E021
ENCODING 57889
SWIDTH 864 0
DWIDTH 12 0
BBX 8 8 2 0
BITMAP
DB
00
FF
FF
FF
FF
00
DB
ENDCHAR
STARTCHAR U+E022
ENCODING 57890
SWIDTH 864 0
DWIDTH 12 0
BBX 8 8 2 0
BITMAP
C3
BD
7E
7E
7E
7E
BD
C3
ENDCHAR
STARTCHAR U+E023
ENCODING 57891
SWIDTH 864 0
DWIDTH 12 0
BBX 7 7 2 0
BITMAP
C6
BA
7C
7C
7C
BA
C6
ENDCHAR
STARTCHAR U+E024
ENCODING 57892
SWIDTH 864 0
DWIDTH 12 0
BBX 8 8 2 0
BITMAP
81
7E
7E
7E
7E
7E
7E
81
ENDCHAR
STARTCHAR U+E025
ENCODING 57893
SWIDTH 864 0
DWIDTH 12 0
BBX 7 7 2 0
BITMAP
82
7C
7C
7C
7C
7C
82
ENDCHAR
STARTCHAR U+E026
ENCODING 57894
SWIDTH 864 0
DWIDTH 12 0
BBX 8 8 2 0
BITMAP
DB
C3
3C
BD
BD
3C
C3
DB
ENDCHAR
STARTCHAR U+E027
ENCODING 57895
SWIDTH 864 0
DWIDTH 12 0
BBX 8 8 2 0
BITMAP
40
5F
7C
66
66
3E
FA
02
ENDCHAR
STARTCHAR U+E028
ENCODING 57896
SWIDTH 864 0
DWIDTH 12 0
BBX 7 7 2 0
BITMAP
AA
00
FE
FE
FE
00
AA
ENDCHAR
STARTCHAR U+E029
ENCODING 57897
SWIDTH 864 0
DWIDTH 12 0
BBX 7 8 2 0
BITMAP
7C
82
82
82
FE
FE
FE
FE
ENDCHAR
STARTCHAR U+E02A
ENCODING 57898
SWIDTH 864 0
DWIDTH 12 0
BBX 7 7 2 0
BITMAP
FE
BA
82
FE
BA
82
FE
ENDCHAR
STARTCHAR U+E02B
ENCODING 57899
SWIDTH 864 0
DWIDTH 12 0
BBX 8 8 2 0
BITMAP
FF
BD
81
FF
BD
81
81
FF
ENDCHAR
STARTCHAR U+E02C
ENCODING 57900
SWIDTH 864 0
DWIDTH 12 0
BBX 7 8 2 0
BITMAP
7C
C6
BA
BA
BA
C6
7C
82
ENDCHAR
STARTCHAR U+E02D
ENCODING 57901
SWIDTH 864 0
DWIDTH 12 0
BBX 8 8 2 0
BITMAP
F8
84
F2
89
E5
95
D5
FF
ENDCHAR
STARTCHAR U+E02E
ENCODING 57902
SWIDTH 864 0
DWIDTH 12 0
BBX 5 8 3 0
BITMAP
70
70
00
F0
70
70
70
F8
ENDCHAR
STARTCHAR U+E02F
ENCODING 57903
SWIDTH 864 0
DWIDTH 12 0
BBX 6 8 3 0
BITMAP
78
78
00
F8
78
78
78
FC
ENDCHAR
STARTCHAR U+E030
ENCODING 57904
SWIDTH 864 0
DWIDTH 12 0
BBX 6 8 3 0
BITMAP
30
FC
84
84
84
84
84
FC
ENDCHAR
STARTCHAR U+E031
ENCODING 57905
SWIDTH 864 0
DWIDTH 12 0
BBX 6 8 3 0
BITMAP
30
FC
84
84
A4
B4
84
FC
ENDCHAR
STARTCHAR U+E032
ENCODING 57906
SWIDTH 864 0
DWIDTH 12 0
BBX 6 8 3 0
BITMAP
30
FC
84
A4
B4
B4
84
FC
ENDCHAR
STARTCHAR U+E033
ENCODING 57907
SWIDTH 864 0
DWIDTH 12 0
BBX 6 8 3 0
BITMAP
30
FC
84
B4
B4
B4
84
FC
ENDCHAR
STARTCHAR U+E034
ENCODING 57908
SWIDTH 864 0
DWIDTH 12 0
BBX 7 8 2 0
BITMAP
38
FE
82
82
82
82
82
FE
ENDCHAR
STARTCHAR U+E035
ENCODING 57909
SWIDTH 864 0
DWIDTH 12 0
BBX 7 8 2 0
BITMAP
38
FE
82
82
A2
B2
82
FE
ENDCHAR
STARTCHAR U+E036
ENCODING 57910
SWIDTH 864 0
DWIDTH 12 0
BBX 7 8 2 0
BITMAP
38
FE
82
A2
B2
BA
82
FE
ENDCHAR
STARTCHAR U+E037
ENCODING 57911
SWIDTH 864 0
DWIDTH 12 0
BBX 7 8 2 0
BITMAP
38
FE
82
BA
BA
BA
82
FE
ENDCHAR
STARTCHAR U+E038
ENCODING 57912
SWIDTH 864 0
DWIDTH 12 0
BBX 8 6 2 0
BITMAP
FE
82
83
83
82
FE
ENDCHAR
STARTCHAR U+E039
ENCODING 57913
SWIDTH 864 0
DWIDTH 12 0
BBX 8 6 2 0
BITMAP
FE
82
A3
B3
82
FE
ENDCHAR
STARTCHAR U+E03A
ENCODING 57914
SWIDTH 864 0
DWIDTH 12 0
BBX 8 6 2 0
BITMAP
FE
82
B3
BB
82
FE
ENDCHAR
STARTCHAR U+E03B
ENCODING 57915
SWIDTH 864 0
DWIDTH 12 0
BBX 8 6 2 0
BITMAP
FE
82
BB
BB
82
FE
ENDCHAR
STARTCHAR U+E03C
ENCODING 57916
SWIDTH 864 0
DWIDTH 12 0
BBX 8 7 2 0
BITMAP
FE
82
83
83
83
82
FE
ENDCHAR
STARTCHAR U+E03D
ENCODING 57917
SWIDTH 864 0
DWIDTH 12 0
BBX 8 7 2 0
BITMAP
FE
82
83
A3
B3
82
FE
ENDCHAR
STARTCHAR U+E03E
ENCODING 57918
SWIDTH 864 0
DWIDTH 12 0
BBX 8 7 2 0
BITMAP
FE
82
A3
B3
BB
82
FE
ENDCHAR
STARTCHAR U+E03F
ENCODING 57919
SWIDTH 864 0
DWIDTH 12 0
BBX 8 7 2 0
BITMAP
FE
82
BB
BB
BB
82
FE
ENDCHAR
STARTCHAR U+E040
ENCODING 57920
SWIDTH 864 0
DWIDTH 12 0
BBX 6 10 3 -1
BITMAP
08
10
30
60
7C
F8
18
30
20
40
ENDCHAR
STARTCHAR U+E041
ENCODING 57921
SWIDTH 864 0
DWIDTH 12 0
BBX 6 8 3 0
BITMAP
48
48
FC
FC
FC
78
30
30
ENDCHAR
STARTCHAR U+E042
ENCODING 57922
SWIDTH 864 0
DWIDTH 12 0
BBX 8 6 2 1
BITMAP
1C
3F
FC
FC
3F
1C
ENDCHAR
STARTCHAR U+E043
ENCODING 57923
SWIDTH 864 0
DWIDTH 12 0
BBX 8 8 2 0
BITMAP
38
48
8F
88
88
8F
48
38
ENDCHAR
STARTCHAR U+E044
ENCODING 57924
SWIDTH 864 0
DWIDTH 12 0
BBX 4 4 4 2
BITMAP
10
D0
D0
10
ENDCHAR
STARTCHAR U+E045
ENCODING 57925
SWIDTH 864 0
DWIDTH 12 0
BBX 6 6 3 1
BITMAP
04
14
D4
D4
14
04
ENDCHAR
STARTCHAR U+E046
ENCODING 57926
SWIDTH 864 0
DWIDTH 12 0
BBX 8 8 2 0
BITMAP
01
05
15
D5
D5
15
05
01
ENDCHAR
STARTCHAR U+E047
ENCODING 57927
SWIDTH 864 0
DWIDTH 12 0
BBX 5 6 5 0
BITMAP
18
18
D8
D8
D8
D8
ENDCHAR
STARTCHAR U+E048
ENCODING 57928
SWIDTH 864 0
DWIDTH 12 0
BBX 8 8 2 0
BITMAP
03
03
1B
1B
DB
DB
DB
DB
ENDCHAR
STARTCHAR U+E049
ENCODING 57929
SWIDTH 864 0
DWIDTH 12 0
BBX 4 4 4 0
BITMAP
F0
00
60
60
ENDCHAR
STARTCHAR U+E04A
ENCODING 57930
SWIDTH 864 0
DWIDTH 12 0
BBX 6 6 3 0
BITMAP
FC
00
78
00
30
30
ENDCHAR
STARTCHAR U+E04B
ENCODING 57931
SWIDTH 864 0
DWIDTH 12 0
BBX 8 8 2 0
BITMAP
FF
00
7E
00
3C
00
18
18
ENDCHAR
STARTCHAR U+E04C
ENCODING 57932
SWIDTH 864 0
DWIDTH 12 0
BBX 6 8 3 0
BITMAP
30
30
B4
B4
84
78
30
FC
ENDCHAR
STARTCHAR U+E04D
ENCODING 57933
SWIDTH 864 0
DWIDTH 12 0
BBX 8 8 2 0
BITMAP
3C
42
81
81
81
E7
E7
66
ENDCHAR
STARTCHAR U+E04E
ENCODING 57934
SWIDTH 864 0
DWIDTH 12 0
BBX 5 8 3 0
BITMAP
08
18
F8
F8
F8
F8
18
08
ENDCHAR
STARTCHAR U+E04F
ENCODING 57935
SWIDTH 864 0
DWIDTH 12 0
BBX 7 8 3 0
BITMAP
08
18
FA
F4
E8
D0
28
48
ENDCHAR
STARTCHAR U+E050
ENCODING 57936
SWIDTH 864 0
DWIDTH 12 0
BBX 7 8 2 0
BITMAP
08
18
FA
FA
FA
FA
18
08
ENDCHAR
STARTCHAR U+E051
ENCODING 57937
SWIDTH 864 0
DWIDTH 12 0
BBX 5 7 3 0
BITMAP
08
18
F8
F8
F8
18
08
ENDCHAR
STARTCHAR U+E052
ENCODING 57938
SWIDTH 864 0
DWIDTH 12 0
BBX 7 7 2 0
BITMAP
08
18
FA
F4
E8
10
28
ENDCHAR
STARTCHAR U+E053
ENCODING 57939
SWIDTH 864 0
DWIDTH 12 0
BBX 7 7 2 0
BITMAP
08
18
FA
FA
FA
18
08
ENDCHAR
STARTCHAR U+E054
ENCODING 57940
SWIDTH 864 0
DWIDTH 12 0
BBX 6 8 3 0
BITMAP
84
8C
9C
BC
BC
9C
8C
84
ENDCHAR
STARTCHAR U+E055
ENCODING 57941
SWIDTH 864 0
DWIDTH 12 0
BBX 8 8 2 0
BITMAP
11
33
77
FF
FF
77
33
11
ENDCHAR
STARTCHAR U+E056
ENCODING 57942
SWIDTH 864 0
DWIDTH 12 0
BBX 8 8 2 0
BITMAP
3C
7E
FF
FF
FF
FF
7E
3C
ENDCHAR
STARTCHAR U+E057
ENCODING 57943
SWIDTH 864 0
DWIDTH 12 0
BBX 8 8 2 0
BITMAP
FF
FF
FF
FF
FF
FF
FF
FF
ENDCHAR
STARTCHAR U+E058
ENCODING 57944
SWIDTH 864 0
DWIDTH 12 0
BBX 4 8 4 0
BITMAP
80
C0
E0
F0
F0
E0
C0
80
ENDCHAR
STARTCHAR U+E059
ENCODING 57945
SWIDTH 864 0
DWIDTH 12 0
BBX 5 8 3 0
BITMAP
D8
D8
D8
D8
D8
D8
D8
D8
ENDCHAR
STARTCHAR U+E05A
ENCODING 57946
SWIDTH 864 0
DWIDTH 12 0
BBX 6 8 3 0
BITMAP
84
C4
E4
F4
F4
E4
C4
84
ENDCHAR
STARTCHAR U+E05B
ENCODING 57947
SWIDTH 864 0
DWIDTH 12 0
BBX 8 8 2 0
BITMAP
88
CC
EE
FF
FF
EE
CC
88
ENDCHAR
STARTCHAR U+E05C
ENCODING 57948
SWIDTH 864 0
DWIDTH 12 0
BBX 8 8 2 0
BITMAP
3F
3F
21
21
21
63
E7
C6
ENDCHAR
STARTCHAR U+E05D
ENCODING 57949
SWIDTH 864 0
DWIDTH 12 0
BBX 8 8 2 0
BITMAP
10
32
F1
F5
F5
F1
32
10
ENDCHAR
STARTCHAR U+E05E
ENCODING 57950
SWIDTH 864 0
DWIDTH 12 0
BBX 7 6 2 0
BITMAP
88
FC
FE
FE
7C
08
ENDCHAR
STARTCHAR U+E05F
ENCODING 57951
SWIDTH 864 0
DWIDTH 12 0
BBX 7 6 2 0
BITMAP
22
7E
FE
FE
7C
20
ENDCHAR
STARTCHAR U+E060
ENCODING 57952
SWIDTH 864 0
DWIDTH 12 0
BBX 8 8 2 0
BITMAP
18
3C
7E
FF
3C
3C
3C
3C
ENDCHAR
STARTCHAR U+E061
ENCODING 57953
SWIDTH 864 0
DWIDTH 12 0
BBX 8 8 2 0
BITMAP
3C
3C
3C
3C
FF
7E
3C
18
ENDCHAR
STARTCHAR U+E062
ENCODING 57954
SWIDTH 864 0
DWIDTH 12 0
BBX 8 8 2 0
BITMAP
08
0C
FE
FF
FF
FE
0C
08
ENDCHAR
STARTCHAR U+E063
ENCODING 57955
SWIDTH 864 0
DWIDTH 12 0
BBX 8 8 2 0
BITMAP
10
30
7F
FF
FF
7F
30
10
ENDCHAR
STARTCHAR U+E064
ENCODING 57956
SWIDTH 864 0
DWIDTH 12 0
BBX 8 8 2 0
BITMAP
18
3C
7E
FF
3C
3C
3C
1E
ENDCHAR
STARTCHAR U+E065
ENCODING 57957
SWIDTH 864 0
DWIDTH 12 0
BBX 8 8 2 0
BITMAP
1E
3C
3C
3C
FF
7E
3C
18
ENDCHAR
STARTCHAR U+E066
ENCODING 57958
SWIDTH 864 0
DWIDTH 12 0
BBX 8 8 2 0
BITMAP
18
3C
7E
FF
3C
3C
3C
78
ENDCHAR
STARTCHAR U+E067
ENCODING 57959
SWIDTH 864 0
DWIDTH 12 0
BBX 8 8 2 0
BITMAP
78
3C
3C
3C
FF
7E
3C
18
ENDCHAR
STARTCHAR U+E068
ENCODING 57960
SWIDTH 864 0
DWIDTH 12 0
BBX 8 8 2 0
BITMAP
08
0C
7E
FF
FF
FE
8C
08
ENDCHAR
STARTCHAR U+E069
ENCODING 57961
SWIDTH 864 0
DWIDTH 12 0
BBX 8 8 2 0
BITMAP
10
30
7E
FF
FF
7F
31
10
ENDCHAR
STARTCHAR U+E06A
ENCODING 57962
SWIDTH 864 0
DWIDTH 12 0
BBX 8 8 2 0
BITMAP
08
8C
FE
FF
FF
7E
0C
08
ENDCHAR
STARTCHAR U+E06B
ENCODING 57963
SWIDTH 864 0
DWIDTH 12 0
BBX 8 8 2 0
BITMAP
10
31
7F
FF
FF
7E
30
10
ENDCHAR
STARTCHAR U+E06C
ENCODING 57964
SWIDTH 864 0
DWIDTH 12 0
BBX 6 7 3 0
BITMAP
30
78
FC
78
78
78
78
ENDCHAR
STARTCHAR U+E06D
ENCODING 57965
SWIDTH 864 0
DWIDTH 12 0
BBX 6 7 3 0
BITMAP
78
78
78
78
FC
78
30
ENDCHAR
STARTCHAR U+E06E
ENCODING 57966
SWIDTH 864 0
DWIDTH 12 0
BBX 7 6 2 0
BITMAP
08
FC
FE
FE
FC
08
ENDCHAR
STARTCHAR U+E06F
ENCODING 57967
SWIDTH 864 0
DWIDTH 12 0
BBX 7 6 2 0
BITMAP
20
7E
FE
FE
7E
20
ENDCHAR
STARTCHAR U+E070
ENCODING 57968
SWIDTH 864 0
DWIDTH 12 0
BBX 8 8 2 0
BITMAP
FF
7E
BD
DB
E7
FF
FF
FF
ENDCHAR
STARTCHAR U+E071
ENCODING 57969
SWIDTH 864 0
DWIDTH 12 0
BBX 8 8 2 0
BITMAP
FF
81
C3
A5
99
81
81
FF
ENDCHAR
STARTCHAR U+E072
ENCODING 57970
SWIDTH 864 0
DWIDTH 12 0
BBX 8 7 2 0
BITMAP
FF
7E
BD
DB
E7
FF
FF
ENDCHAR
STARTCHAR U+E073
ENCODING 57971
SWIDTH 864 0
DWIDTH 12 0
BBX 8 7 2 0
BITMAP
FF
81
C3
A5
99
81
FF
ENDCHAR
STARTCHAR U+E074
ENCODING 57972
SWIDTH 864 0
DWIDTH 12 0
BBX 8 8 2 0
BITMAP
C0
EC
DE
5E
EC
DE
3F
3F
ENDCHAR
STARTCHAR U+E075
ENCODING 57973
SWIDTH 864 0
DWIDTH 12 0
BBX 6 7 3 0
BITMAP
30
78
78
30
78
FC
FC
ENDCHAR
STARTCHAR U+E076
ENCODING 57974
SWIDTH 864 0
DWIDTH 12 0
BBX 8 8 2 0
BITMAP
FF
BD
DB
E7
E7
DB
BD
FF
ENDCHAR
STARTCHAR U+E077
ENCODING 57975
SWIDTH 864 0
DWIDTH 12 0
BBX 6 8 3 0
BITMAP
78
CC
CC
CC
CC
FC
CC
78
ENDCHAR
STARTCHAR U+E078
ENCODING 57976
SWIDTH 864 0
DWIDTH 12 0
BBX 6 8 3 0
BITMAP
78
CC
FC
CC
CC
CC
CC
78
ENDCHAR
STARTCHAR U+E079
ENCODING 57977
SWIDTH 864 0
DWIDTH 12 0
BBX 8 8 2 0
BITMAP
3C
7E
FF
C3
C3
FF
7E
3C
ENDCHAR
STARTCHAR U+E07A
ENCODING 57978
SWIDTH 864 0
DWIDTH 12 0
BBX 6 7 3 0
BITMAP
30
78
FC
78
78
78
3C
ENDCHAR
STARTCHAR U+E07B
ENCODING 57979
SWIDTH 864 0
DWIDTH 12 0
BBX 6 7 3 0
BITMAP
3C
78
78
78
FC
78
30
ENDCHAR
STARTCHAR U+E07C
ENCODING 57980
SWIDTH 864 0
DWIDTH 12 0
BBX 6 7 3 0
BITMAP
30
78
FC
78
78
78
F0
ENDCHAR
STARTCHAR U+E07D
ENCODING 57981
SWIDTH 864 0
DWIDTH 12 0
BBX 6 7 3 0
BITMAP
F0
78
78
78
FC
78
30
ENDCHAR
STARTCHAR U+E07E
ENCODING 57982
SWIDTH 864 0
DWIDTH 12 0
BBX 7 6 2 0
BITMAP
08
7C
FE
FE
FC
88
ENDCHAR
STARTCHAR U+E07F
ENCODING 57983
SWIDTH 864 0
DWIDTH 12 0
BBX 7 6 2 0
BITMAP
20
7C
FE
FE
7E
22
ENDCHAR
STARTCHAR U+E080
ENCODING 57984
SWIDTH 864 0
DWIDTH 12 0
BBX 7 7 2 0
BITMAP
10
28
6C
E2
7C
38
10
ENDCHAR
STARTCHAR U+E081
ENCODING 57985
SWIDTH 864 0
DWIDTH 12 0
BBX 7 7 2 0
BITMAP
FE
EE
EE
E2
FE
FE
FE
ENDCHAR
STARTCHAR U+E082
ENCODING 57986
SWIDTH 864 0
DWIDTH 12 0
BBX 7 7 2 0
BITMAP
D6
C6
38
BA
38
C6
D6
ENDCHAR
STARTCHAR U+E083
ENCODING 57987
SWIDTH 864 0
DWIDTH 12 0
BBX 7 7 2 0
BITMAP
40
5E
78
6C
3C
F4
04
ENDCHAR
STARTCHAR U+E084
ENCODING 57988
SWIDTH 864 0
DWIDTH 12 0
BBX 8 5 2 1
BITMAP
FE
83
83
83
FE
ENDCHAR
STARTCHAR U+E085
ENCODING 57989
SWIDTH 864 0
DWIDTH 12 0
BBX 8 5 2 1
BITMAP
FE
83
B3
83
FE
ENDCHAR
STARTCHAR U+E086
ENCODING 57990
SWIDTH 864 0
DWIDTH 12 0
BBX 8 5 2 1
BITMAP
FE
83
BB
83
FE
ENDCHAR
STARTCHAR U+E087
ENCODING 57991
SWIDTH 864 0
DWIDTH 12 0
BBX 6 7 3 0
BITMAP
30
FC
84
84
84
84
FC
ENDCHAR
STARTCHAR U+E088
ENCODING 57992
SWIDTH 864 0
DWIDTH 12 0
BBX 6 7 3 0
BITMAP
30
FC
84
A4
B4
84
FC
ENDCHAR
STARTCHAR U+E089
ENCODING 57993
SWIDTH 864 0
DWIDTH 12 0
BBX 6 7 3 0
BITMAP
30
FC
84
B4
B4
84
FC
ENDCHAR
STARTCHAR U+E08A
ENCODING 57994
SWIDTH 864 0
DWIDTH 12 0
BBX 5 7 3 0
BITMAP
70
F8
88
88
88
88
F8
ENDCHAR
STARTCHAR U+E08B
ENCODING 57995
SWIDTH 864 0
DWIDTH 12 0
BBX 5 7 3 0
BITMAP
70
F8
88
88
A8
88
F8
ENDCHAR
STARTCHAR U+E08C
ENCODING 57996
SWIDTH 864 0
DWIDTH 12 0
BBX 5 7 3 0
BITMAP
70
F8
88
A8
A8
88
F8
ENDCHAR
STARTCHAR U+E08D
ENCODING 57997
SWIDTH 864 0
DWIDTH 12 0
BBX 5 8 3 0
BITMAP
70
F8
88
88
88
88
88
F8
ENDCHAR
STARTCHAR U+E08E
ENCODING 57998
SWIDTH 864 0
DWIDTH 12 0
BBX 5 8 3 0
BITMAP
70
F8
88
88
A8
A8
88
F8
ENDCHAR
STARTCHAR U+E08F
ENCODING 57999
SWIDTH 864 0
DWIDTH 12 0
BBX 5 8 3 0
BITMAP
70
F8
88
A8
A8
A8
88
F8
ENDCHAR
STARTCHAR U+E090
ENCODING 58000
SWIDTH 864 0
DWIDTH 12 0
BBX 8 6 2 0
BITMAP
7F
41
C1
C1
41
7F
ENDCHAR
STARTCHAR U+E091
ENCODING 58001
SWIDTH 864 0
DWIDTH 12 0
BBX 8 6 2 0
BITMAP
7F
41
C5
CD
41
7F
ENDCHAR
STARTCHAR U+E092
ENCODING 58002
SWIDTH 864 0
DWIDTH 12 0
BBX 8 6 2 0
BITMAP
7F
41
CD
DD
41
7F
ENDCHAR
STARTCHAR U+E093
ENCODING 58003
SWIDTH 864 0
DWIDTH 12 0
BBX 8 6 2 0
BITMAP
7F
41
DD
DD
41
7F
ENDCHAR
STARTCHAR U+E094
ENCODING 58004
SWIDTH 864 0
DWIDTH 12 0
BBX 8 8 2 0
BITMAP
08
4C
8F
AF
AF
8F
4C
08
ENDCHAR
STARTCHAR U+E095
ENCODING 58005
SWIDTH 864 0
DWIDTH 12 0
BBX 7 8 2 0
BITMAP
20
30
BE
BE
BE
BE
30
20
ENDCHAR
STARTCHAR U+E096
ENCODING 58006
SWIDTH 864 0
DWIDTH 12 0
BBX 6 7 3 0
BITMAP
84
8C
9C
BC
9C
8C
84
ENDCHAR
STARTCHAR U+E097
ENCODING 58007
SWIDTH 864 0
DWIDTH 12 0
BBX 8 7 2 0
BITMAP
11
33
77
FF
77
33
11
ENDCHAR
STARTCHAR U+E098
ENCODING 58008
SWIDTH 864 0
DWIDTH 12 0
BBX 7 7 2 0
BITMAP
38
7C
FE
FE
FE
7C
38
ENDCHAR
STARTCHAR U+E099
ENCODING 58009
SWIDTH 864 0
DWIDTH 12 0
BBX 7 7 2 0
BITMAP
FE
FE
FE
FE
FE
FE
FE
ENDCHAR
STARTCHAR U+E09A
ENCODING 58010
SWIDTH 864 0
DWIDTH 12 0
BBX 4 7 4 0
BITMAP
80
C0
E0
F0
E0
C0
80
ENDCHAR
STARTCHAR U+E09B
ENCODING 58011
SWIDTH 864 0
DWIDTH 12 0
BBX 5 7 3 0
BITMAP
D8
D8
D8
D8
D8
D8
D8
ENDCHAR
STARTCHAR U+E09C
ENCODING 58012
SWIDTH 864 0
DWIDTH 12 0
BBX 6 7 3 0
BITMAP
84
C4
E4
F4
E4
C4
84
ENDCHAR
STARTCHAR U+E09D
ENCODING 58013
SWIDTH 864 0
DWIDTH 12 0
BBX 8 7 2 0
BITMAP
88
CC
EE
FF
EE
CC
88
ENDCHAR
STARTCHAR U+E09E
ENCODING 58014
SWIDTH 864 0
DWIDTH 12 0
BBX 6 9 3 -1
BITMAP
08
10
30
60
FC
18
30
20
40
ENDCHAR
STARTCHAR U+E09F
ENCODING 58015
SWIDTH 864 0
DWIDTH 12 0
BBX 8 8 2 0
BITMAP
FF
81
81
81
81
FF
18
7E
ENDCHAR
STARTCHAR U+E0A0
ENCODING 58016
SWIDTH 864 0
DWIDTH 12 0
BBX 6 6 3 0
BITMAP
78
DC
F8
F0
FC
78
ENDCHAR
STARTCHAR U+E0A1
ENCODING 58017
SWIDTH 864 0
DWIDTH 12 0
BBX 8 8 2 0
BITMAP
18
18
3C
3C
7E
66
E7
C3
ENDCHAR
STARTCHAR U+E0A2
ENCODING 58018
SWIDTH 864 0
DWIDTH 12 0
BBX 6 6 3 0
BITMAP
78
DC
DC
C4
FC
78
ENDCHAR
STARTCHAR U+E0A3
ENCODING 58019
SWIDTH 864 0
DWIDTH 12 0
BBX 7 7 2 0
BITMAP
38
6C
EE
E2
FE
7C
38
ENDCHAR
STARTCHAR U+E0A4
ENCODING 58020
SWIDTH 864 0
DWIDTH 12 0
BBX 5 7 3 0
BITMAP
60
78
60
78
60
F0
60
ENDCHAR
STARTCHAR U+E0A5
ENCODING 58021
SWIDTH 864 0
DWIDTH 12 0
BBX 6 7 3 0
BITMAP
24
70
74
50
88
88
70
ENDCHAR
STARTCHAR U+E0A6
ENCODING 58022
SWIDTH 864 0
DWIDTH 12 0
BBX 6 7 3 0
BITMAP
78
84
84
84
FC
FC
FC
ENDCHAR
STARTCHAR U+E0A7
ENCODING 58023
SWIDTH 864 0
DWIDTH 12 0
BBX 6 8 3 0
BITMAP
FC
CC
CC
CC
CC
FC
CC
FC
ENDCHAR
STARTCHAR U+E0A8
ENCODING 58024
SWIDTH 864 0
DWIDTH 12 0
BBX 6 8 3 0
BITMAP
FC
CC
FC
CC
CC
CC
CC
FC
ENDCHAR
STARTCHAR U+E0A9
ENCODING 58025
SWIDTH 864 0
DWIDTH 12 0
BBX 8 6 2 0
BITMAP
3C
42
99
99
42
3C
ENDCHAR
STARTCHAR U+E0AA
ENCODING 58026
SWIDTH 864 0
DWIDTH 12 0
BBX 7 8 2 0
BITMAP
38
7C
D6
D6
FE
FE
FE
AA
ENDCHAR
STARTCHAR U+E0AB
ENCODING 58027
SWIDTH 864 0
DWIDTH 12 0
BBX 8 8 2 0
BITMAP
3C
7E
E7
DB
DB
E7
7E
3C
ENDCHAR
STARTCHAR U+E0AC
ENCODING 58028
SWIDTH 864 0
DWIDTH 12 0
BBX 6 6 3 0
BITMAP
F0
88
E4
94
D4
FC
ENDCHAR
STARTCHAR U+E0AD
ENCODING 58029
SWIDTH 864 0
DWIDTH 12 0
BBX 8 8 2 0
BITMAP
7E
81
81
81
81
7A
0C
08
ENDCHAR
STARTCHAR U+E0AE
ENCODING 58030
SWIDTH 864 0
DWIDTH 12 0
BBX 8 8 2 0
BITMAP
18
24
66
E7
E7
7E
24
18
ENDCHAR
STARTCHAR U+E0AF
ENCODING 58031
SWIDTH 864 0
DWIDTH 12 0
BBX 6 7 3 0
BITMAP
FC
84
84
84
FC
30
FC
ENDCHAR
STARTCHAR U+E0B0
ENCODING 58032
SWIDTH 864 0
DWIDTH 12 0
BBX 6 7 3 0
BITMAP
10
98
54
38
54
98
10
ENDCHAR
STARTCHAR U+E0B1
ENCODING 58033
SWIDTH 864 0
DWIDTH 12 0
BBX 8 8 2 0
BITMAP
F8
F8
F8
FB
FB
03
1F
1F
ENDCHAR
STARTCHAR U+E0B2
ENCODING 58034
SWIDTH 864 0
DWIDTH 12 0
BBX 8 8 2 0
BITMAP
18
3C
7E
FF
42
5A
5A
7E
ENDCHAR
STARTCHAR U+E0B3
ENCODING 58035
SWIDTH 864 0
DWIDTH 12 0
BBX 3 8 4 0
BITMAP
E0
E0
E0
E0
E0
00
E0
E0
ENDCHAR
STARTCHAR U+E0B4
ENCODING 58036
SWIDTH 864 0
DWIDTH 12 0
BBX 8 7 2 0
BITMAP
FF
81
81
81
81
81
FF
ENDCHAR
STARTCHAR U+E0B5
ENCODING 58037
SWIDTH 864 0
DWIDTH 12 0
BBX 8 7 2 0
BITMAP
FF
89
8F
89
8F
89
FF
ENDCHAR
STARTCHAR U+E0B6
ENCODING 58038
SWIDTH 864 0
DWIDTH 12 0
BBX 8 7 2 0
BITMAP
FF
81
81
FF
A5
A5
FF
ENDCHAR
STARTCHAR U+E0B7
ENCODING 58039
SWIDTH 864 0
DWIDTH 12 0
BBX 8 7 2 0
BITMAP
FF
81
81
81
FF
81
FF
ENDCHAR
STARTCHAR U+E0B8
ENCODING 58040
SWIDTH 864 0
DWIDTH 12 0
BBX 8 7 2 0
BITMAP
FF
A5
FF
A5
FF
A5
FF
ENDCHAR
STARTCHAR U+E0B9
ENCODING 58041
SWIDTH 864 0
DWIDTH 12 0
BBX 8 7 2 0
BITMAP
F8
88
88
FB
01
11
1F
ENDCHAR
STARTCHAR U+E0BA
ENCODING 58042
SWIDTH 864 0
DWIDTH 12 0
BBX 8 7 2 0
BITMAP
FF
91
9F
95
97
95
FF
ENDCHAR
STARTCHAR U+E0BB
ENCODING 58043
SWIDTH 864 0
DWIDTH 12 0
BBX 8 7 2 0
BITMAP
FF
91
9F
95
9D
95
FF
ENDCHAR
STARTCHAR U+E0BC
ENCODING 58044
SWIDTH 864 0
DWIDTH 12 0
BBX 8 7 2 0
BITMAP
FF
89
8F
F9
8F
89
FF
ENDCHAR
STARTCHAR U+E0BD
ENCODING 58045
SWIDTH 864 0
DWIDTH 12 0
BBX 8 7 2 0
BITMAP
FF
89
89
FF
A5
A5
FF
ENDCHAR
STARTCHAR U+E0BE
ENCODING 58046
SWIDTH 864 0
DWIDTH 12 0
BBX 8 7 2 0
BITMAP
FF
89
89
F9
81
81
FF
ENDCHAR
STARTCHAR U+E0BF
ENCODING 58047
SWIDTH 864 0
DWIDTH 12 0
BBX 8 8 2 0
BITMAP
18
24
42
FF
42
5A
5A
7E
ENDCHAR
STARTCHAR U+E0C0
ENCODING 58048
SWIDTH 864 0
DWIDTH 12 0
BBX 7 7 2 0
BITMAP
C6
BA
44
44
44
BA
C6
ENDCHAR
STARTCHAR U+E0C1
ENCODING 58049
SWIDTH 864 0
DWIDTH 12 0
BBX 8 8 2 0
BITMAP
C3
BD
42
42
42
42
BD
C3
ENDCHAR
STARTCHAR U+E0C2
ENCODING 58050
SWIDTH 864 0
DWIDTH 12 0
BBX 7 7 2 0
BITMAP
82
7C
44
44
44
7C
82
ENDCHAR
STARTCHAR U+E0C3
ENCODING 58051
SWIDTH 864 0
DWIDTH 12 0
BBX 8 8 2 0
BITMAP
81
7E
42
42
42
42
7E
81
ENDCHAR
STARTCHAR U+E0C4
ENCODING 58052
SWIDTH 864 0
DWIDTH 12 0
BBX 7 7 2 0
BITMAP
AA
00
FE
82
FE
00
AA
ENDCHAR
STARTCHAR U+E0C5
ENCODING 58053
SWIDTH 864 0
DWIDTH 12 0
BBX 7 8 2 0
BITMAP
AA
00
FE
82
82
FE
00
AA
ENDCHAR
STARTCHAR U+E0C6
ENCODING 58054
SWIDTH 864 0
DWIDTH 12 0
BBX 7 7 2 0
BITMAP
38
7C
D6
D6
FE
FE
AA
ENDCHAR
STARTCHAR U+E0C7
ENCODING 58055
SWIDTH 864 0
DWIDTH 12 0
BBX 7 7 2 0
BITMAP
38
7C
D6
FE
FE
FE
AA
ENDCHAR
STARTCHAR U+E0C8
ENCODING 58056
SWIDTH 864 0
DWIDTH 12 0
BBX 7 8 2 0
BITMAP
38
7C
D6
FE
FE
FE
FE
AA
ENDCHAR
STARTCHAR U+E0C9
ENCODING 58057
SWIDTH 864 0
DWIDTH 12 0
BBX 7 7 2 0
BITMAP
26
8E
1C
68
90
90
60
ENDCHAR
STARTCHAR U+E0CA
ENCODING 58058
SWIDTH 864 0
DWIDTH 12 0
BBX 8 8 2 0
BITMAP
13
05
4A
14
68
90
90
60
ENDCHAR
STARTCHAR U+E0CB
ENCODING 58059
SWIDTH 864 0
DWIDTH 12 0
BBX 7 7 2 0
BITMAP
26
8A
14
68
90
90
60
ENDCHAR
STARTCHAR U+E0CC
ENCODING 58060
SWIDTH 864 0
DWIDTH 12 0
BBX 6 8 3 0
BITMAP
24
70
54
50
54
88
88
70
ENDCHAR
STARTCHAR U+E0CD
ENCODING 58061
SWIDTH 864 0
DWIDTH 12 0
BBX 6 7 3 0
BITMAP
24
70
54
50
88
88
70
ENDCHAR
STARTCHAR U+E0CE
ENCODING 58062
SWIDTH 864 0
DWIDTH 12 0
BBX 6 7 3 0
BITMAP
70
5C
50
5C
50
88
70
ENDCHAR
STARTCHAR U+E0CF
ENCODING 58063
SWIDTH 864 0
DWIDTH 12 0
BBX 6 8 3 0
BITMAP
70
5C
50
5C
50
88
88
70
ENDCHAR
STARTCHAR U+E0D0
ENCODING 58064
SWIDTH 864 0
DWIDTH 12 0
BBX 8 8 2 0
BITMAP
18
24
42
E7
24
24
24
3C
ENDCHAR
STARTCHAR U+E0D1
ENCODING 58065
SWIDTH 864 0
DWIDTH 12 0
BBX 8 8 2 0
BITMAP
3C
24
24
24
E7
42
24
18
ENDCHAR
STARTCHAR U+E0D2
ENCODING 58066
SWIDTH 864 0
DWIDTH 12 0
BBX 8 8 2 0
BITMAP
08
0C
FA
81
81
FA
0C
08
ENDCHAR
STARTCHAR U+E0D3
ENCODING 58067
SWIDTH 864 0
DWIDTH 12 0
BBX 8 8 2 0
BITMAP
10
30
5F
81
81
5F
30
10
ENDCHAR
STARTCHAR U+E0D4
ENCODING 58068
SWIDTH 864 0
DWIDTH 12 0
BBX 7 7 2 0
BITMAP
10
28
44
EE
28
28
38
ENDCHAR
STARTCHAR U+E0D5
ENCODING 58069
SWIDTH 864 0
DWIDTH 12 0
BBX 7 7 2 0
BITMAP
38
28
28
EE
44
28
10
ENDCHAR
STARTCHAR U+E0D6
ENCODING 58070
SWIDTH 864 0
DWIDTH 12 0
BBX 7 7 2 0
BITMAP
10
18
F4
82
F4
18
10
ENDCHAR
STARTCHAR U+E0D7
ENCODING 58071
SWIDTH 864 0
DWIDTH 12 0
BBX 7 7 2 0
BITMAP
10
30
5E
82
5E
30
10
ENDCHAR
STARTCHAR U+E0D8
ENCODING 58072
SWIDTH 864 0
DWIDTH 12 0
BBX 8 7 2 0
BITMAP
18
28
CF
88
CF
28
18
ENDCHAR
STARTCHAR U+E0D9
ENCODING 58073
SWIDTH 864 0
DWIDTH 12 0
BBX 8 8 2 0
BITMAP
18
28
4F
88
88
4F
28
18
ENDCHAR
STARTCHAR U+E0DA
ENCODING 58074
SWIDTH 864 0
DWIDTH 12 0
BBX 6 8 3 0
BITMAP
48
48
48
FC
84
48
30
30
ENDCHAR
STARTCHAR U+E0DB
ENCODING 58075
SWIDTH 864 0
DWIDTH 12 0
BBX 6 7 3 0
BITMAP
48
48
FC
84
48
30
30
ENDCHAR
STARTCHAR U+E0DC
ENCODING 58076
SWIDTH 864 0
DWIDTH 12 0
BBX 8 7 2 0
BITMAP
3C
42
94
88
8F
42
3C
ENDCHAR
STARTCHAR U+E0DD
ENCODING 58077
SWIDTH 864 0
DWIDTH 12 0
BBX 8 8 2 0
BITMAP
18
24
24
42
42
99
A5
C3
ENDCHAR
STARTCHAR U+E0DE
ENCODING 58078
SWIDTH 864 0
DWIDTH 12 0
BBX 8 8 2 0
BITMAP
3C
42
92
84
88
87
42
3C
ENDCHAR
STARTCHAR U+E0DF
ENCODING 58079
SWIDTH 864 0
DWIDTH 12 0
BBX 7 7 2 0
BITMAP
10
28
28
44
54
AA
C6
ENDCHAR
STARTCHAR U+E0E0
ENCODING 58080
SWIDTH 864 0
DWIDTH 12 0
BBX 8 8 2 0
BITMAP
10
32
D1
95
95
D1
32
10
ENDCHAR
STARTCHAR U+E0E1
ENCODING 58081
SWIDTH 864 0
DWIDTH 12 0
BBX 8 7 2 0
BITMAP
10
32
D1
95
D1
32
10
ENDCHAR
STARTCHAR U+E0E2
ENCODING 58082
SWIDTH 864 0
DWIDTH 12 0
BBX 7 8 2 0
BITMAP
08
18
EA
8A
8A
EA
18
08
ENDCHAR
STARTCHAR U+E0E3
ENCODING 58083
SWIDTH 864 0
DWIDTH 12 0
BBX 7 7 2 0
BITMAP
08
18
EA
8A
EA
18
08
ENDCHAR
STARTCHAR U+E0E4
ENCODING 58084
SWIDTH 864 0
DWIDTH 12 0
BBX 6 8 3 0
BITMAP
84
8C
94
A4
A4
94
8C
84
ENDCHAR
STARTCHAR U+E0E5
ENCODING 58085
SWIDTH 864 0
DWIDTH 12 0
BBX 8 8 2 0
BITMAP
11
33
55
99
99
55
33
11
ENDCHAR
STARTCHAR U+E0E6
ENCODING 58086
SWIDTH 864 0
DWIDTH 12 0
BBX 8 8 2 0
BITMAP
3C
42
81
81
81
81
42
3C
ENDCHAR
STARTCHAR U+E0E7
ENCODING 58087
SWIDTH 864 0
DWIDTH 12 0
BBX 8 8 2 0
BITMAP
FF
81
81
81
81
81
81
FF
ENDCHAR
STARTCHAR U+E0E8
ENCODING 58088
SWIDTH 864 0
DWIDTH 12 0
BBX 4 8 4 0
BITMAP
80
C0
A0
90
90
A0
C0
80
ENDCHAR
STARTCHAR U+E0E9
ENCODING 58089
SWIDTH 864 0
DWIDTH 12 0
BBX 4 8 4 0
BITMAP
90
90
90
90
90
90
90
90
ENDCHAR
STARTCHAR U+E0EA
ENCODING 58090
SWIDTH 864 0
DWIDTH 12 0
BBX 6 8 3 0
BITMAP
84
C4
A4
94
94
A4
C4
84
ENDCHAR
STARTCHAR U+E0EB
ENCODING 58091
SWIDTH 864 0
DWIDTH 12 0
BBX 8 8 2 0
BITMAP
88
CC
AA
99
99
AA
CC
88
ENDCHAR
STARTCHAR U+E0EC
ENCODING 58092
SWIDTH 864 0
DWIDTH 12 0
BBX 7 7 2 0
BITMAP
3E
22
22
22
66
AA
CC
ENDCHAR
STARTCHAR U+E0ED
ENCODING 58093
SWIDTH 864 0
DWIDTH 12 0
BBX 7 8 2 0
BITMAP
3E
22
22
22
22
66
AA
CC
ENDCHAR
STARTCHAR U+E0EE
ENCODING 58094
SWIDTH 864 0
DWIDTH 12 0
BBX 3 4 6 0
BITMAP
20
20
A0
A0
ENDCHAR
STARTCHAR U+E0EF
ENCODING 58095
SWIDTH 864 0
DWIDTH 12 0
BBX 5 6 4 0
BITMAP
08
08
28
28
A8
A8
ENDCHAR
STARTCHAR U+E0F0
ENCODING 58096
SWIDTH 864 0
DWIDTH 12 0
BBX 7 8 2 0
BITMAP
02
02
0A
0A
2A
2A
AA
AA
ENDCHAR
STARTCHAR U+E0F1
ENCODING 58097
SWIDTH 864 0
DWIDTH 12 0
BBX 3 3 6 0
BITMAP
20
20
A0
ENDCHAR
STARTCHAR U+E0F2
ENCODING 58098
SWIDTH 864 0
DWIDTH 12 0
BBX 5 5 4 0
BITMAP
08
08
28
28
A8
ENDCHAR
STARTCHAR U+E0F3
ENCODING 58099
SWIDTH 864 0
DWIDTH 12 0
BBX 7 7 2 0
BITMAP
02
02
0A
0A
2A
2A
AA
ENDCHAR
STARTCHAR U+E0F4
ENCODING 58100
SWIDTH 864 0
DWIDTH 12 0
BBX 6 7 3 0
BITMAP
84
8C
94
A4
94
8C
84
ENDCHAR
STARTCHAR U+E0F5
ENCODING 58101
SWIDTH 864 0
DWIDTH 12 0
BBX 8 7 2 0
BITMAP
11
33
55
99
55
33
11
ENDCHAR
STARTCHAR U+E0F6
ENCODING 58102
SWIDTH 864 0
DWIDTH 12 0
BBX 7 7 2 0
BITMAP
38
44
82
82
82
44
38
ENDCHAR
STARTCHAR U+E0F7
ENCODING 58103
SWIDTH 864 0
DWIDTH 12 0
BBX 7 7 2 0
BITMAP
FE
82
82
82
82
82
FE
ENDCHAR
STARTCHAR U+E0F8
ENCODING 58104
SWIDTH 864 0
DWIDTH 12 0
BBX 4 7 4 0
BITMAP
80
C0
A0
90
A0
C0
80
ENDCHAR
STARTCHAR U+E0F9
ENCODING 58105
SWIDTH 864 0
DWIDTH 12 0
BBX 4 7 4 0
BITMAP
90
90
90
90
90
90
90
ENDCHAR
STARTCHAR U+E0FA
ENCODING 58106
SWIDTH 864 0
DWIDTH 12 0
BBX 6 7 3 0
BITMAP
84
C4
A4
94
A4
C4
84
ENDCHAR
STARTCHAR U+E0FB
ENCODING 58107
SWIDTH 864 0
DWIDTH 12 0
BBX 8 7 2 0
BITMAP
88
CC
AA
99
AA
CC
88
ENDCHAR
STARTCHAR U+E0FC
ENCODING 58108
SWIDTH 864 0
DWIDTH 12 0
BBX 8 7 2 0
BITMAP
3C
42
81
81
E7
A5
66
ENDCHAR
STARTCHAR U+E0FD
ENCODING 58109
SWIDTH 864 0
DWIDTH 12 0
BBX 8 7 2 0
BITMAP
3C
42
81
81
E7
E7
66
ENDCHAR
STARTCHAR U+E0FE
ENCODING 58110
SWIDTH 864 0
DWIDTH 12 0
BBX 7 7 2 0
BITMAP
3E
3E
22
22
66
EE
CC
ENDCHAR
STARTCHAR U+E0FF
ENCODING 58111
SWIDTH 864 0
DWIDTH 12 0
BBX 3 8 4 0
BITMAP
E0
E0
00
E0
E0
E0
E0
E0
ENDCHAR
STARTCHAR U+E100
ENCODING 58112
SWIDTH 864 0
DWIDTH 12 0
BBX 7 7 2 0
BITMAP
F2
7E
46
D6
C4
FC
9E
ENDCHAR
STARTCHAR U+E101
ENCODING 58113
SWIDTH 864 0
DWIDTH 12 0
BBX 6 6 3 0
BITMAP
E4
7C
4C
C8
F8
9C
ENDCHAR
STARTCHAR U+E102
ENCODING 58114
SWIDTH 864 0
DWIDTH 12 0
BBX 8 6 2 0
BITMAP
FF
C3
A5
99
81
FF
ENDCHAR
STARTCHAR U+E103
ENCODING 58115
SWIDTH 864 0
DWIDTH 12 0
BBX 8 6 2 0
BITMAP
FF
7E
BD
C3
FF
FF
ENDCHAR
STARTCHAR U+E104
ENCODING 58116
SWIDTH 864 0
DWIDTH 12 0
BBX 8 8 2 0
BITMAP
18
3C
7E
FF
FF
7E
3C
18
ENDCHAR
STARTCHAR U+E105
ENCODING 58117
SWIDTH 864 0
DWIDTH 12 0
BBX 7 7 2 0
BITMAP
10
38
7C
FE
7C
38
10
ENDCHAR
STARTCHAR U+E106
ENCODING 58118
SWIDTH 864 0
DWIDTH 12 0
BBX 8 8 2 0
BITMAP
66
FF
FF
FF
FF
7E
3C
18
ENDCHAR
STARTCHAR U+E107
ENCODING 58119
SWIDTH 864 0
DWIDTH 12 0
BBX 8 7 2 0
BITMAP
66
FF
FF
FF
7E
3C
18
ENDCHAR
STARTCHAR U+E108
ENCODING 58120
SWIDTH 864 0
DWIDTH 12 0
BBX 7 8 2 0
BITMAP
10
28
44
EE
28
28
28
38
ENDCHAR
STARTCHAR U+E109
ENCODING 58121
SWIDTH 864 0
DWIDTH 12 0
BBX 7 8 2 0
BITMAP
38
28
28
28
EE
44
28
10
ENDCHAR
STARTCHAR U+E10A
ENCODING 58122
SWIDTH 864 0
DWIDTH 12 0
BBX 8 7 2 0
BITMAP
08
0C
FA
81
FA
0C
08
ENDCHAR
STARTCHAR U+E10B
ENCODING 58123
SWIDTH 864 0
DWIDTH 12 0
BBX 8 7 2 0
BITMAP
10
30
5F
81
5F
30
10
ENDCHAR
STARTCHAR U+E10C
ENCODING 58124
SWIDTH 864 0
DWIDTH 12 0
BBX 7 8 2 0
BITMAP
10
10
54
92
92
82
44
38
ENDCHAR
STARTCHAR U+E10D
ENCODING 58125
SWIDTH 864 0
DWIDTH 12 0
BBX 7 7 2 0
BITMAP
10
54
92
92
82
44
38
ENDCHAR
STARTCHAR U+E10E
ENCODING 58126
SWIDTH 864 0
DWIDTH 12 0
BBX 7 7 2 0
BITMAP
10
28
44
FE
44
54
7C
ENDCHAR
STARTCHAR U+E10F
ENCODING 58127
SWIDTH 864 0
DWIDTH 12 0
BBX 6 7 3 0
BITMAP
48
5C
48
48
48
E8
48
ENDCHAR
STARTCHAR U+E110
ENCODING 58128
SWIDTH 864 0
DWIDTH 12 0
BBX 5 7 3 0
BITMAP
20
F8
88
88
88
88
F8
ENDCHAR
STARTCHAR U+E111
ENCODING 58129
SWIDTH 864 0
DWIDTH 12 0
BBX 5 7 3 0
BITMAP
20
F8
88
88
A8
88
F8
ENDCHAR
STARTCHAR U+E112
ENCODING 58130
SWIDTH 864 0
DWIDTH 12 0
BBX 5 7 3 0
BITMAP
20
F8
88
A8
A8
88
F8
ENDCHAR
STARTCHAR U+E113
ENCODING 58131
SWIDTH 864 0
DWIDTH 12 0
BBX 8 5 2 1
BITMAP
FE
82
83
82
FE
ENDCHAR
STARTCHAR U+E114
ENCODING 58132
SWIDTH 864 0
DWIDTH 12 0
BBX 8 5 2 1
BITMAP
FE
82
A3
82
FE
ENDCHAR
STARTCHAR U+E115
ENCODING 58133
SWIDTH 864 0
DWIDTH 12 0
BBX 8 5 2 1
BITMAP
FE
82
B3
82
FE
ENDCHAR
STARTCHAR U+E116
ENCODING 58134
SWIDTH 864 0
DWIDTH 12 0
BBX 8 5 2 1
BITMAP
FE
82
BB
82
FE
ENDCHAR
STARTCHAR U+E117
ENCODING 58135
SWIDTH 864 0
DWIDTH 12 0
BBX 8 5 2 1
BITMAP
7F
41
C1
41
7F
ENDCHAR
STARTCHAR U+E118
ENCODING 58136
SWIDTH 864 0
DWIDTH 12 0
BBX 8 5 2 1
BITMAP
7F
41
C5
41
7F
ENDCHAR
STARTCHAR U+E119
ENCODING 58137
SWIDTH 864 0
DWIDTH 12 0
BBX 8 5 2 1
BITMAP
7F
41
CD
41
7F
ENDCHAR
STARTCHAR U+E11A
ENCODING 58138
SWIDTH 864 0
DWIDTH 12 0
BBX 8 5 2 1
BITMAP
7F
41
DD
41
7F
ENDCHAR
STARTCHAR U+E11B
ENCODING 58139
SWIDTH 864 0
DWIDTH 12 0
BBX 8 8 2 0
BITMAP
08
4C
8B
A9
A9
8B
4C
08
ENDCHAR
STARTCHAR U+E11C
ENCODING 58140
SWIDTH 864 0
DWIDTH 12 0
BBX 8 7 2 0
BITMAP
08
4C
8B
A9
8B
4C
08
ENDCHAR
STARTCHAR U+E11D
ENCODING 58141
SWIDTH 864 0
DWIDTH 12 0
BBX 7 8 2 0
BITMAP
20
30
AE
A2
A2
AE
30
20
ENDCHAR
STARTCHAR U+E11E
ENCODING 58142
SWIDTH 864 0
DWIDTH 12 0
BBX 7 7 2 0
BITMAP
20
30
AE
A2
AE
30
20
ENDCHAR
STARTCHAR U+E11F
ENCODING 58143
SWIDTH 864 0
DWIDTH 12 0
BBX 7 6 2 0
BITMAP
04
FE
04
40
FE
40
ENDCHAR
STARTCHAR U+E120
ENCODING 58144
SWIDTH 864 0
DWIDTH 12 0
BBX 7 7 2 0
BITMAP
FE
82
C6
BA
82
82
FE
ENDCHAR
STARTCHAR U+E121
ENCODING 58145
SWIDTH 864 0
DWIDTH 12 0
BBX 7 7 2 0
BITMAP
FE
7C
BA
C6
FE
FE
FE
ENDCHAR
STARTCHAR U+E122
ENCODING 58146
SWIDTH 864 0
DWIDTH 12 0
BBX 7 6 2 0
BITMAP
FE
82
C6
BA
82
FE
ENDCHAR
STARTCHAR U+E123
ENCODING 58147
SWIDTH 864 0
DWIDTH 12 0
BBX 7 6 2 0
BITMAP
FE
7C
BA
C6
FE
FE
ENDCHAR
STARTCHAR U+E124
ENCODING 58148
SWIDTH 864 0
DWIDTH 12 0
BBX 7 7 2 0
BITMAP
FE
C6
AA
92
82
82
FE
ENDCHAR
STARTCHAR U+E125
ENCODING 58149
SWIDTH 864 0
DWIDTH 12 0
BBX 7 6 2 0
BITMAP
FE
C6
AA
92
82
FE
ENDCHAR
STARTCHAR U+E126
ENCODING 58150
SWIDTH 864 0
DWIDTH 12 0
BBX 7 5 2 1
BITMAP
FE
C6
BA
82
FE
ENDCHAR
STARTCHAR U+E127
ENCODING 58151
SWIDTH 864 0
DWIDTH 12 0
BBX 7 5 2 1
BITMAP
FE
7C
BA
C6
FE
ENDCHAR
STARTCHAR U+E128
ENCODING 58152
SWIDTH 864 0
DWIDTH 12 0
BBX 7 7 2 0
BITMAP
38
44
92
9A
82
44
38
ENDCHAR
STARTCHAR U+E129
ENCODING 58153
SWIDTH 864 0
DWIDTH 12 0
BBX 7 7 2 0
BITMAP
10
28
54
9A
44
28
10
ENDCHAR
STARTCHAR U+E12A
ENCODING 58154
SWIDTH 864 0
DWIDTH 12 0
BBX 7 7 2 0
BITMAP
FE
82
92
9A
82
82
FE
ENDCHAR
STARTCHAR U+E12B
ENCODING 58155
SWIDTH 864 0
DWIDTH 12 0
BBX 5 8 3 0
BITMAP
20
70
F8
20
20
20
20
20
ENDCHAR
STARTCHAR U+E12C
ENCODING 58156
SWIDTH 864 0
DWIDTH 12 0
BBX 5 8 3 0
BITMAP
20
20
20
20
20
F8
70
20
ENDCHAR
STARTCHAR U+E12D
ENCODING 58157
SWIDTH 864 0
DWIDTH 12 0
BBX 8 5 2 1
BITMAP
04
06
FF
06
04
ENDCHAR
STARTCHAR U+E12E
ENCODING 58158
SWIDTH 864 0
DWIDTH 12 0
BBX 8 5 2 1
BITMAP
20
60
FF
60
20
ENDCHAR
STARTCHAR U+E12F
ENCODING 58159
SWIDTH 864 0
DWIDTH 12 0
BBX 6 8 3 0
BITMAP
48
5C
48
48
48
48
E8
48
ENDCHAR
STARTCHAR U+E130
ENCODING 58160
SWIDTH 864 0
DWIDTH 12 0
BBX 8 8 2 0
BITMAP
FF
81
81
81
81
81
81
FF
ENDCHAR
STARTCHAR U+E131
ENCODING 58161
SWIDTH 864 0
DWIDTH 12 0
BBX 8 8 2 0
BITMAP
FF
89
8F
89
89
8F
89
FF
ENDCHAR
STARTCHAR U+E132
ENCODING 58162
SWIDTH 864 0
DWIDTH 12 0
BBX 8 8 2 0
BITMAP
FF
81
81
81
FF
A5
A5
FF
ENDCHAR
STARTCHAR U+E133
ENCODING 58163
SWIDTH 864 0
DWIDTH 12 0
BBX 8 8 2 0
BITMAP
FF
81
81
FF
81
FF
81
FF
ENDCHAR
STARTCHAR U+E134
ENCODING 58164
SWIDTH 864 0
DWIDTH 12 0
BBX 8 8 2 0
BITMAP
FF
A5
FF
A5
A5
FF
A5
FF
ENDCHAR
STARTCHAR U+E135
ENCODING 58165
SWIDTH 864 0
DWIDTH 12 0
BBX 8 8 2 0
BITMAP
F8
88
88
8B
F9
01
11
1F
ENDCHAR
STARTCHAR U+E136
ENCODING 58166
SWIDTH 864 0
DWIDTH 12 0
BBX 8 8 2 0
BITMAP
FF
91
91
9F
95
97
95
FF
ENDCHAR
STARTCHAR U+E137
ENCODING 58167
SWIDTH 864 0
DWIDTH 12 0
BBX 8 8 2 0
BITMAP
FF
91
91
9F
95
9D
95
FF
ENDCHAR
STARTCHAR U+E138
ENCODING 58168
SWIDTH 864 0
DWIDTH 12 0
BBX 8 8 2 0
BITMAP
FF
91
9F
91
F1
9F
91
FF
ENDCHAR
STARTCHAR U+E139
ENCODING 58169
SWIDTH 864 0
DWIDTH 12 0
BBX 8 8 2 0
BITMAP
FF
89
89
89
FF
A5
A5
FF
ENDCHAR
STARTCHAR U+E13A
ENCODING 58170
SWIDTH 864 0
DWIDTH 12 0
BBX 8 8 2 0
BITMAP
FF
89
89
89
F9
81
81
FF
ENDCHAR
STARTCHAR U+E13B
ENCODING 58171
SWIDTH 864 0
DWIDTH 12 0
BBX 5 7 3 0
BITMAP
20
70
F8
20
20
20
20
ENDCHAR
STARTCHAR U+E13C
ENCODING 58172
SWIDTH 864 0
DWIDTH 12 0
BBX 5 7 3 0
BITMAP
20
20
20
20
F8
70
20
ENDCHAR
STARTCHAR U+E13D
ENCODING 58173
SWIDTH 864 0
DWIDTH 12 0
BBX 7 5 2 1
BITMAP
08
0C
FE
0C
08
ENDCHAR
STARTCHAR U+E13E
ENCODING 58174
SWIDTH 864 0
DWIDTH 12 0
BBX 7 5 2 1
BITMAP
20
60
FE
60
20
ENDCHAR
STARTCHAR U+E13F
ENCODING 58175
SWIDTH 864 0
DWIDTH 12 0
BBX 8 6 2 0
BITMAP
02
FF
02
40
FF
40
ENDCHAR
STARTCHAR U+E140
ENCODING 58176
SWIDTH 864 0
DWIDTH 12 0
BBX 7 8 2 0
BITMAP
38
44
AA
AA
82
82
D6
AA
ENDCHAR
STARTCHAR U+E141
ENCODING 58177
SWIDTH 864 0
DWIDTH 12 0
BBX 7 7 2 0
BITMAP
38
44
AA
AA
82
D6
AA
ENDCHAR
STARTCHAR U+E142
ENCODING 58178
SWIDTH 864 0
DWIDTH 12 0
BBX 7 8 2 0
BITMAP
38
44
AA
82
82
82
D6
AA
ENDCHAR
STARTCHAR U+E143
ENCODING 58179
SWIDTH 864 0
DWIDTH 12 0
BBX 7 7 2 0
BITMAP
38
44
AA
82
82
D6
AA
ENDCHAR
STARTCHAR U+E144
ENCODING 58180
SWIDTH 864 0
DWIDTH 12 0
BBX 7 7 2 0
BITMAP
FE
82
82
BA
AA
AA
7E
ENDCHAR
STARTCHAR U+E145
ENCODING 58181
SWIDTH 864 0
DWIDTH 12 0
BBX 7 7 2 0
BITMAP
FE
82
82
BA
BA
BA
7E
ENDCHAR
STARTCHAR U+E146
ENCODING 58182
SWIDTH 864 0
DWIDTH 12 0
BBX 8 8 2 0
BITMAP
FF
81
81
81
BD
A5
A5
7F
ENDCHAR
STARTCHAR U+E147
ENCODING 58183
SWIDTH 864 0
DWIDTH 12 0
BBX 8 8 2 0
BITMAP
FF
81
81
81
BD
AD
AD
7F
ENDCHAR
STARTCHAR U+E148
ENCODING 58184
SWIDTH 864 0
DWIDTH 12 0
BBX 7 7 2 0
BITMAP
38
38
FE
FE
AA
FE
FE
ENDCHAR
STARTCHAR U+E149
ENCODING 58185
SWIDTH 864 0
DWIDTH 12 0
BBX 7 8 2 0
BITMAP
38
38
FE
FE
FE
AA
FE
FE
ENDCHAR
STARTCHAR U+E14A
ENCODING 58186
SWIDTH 864 0
DWIDTH 12 0
BBX 8 7 2 0
BITMAP
FF
81
81
81
FF
18
7E
ENDCHAR
STARTCHAR U+E14B
ENCODING 58187
SWIDTH 864 0
DWIDTH 12 0
BBX 6 8 3 0
BITMAP
FC
FC
00
78
78
00
30
30
ENDCHAR
STARTCHAR U+E14C
ENCODING 58188
SWIDTH 864 0
DWIDTH 12 0
BBX 8 6 2 0
BITMAP
03
1B
DB
DB
1B
03
ENDCHAR
STARTCHAR U+E14D
ENCODING 58189
SWIDTH 864 0
DWIDTH 12 0
BBX 7 7 2 0
BITMAP
3C
6E
FC
F8
F0
7E
3C
ENDCHAR
STARTCHAR U+E14E
ENCODING 58190
SWIDTH 864 0
DWIDTH 12 0
BBX 7 7 2 0
BITMAP
06
1E
7E
FE
7E
1E
06
ENDCHAR
STARTCHAR U+E14F
ENCODING 58191
SWIDTH 864 0
DWIDTH 12 0
BBX 7 7 2 0
BITMAP
C0
F0
FC
FE
FC
F0
C0
ENDCHAR
STARTCHAR U+E150
ENCODING 58192
SWIDTH 864 0
DWIDTH 12 0
BBX 8 7 2 0
BITMAP
18
2C
6E
E3
7E
3C
18
ENDCHAR
STARTCHAR U+E151
ENCODING 58193
SWIDTH 864 0
DWIDTH 12 0
BBX 7 7 2 0
BITMAP
38
6C
EE
E2
FE
7C
38
ENDCHAR
STARTCHAR U+E152
ENCODING 58194
SWIDTH 864 0
DWIDTH 12 0
BBX 8 7 2 0
BITMAP
10
32
F1
F5
F1
32
10
ENDCHAR
STARTCHAR U+E153
ENCODING 58195
SWIDTH 864 0
DWIDTH 12 0
BBX 8 8 2 0
BITMAP
18
3C
7E
FF
FF
7E
18
3C
ENDCHAR
STARTCHAR U+E154
ENCODING 58196
SWIDTH 864 0
DWIDTH 12 0
BBX 8 7 2 0
BITMAP
18
3C
7E
FF
7E
18
3C
ENDCHAR
STARTCHAR U+E155
ENCODING 58197
SWIDTH 864 0
DWIDTH 12 0
BBX 8 7 2 0
BITMAP
18
3C
7E
FF
3C
3C
3C
ENDCHAR
STARTCHAR U+E156
ENCODING 58198
SWIDTH 864 0
DWIDTH 12 0
BBX 8 7 2 0
BITMAP
3C
3C
3C
FF
7E
3C
18
ENDCHAR
STARTCHAR U+E157
ENCODING 58199
SWIDTH 864 0
DWIDTH 12 0
BBX 7 7 2 0
BITMAP
10
18
FC
FE
FC
18
10
ENDCHAR
STARTCHAR U+E158
ENCODING 58200
SWIDTH 864 0
DWIDTH 12 0
BBX 7 7 2 0
BITMAP
10
30
7E
FE
7E
30
10
ENDCHAR
STARTCHAR U+E159
ENCODING 58201
SWIDTH 864 0
DWIDTH 12 0
BBX 8 6 2 0
BITMAP
18
3C
7E
FF
00
FF
ENDCHAR
STARTCHAR U+E15A
ENCODING 58202
SWIDTH 864 0
DWIDTH 12 0
BBX 7 6 2 0
BITMAP
10
38
7C
FE
00
FE
ENDCHAR
STARTCHAR U+E15B
ENCODING 58203
SWIDTH 864 0
DWIDTH 12 0
BBX 8 6 2 0
BITMAP
FE
82
83
83
82
FE
ENDCHAR
STARTCHAR U+E15C
ENCODING 58204
SWIDTH 864 0
DWIDTH 12 0
BBX 8 6 2 0
BITMAP
FE
82
A3
B3
82
FE
ENDCHAR
STARTCHAR U+E15D
ENCODING 58205
SWIDTH 864 0
DWIDTH 12 0
BBX 8 6 2 0
BITMAP
FE
82
B3
BB
82
FE
ENDCHAR
STARTCHAR U+E15E
ENCODING 58206
SWIDTH 864 0
DWIDTH 12 0
BBX 8 6 2 0
BITMAP
FE
82
BB
BB
82
FE
ENDCHAR
STARTCHAR U+E15F
ENCODING 58207
SWIDTH 864 0
DWIDTH 12 0
BBX 5 7 3 0
BITMAP
70
D8
D8
F8
D8
D8
70
ENDCHAR
STARTCHAR U+E160
ENCODING 58208
SWIDTH 864 0
DWIDTH 12 0
BBX 4 7 4 0
BITMAP
60
E0
60
60
60
60
F0
ENDCHAR
STARTCHAR U+E161
ENCODING 58209
SWIDTH 864 0
DWIDTH 12 0
BBX 5 7 3 0
BITMAP
70
D8
18
30
60
C0
F8
ENDCHAR
STARTCHAR U+E162
ENCODING 58210
SWIDTH 864 0
DWIDTH 12 0
BBX 5 7 3 0
BITMAP
70
D8
18
70
18
D8
70
ENDCHAR
STARTCHAR U+E163
ENCODING 58211
SWIDTH 864 0
DWIDTH 12 0
BBX 6 7 3 0
BITMAP
18
38
58
98
FC
18
18
ENDCHAR
STARTCHAR U+E164
ENCODING 58212
SWIDTH 864 0
DWIDTH 12 0
BBX 5 7 3 0
BITMAP
F8
C0
F0
18
18
D8
70
ENDCHAR
STARTCHAR U+E165
ENCODING 58213
SWIDTH 864 0
DWIDTH 12 0
BBX 5 7 3 0
BITMAP
30
60
C0
F0
D8
D8
70
ENDCHAR
STARTCHAR U+E166
ENCODING 58214
SWIDTH 864 0
DWIDTH 12 0
BBX 5 7 3 0
BITMAP
F8
18
30
30
60
60
60
ENDCHAR
STARTCHAR U+E167
ENCODING 58215
SWIDTH 864 0
DWIDTH 12 0
BBX 5 7 3 0
BITMAP
70
D8
D8
70
D8
D8
70
ENDCHAR
STARTCHAR U+E168
ENCODING 58216
SWIDTH 864 0
DWIDTH 12 0
BBX 5 7 3 0
BITMAP
70
D8
D8
78
18
30
60
ENDCHAR
STARTCHAR U+E169
ENCODING 58217
SWIDTH 864 0
DWIDTH 12 0
BBX 6 8 3 0
BITMAP
78
CC
CC
DC
EC
CC
CC
78
ENDCHAR
STARTCHAR U+E16A
ENCODING 58218
SWIDTH 864 0
DWIDTH 12 0
BBX 4 8 4 0
BITMAP
60
E0
60
60
60
60
60
F0
ENDCHAR
STARTCHAR U+E16B
ENCODING 58219
SWIDTH 864 0
DWIDTH 12 0
BBX 6 8 3 0
BITMAP
78
CC
0C
18
30
60
C0
FC
ENDCHAR
STARTCHAR U+E16C
ENCODING 58220
SWIDTH 864 0
DWIDTH 12 0
BBX 6 8 3 0
BITMAP
78
CC
0C
38
0C
0C
CC
78
ENDCHAR
STARTCHAR U+E16D
ENCODING 58221
SWIDTH 864 0
DWIDTH 12 0
BBX 6 8 3 0
BITMAP
18
38
58
98
FC
18
18
18
ENDCHAR
STARTCHAR U+E16E
ENCODING 58222
SWIDTH 864 0
DWIDTH 12 0
BBX 6 8 3 0
BITMAP
FC
C0
C0
F8
0C
0C
CC
78
ENDCHAR
STARTCHAR U+E16F
ENCODING 58223
SWIDTH 864 0
DWIDTH 12 0
BBX 6 8 3 0
BITMAP
38
60
C0
F8
CC
CC
CC
78
ENDCHAR
STARTCHAR U+E170
ENCODING 58224
SWIDTH 864 0
DWIDTH 12 0
BBX 6 8 3 0
BITMAP
FC
0C
0C
18
18
30
30
30
ENDCHAR
STARTCHAR U+E171
ENCODING 58225
SWIDTH 864 0
DWIDTH 12 0
BBX 6 8 3 0
BITMAP
78
CC
CC
78
CC
CC
CC
78
ENDCHAR
STARTCHAR U+E172
ENCODING 58226
SWIDTH 864 0
DWIDTH 12 0
BBX 6 8 3 0
BITMAP
78
CC
CC
CC
7C
0C
18
70
ENDCHAR
STARTCHAR U+E173
ENCODING 58227
SWIDTH 864 0
DWIDTH 12 0
BBX 6 7 3 0
BITMAP
FC
CC
DC
FC
EC
CC
FC
ENDCHAR
STARTCHAR U+E174
ENCODING 58228
SWIDTH 864 0
DWIDTH 12 0
BBX 3 7 4 0
BITMAP
60
E0
60
60
60
60
60
ENDCHAR
STARTCHAR U+E175
ENCODING 58229
SWIDTH 864 0
DWIDTH 12 0
BBX 6 7 3 0
BITMAP
FC
0C
0C
FC
C0
C0
FC
ENDCHAR
STARTCHAR U+E176
ENCODING 58230
SWIDTH 864 0
DWIDTH 12 0
BBX 6 7 3 0
BITMAP
FC
0C
0C
FC
0C
0C
FC
ENDCHAR
STARTCHAR U+E177
ENCODING 58231
SWIDTH 864 0
DWIDTH 12 0
BBX 6 7 3 0
BITMAP
CC
CC
CC
FC
0C
0C
0C
ENDCHAR
STARTCHAR U+E178
ENCODING 58232
SWIDTH 864 0
DWIDTH 12 0
BBX 6 7 3 0
BITMAP
FC
C0
C0
FC
0C
0C
FC
ENDCHAR
STARTCHAR U+E179
ENCODING 58233
SWIDTH 864 0
DWIDTH 12 0
BBX 6 7 3 0
BITMAP
FC
C0
C0
FC
CC
CC
FC
ENDCHAR
STARTCHAR U+E17A
ENCODING 58234
SWIDTH 864 0
DWIDTH 12 0
BBX 6 7 3 0
BITMAP
FC
0C
0C
0C
0C
0C
0C
ENDCHAR
STARTCHAR U+E17B
ENCODING 58235
SWIDTH 864 0
DWIDTH 12 0
BBX 6 7 3 0
BITMAP
FC
CC
CC
78
CC
CC
FC
ENDCHAR
STARTCHAR U+E17C
ENCODING 58236
SWIDTH 864 0
DWIDTH 12 0
BBX 6 7 3 0
BITMAP
FC
CC
CC
FC
0C
0C
0C
ENDCHAR
STARTCHAR U+E17D
ENCODING 58237
SWIDTH 864 0
DWIDTH 12 0
BBX 6 8 3 0
BITMAP
FC
CC
DC
DC
EC
EC
CC
FC
ENDCHAR
STARTCHAR U+E17E
ENCODING 58238
SWIDTH 864 0
DWIDTH 12 0
BBX 4 8 4 0
BITMAP
30
70
F0
30
30
30
30
30
ENDCHAR
STARTCHAR U+E17F
ENCODING 58239
SWIDTH 864 0
DWIDTH 12 0
BBX 6 8 3 0
BITMAP
FC
0C
0C
FC
C0
C0
C0
FC
ENDCHAR
STARTCHAR U+E180
ENCODING 58240
SWIDTH 864 0
DWIDTH 12 0
BBX 6 8 3 0
BITMAP
FC
0C
0C
FC
0C
0C
0C
FC
ENDCHAR
STARTCHAR U+E181
ENCODING 58241
SWIDTH 864 0
DWIDTH 12 0
BBX 6 8 3 0
BITMAP
CC
CC
CC
FC
0C
0C
0C
0C
ENDCHAR
STARTCHAR U+E182
ENCODING 58242
SWIDTH 864 0
DWIDTH 12 0
BBX 6 8 3 0
BITMAP
FC
C0
C0
FC
0C
0C
0C
FC
ENDCHAR
STARTCHAR U+E183
ENCODING 58243
SWIDTH 864 0
DWIDTH 12 0
BBX 6 8 3 0
BITMAP
FC
C0
C0
FC
CC
CC
CC
FC
ENDCHAR
STARTCHAR U+E184
ENCODING 58244
SWIDTH 864 0
DWIDTH 12 0
BBX 6 8 3 0
BITMAP
FC
0C
0C
0C
0C
0C
0C
0C
ENDCHAR
STARTCHAR U+E185
ENCODING 58245
SWIDTH 864 0
DWIDTH 12 0
BBX 6 8 3 0
BITMAP
FC
CC
CC
78
CC
CC
CC
FC
ENDCHAR
STARTCHAR U+E186
ENCODING 58246
SWIDTH 864 0
DWIDTH 12 0
BBX 6 8 3 0
BITMAP
FC
CC
CC
FC
0C
0C
0C
FC
ENDCHAR
STARTCHAR U+E187
ENCODING 58247
SWIDTH 864 0
DWIDTH 12 0
BBX 7 8 3 0
BITMAP
FE
EE
CE
EE
EE
EE
C6
FE
ENDCHAR
STARTCHAR U+E188
ENCODING 58248
SWIDTH 864 0
DWIDTH 12 0
BBX 7 8 3 0
BITMAP
FE
C6
BA
F6
EE
DE
82
FE
ENDCHAR
STARTCHAR U+E189
ENCODING 58249
SWIDTH 864 0
DWIDTH 12 0
BBX 7 8 3 0
BITMAP
FE
C6
BA
E6
FA
BA
C6
FE
ENDCHAR
STARTCHAR U+E18A
ENCODING 58250
SWIDTH 864 0
DWIDTH 12 0
BBX 7 8 3 0
BITMAP
FE
F6
E6
D6
82
F6
F6
FE
ENDCHAR
STARTCHAR U+E18B
ENCODING 58251
SWIDTH 864 0
DWIDTH 12 0
BBX 7 8 3 0
BITMAP
FE
82
BE
86
FA
BA
C6
FE
ENDCHAR
STARTCHAR U+E18C
ENCODING 58252
SWIDTH 864 0
DWIDTH 12 0
BBX 7 8 3 0
BITMAP
FE
C6
BE
86
BA
BA
C6
FE
ENDCHAR
STARTCHAR U+E18D
ENCODING 58253
SWIDTH 864 0
DWIDTH 12 0
BBX 7 8 3 0
BITMAP
FE
82
FA
F6
F6
EE
EE
FE
ENDCHAR
STARTCHAR U+E18E
ENCODING 58254
SWIDTH 864 0
DWIDTH 12 0
BBX 7 8 3 0
BITMAP
FE
C6
BA
C6
BA
BA
C6
FE
ENDCHAR
STARTCHAR U+E18F
ENCODING 58255
SWIDTH 864 0
DWIDTH 12 0
BBX 7 8 3 0
BITMAP
FE
C6
BA
BA
C2
FA
C6
FE
ENDCHAR
STARTCHAR U+E190
ENCODING 58256
SWIDTH 864 0
DWIDTH 12 0
BBX 10 4 1 1
BITMAP
6180
F3C0
F3C0
6180
ENDCHAR
STARTCHAR U+E191
ENCODING 58257
SWIDTH 864 0
DWIDTH 12 0
BBX 4 4 4 1
BITMAP
60
F0
F0
60
ENDCHAR
STARTCHAR U+E192
ENCODING 58258
SWIDTH 864 0
DWIDTH 12 0
BBX 2 5 5 1
BITMAP
C0
C0
00
C0
C0
ENDCHAR
STARTCHAR U+E193
ENCODING 58259
SWIDTH 864 0
DWIDTH 12 0
BBX 2 6 5 0
BITMAP
C0
C0
00
00
C0
C0
ENDCHAR
STARTCHAR U+E194
ENCODING 58260
SWIDTH 864 0
DWIDTH 12 0
BBX 6 5 3 1
BITMAP
CC
CC
00
CC
CC
ENDCHAR
STARTCHAR U+E195
ENCODING 58261
SWIDTH 864 0
DWIDTH 12 0
BBX 6 6 3 0
BITMAP
CC
CC
00
00
CC
CC
ENDCHAR
STARTCHAR U+E196
ENCODING 58262
SWIDTH 864 0
DWIDTH 12 0
BBX 6 8 3 0
BITMAP
CC
CC
00
CC
CC
00
CC
CC
ENDCHAR
STARTCHAR char57751
ENCODING 58263
SWIDTH 864 0
DWIDTH 12 0
BBX 7 8 2 0
BITMAP
0A
0A
AE
E4
E4
44
FC
E4
ENDCHAR
STARTCHAR char57752
ENCODING 58264
SWIDTH 864 0
DWIDTH 12 0
BBX 8 8 2 0
BITMAP
02
8D
75
77
72
22
7E
72
ENDCHAR
STARTCHAR char57753
ENCODING 58265
SWIDTH 864 0
DWIDTH 12 0
BBX 8 8 2 0
BITMAP
05
8D
77
72
72
22
7E
72
ENDCHAR
STARTCHAR char57754
ENCODING 58266
SWIDTH 864 0
DWIDTH 12 0
BBX 8 8 2 0
BITMAP
81
81
FF
5A
DB
FF
42
7E
ENDCHAR
STARTCHAR char57755
ENCODING 58267
SWIDTH 864 0
DWIDTH 12 0
BBX 8 8 2 0
BITMAP
7E
FF
FF
FF
FE
C0
C0
60
ENDCHAR
STARTCHAR char57756
ENCODING 58268
SWIDTH 864 0
DWIDTH 12 0
BBX 8 8 2 0
BITMAP
F8
88
9F
F1
31
3F
24
FF
ENDCHAR
STARTCHAR char57757
ENCODING 58269
SWIDTH 864 0
DWIDTH 12 0
BBX 8 8 2 0
BITMAP
42
24
7E
5A
FF
A5
BD
24
ENDCHAR
STARTCHAR char57758
ENCODING 58270
SWIDTH 864 0
DWIDTH 12 0
BBX 8 8 2 0
BITMAP
FF
FF
18
18
FF
DB
C3
FF
ENDCHAR
STARTCHAR char57759
ENCODING 58271
SWIDTH 864 0
DWIDTH 12 0
BBX 8 8 2 0
BITMAP
7E
FF
FF
FF
7F
06
04
08
ENDCHAR
STARTCHAR char57760
ENCODING 58272
SWIDTH 864 0
DWIDTH 12 0
BBX 8 8 2 0
BITMAP
3C
66
F7
F5
A5
A7
4E
3C
ENDCHAR
STARTCHAR char57761
ENCODING 58273
SWIDTH 864 0
DWIDTH 12 0
BBX 8 8 2 0
BITMAP
7E
FF
81
A1
91
A1
81
7E
ENDCHAR
STARTCHAR char57762
ENCODING 58274
SWIDTH 864 0
DWIDTH 12 0
BBX 8 8 2 0
BITMAP
7E
FF
81
BD
81
BD
81
7E
ENDCHAR
STARTCHAR char57763
ENCODING 58275
SWIDTH 864 0
DWIDTH 12 0
BBX 8 8 2 0
BITMAP
7E
FF
81
A5
81
BD
81
7E
ENDCHAR
STARTCHAR char57764
ENCODING 58276
SWIDTH 864 0
DWIDTH 12 0
BBX 8 8 2 0
BITMAP
F7
F7
F0
07
F7
F0
F7
F7
ENDCHAR
STARTCHAR char57765
ENCODING 58277
SWIDTH 864 0
DWIDTH 12 0
BBX 8 8 2 0
BITMAP
EF
EF
EF
EF
00
DB
DB
DB
ENDCHAR
STARTCHAR char57766
ENCODING 58278
SWIDTH 864 0
DWIDTH 12 0
BBX 8 8 2 0
BITMAP
3F
3F
21
21
21
21
E7
E7
ENDCHAR
STARTCHAR char57767
ENCODING 58279
SWIDTH 864 0
DWIDTH 12 0
BBX 8 8 2 0
BITMAP
7E
FF
FF
FF
FF
7E
0C
18
ENDCHAR
STARTCHAR char57768
ENCODING 58280
SWIDTH 864 0
DWIDTH 12 0
BBX 9 7 1 0
BITMAP
FF80
BE80
DD80
EB80
D580
BE80
FF80
ENDCHAR
STARTCHAR char57769
ENCODING 58281
SWIDTH 864 0
DWIDTH 12 0
BBX 6 12 3 -2
BITMAP
80
C0
E0
F0
F8
FC
FC
F8
F0
E0
C0
80
ENDCHAR
STARTCHAR char57770
ENCODING 58282
SWIDTH 864 0
DWIDTH 12 0
BBX 6 12 3 -2
BITMAP
80
40
20
10
08
04
04
08
10
20
40
80
ENDCHAR
STARTCHAR char57771
ENCODING 58283
SWIDTH 864 0
DWIDTH 12 0
BBX 6 12 3 -2
BITMAP
04
0C
1C
3C
7C
FC
FC
7C
3C
1C
0C
04
ENDCHAR
STARTCHAR char57772
ENCODING 58284
SWIDTH 864 0
DWIDTH 12 0
BBX 6 12 3 -2
BITMAP
04
08
10
20
40
80
80
40
20
10
08
04
ENDCHAR
STARTCHAR char57773
ENCODING 58285
SWIDTH 864 0
DWIDTH 12 0
BBX 5 12 3 -2
BITMAP
80
C0
E0
F0
F8
F8
F8
F8
F8
F8
F8
F8
ENDCHAR
STARTCHAR char57774
ENCODING 58286
SWIDTH 864 0
DWIDTH 12 0
BBX 5 12 3 -2
BITMAP
F8
F8
F8
F8
F8
F8
F8
F8
78
38
18
08
ENDCHAR
STARTCHAR char57775
ENCODING 58287
SWIDTH 864 0
DWIDTH 12 0
BBX 9 7 1 0
BITMAP
7F00
8080
3E00
4100
1C00
0000
0800
ENDCHAR
STARTCHAR char57776
ENCODING 58288
SWIDTH 864 0
DWIDTH 12 0
BBX 6 8 3 0
BITMAP
78
FC
84
B4
B4
B4
84
FC
ENDCHAR
STARTCHAR char57777
ENCODING 58289
SWIDTH 864 0
DWIDTH 12 0
BBX 1 12 5 -2
BITMAP
80
80
80
80
80
80
80
80
80
80
80
80
ENDCHAR
STARTCHAR char57778
ENCODING 58290
SWIDTH 864 0
DWIDTH 12 0
BBX 8 8 2 0
BITMAP
FF
1F
0F
6F
F6
F0
F8
FF
ENDCHAR
STARTCHAR char57779
ENCODING 58291
SWIDTH 864 0
DWIDTH 12 0
BBX 8 8 2 0
BITMAP
0C
14
27
E4
E4
27
14
0C
ENDCHAR
STARTCHAR char57780
ENCODING 58292
SWIDTH 864 0
DWIDTH 12 0
BBX 7 8 2 0
BITMAP
10
10
38
38
6C
44
EE
82
ENDCHAR
STARTCHAR char57781
ENCODING 58293
SWIDTH 864 0
DWIDTH 12 0
BBX 6 8 3 0
BITMAP
30
A8
6C
38
38
6C
A8
30
ENDCHAR
STARTCHAR char57782
ENCODING 58294
SWIDTH 864 0
DWIDTH 12 0
BBX 8 8 2 0
BITMAP
C3
24
18
DB
3C
7E
BD
99
ENDCHAR
STARTCHAR char57783
ENCODING 58295
SWIDTH 864 0
DWIDTH 12 0
BBX 8 8 2 0
BITMAP
C3
24
24
DB
3C
7E
99
42
ENDCHAR
STARTCHAR char57784
ENCODING 58296
SWIDTH 864 0
DWIDTH 12 0
BBX 8 8 2 0
BITMAP
81
C3
BD
FF
99
FF
7E
BD
ENDCHAR
STARTCHAR char57785
ENCODING 58297
SWIDTH 864 0
DWIDTH 12 0
BBX 8 8 2 0
BITMAP
3C
7A
F7
EF
E1
FF
7E
3C
ENDCHAR
STARTCHAR char57786
ENCODING 58298
SWIDTH 864 0
DWIDTH 12 0
BBX 8 8 2 0
BITMAP
81
DE
62
72
3A
7C
EE
C3
ENDCHAR
STARTCHAR char57787
ENCODING 58299
SWIDTH 864 0
DWIDTH 12 0
BBX 8 8 2 0
BITMAP
FF
81
81
81
BD
AD
AD
7F
ENDCHAR
STARTCHAR char57788
ENCODING 58300
SWIDTH 864 0
DWIDTH 12 0
BBX 8 8 2 0
BITMAP
3C
42
81
81
81
81
42
3C
ENDCHAR
STARTCHAR char57789
ENCODING 58301
SWIDTH 864 0
DWIDTH 12 0
BBX 8 6 2 0
BITMAP
D8
40
40
21
9F
40
ENDCHAR
STARTCHAR char57790
ENCODING 58302
SWIDTH 864 0
DWIDTH 12 0
BBX 8 6 2 0
BITMAP
1B
02
02
84
F9
02
ENDCHAR
STARTCHAR char57791
ENCODING 58303
SWIDTH 864 0
DWIDTH 12 0
BBX 8 8 2 0
BITMAP
81
C3
BD
FF
99
DB
7E
18
ENDCHAR
STARTCHAR char57792
ENCODING 58304
SWIDTH 864 0
DWIDTH 12 0
BBX 8 8 2 0
BITMAP
62
99
3D
66
66
BC
99
46
ENDCHAR
STARTCHAR char57793
ENCODING 58305
SWIDTH 864 0
DWIDTH 12 0
BBX 8 8 2 0
BITMAP
8F
DA
BC
E6
67
3D
5B
F1
ENDCHAR
STARTCHAR char57794
ENCODING 58306
SWIDTH 864 0
DWIDTH 12 0
BBX 8 8 2 0
BITMAP
3C
7E
FF
FF
FF
FF
7E
3C
ENDCHAR
STARTCHAR char57795
ENCODING 58307
SWIDTH 864 0
DWIDTH 12 0
BBX 8 8 2 0
BITMAP
3C
72
F1
F1
F1
F1
72
3C
ENDCHAR
STARTCHAR char57796
ENCODING 58308
SWIDTH 864 0
DWIDTH 12 0
BBX 8 8 2 0
BITMAP
3C
66
FF
E7
E7
E7
66
3C
ENDCHAR
STARTCHAR char57797
ENCODING 58309
SWIDTH 864 0
DWIDTH 12 0
BBX 8 8 2 0
BITMAP
FF
E7
FF
E7
E7
E7
E7
FF
ENDCHAR
STARTCHAR char57798
ENCODING 58310
SWIDTH 864 0
DWIDTH 12 0
BBX 7 8 2 0
BITMAP
EE
EE
EE
82
FE
FE
FE
7C
ENDCHAR
STARTCHAR char57799
ENCODING 58311
SWIDTH 864 0
DWIDTH 12 0
BBX 8 8 2 0
BITMAP
C0
F0
78
7C
3C
1A
05
03
ENDCHAR
STARTCHAR char57800
ENCODING 58312
SWIDTH 864 0
DWIDTH 12 0
BBX 8 8 2 0
BITMAP
3C
42
81
81
FF
3C
3C
3C
ENDCHAR
STARTCHAR char57801
ENCODING 58313
SWIDTH 864 0
DWIDTH 12 0
BBX 8 8 2 0
BITMAP
32
C9
C9
E9
E9
C9
C9
32
ENDCHAR
STARTCHAR char57802
ENCODING 58314
SWIDTH 864 0
DWIDTH 12 0
BBX 8 8 2 0
BITMAP
70
C8
84
82
41
21
13
0E
ENDCHAR
STARTCHAR char57803
ENCODING 58315
SWIDTH 864 0
DWIDTH 12 0
BBX 8 8 2 0
BITMAP
0E
11
23
47
7E
4C
90
E0
ENDCHAR
STARTCHAR char57804
ENCODING 58316
SWIDTH 864 0
DWIDTH 12 0
BBX 8 8 2 0
BITMAP
02
09
25
95
95
25
09
02
ENDCHAR
STARTCHAR char57805
ENCODING 58317
SWIDTH 864 0
DWIDTH 12 0
BBX 9 9 1 -1
BITMAP
5500
5500
FF80
8080
D580
8080
D580
8080
FF80
ENDCHAR
STARTCHAR code
ENCODING 58318
SWIDTH 864 0
DWIDTH 12 0
BBX 8 9 2 -1
BITMAP
40
60
30
30
18
3C
6C
66
C3
ENDCHAR
STARTCHAR char57807
ENCODING 58319
SWIDTH 864 0
DWIDTH 12 0
BBX 7 9 2 -1
BITMAP
F8
88
8E
82
82
82
82
82
FE
ENDCHAR
STARTCHAR images
ENCODING 58320
SWIDTH 864 0
DWIDTH 12 0
BBX 12 7 0 0
BITMAP
FFF0
8010
8050
A2F0
F710
FFB0
FFF0
ENDCHAR
STARTCHAR media
ENCODING 58321
SWIDTH 864 0
DWIDTH 12 0
BBX 11 9 0 -1
BITMAP
FFE0
8020
8820
8C20
8E20
8C20
8820
8020
FFE0
ENDCHAR
STARTCHAR char57810
ENCODING 58322
SWIDTH 864 0
DWIDTH 12 0
BBX 11 7 0 0
BITMAP
FFE0
8820
8C20
8E20
8C20
8820
FFE0
ENDCHAR
STARTCHAR git
ENCODING 58323
SWIDTH 864 0
DWIDTH 12 0
BBX 12 10 0 -1
BITMAP
6060
7FE0
7FE0
FFF0
FFF0
C030
D9B0
D9B0
6060
1F80
ENDCHAR
STARTCHAR punk_small
ENCODING 58324
SWIDTH 864 0
DWIDTH 12 0
BBX 11 10 0 -1
BITMAP
0E00
1F00
3C80
4040
DB60
C060
FB60
5B40
1B00
0E00
ENDCHAR
STARTCHAR char57813
ENCODING 58325
SWIDTH 864 0
DWIDTH 12 0
BBX 9 10 1 -1
BITMAP
FC00
F600
F700
F080
FF80
C180
FF80
C180
FF80
FF80
ENDCHAR
STARTCHAR folder
ENCODING 58326
SWIDTH 864 0
DWIDTH 12 0
BBX 10 9 1 -1
BITMAP
F000
FFC0
8FC0
8040
8040
8040
8040
8040
FFC0
ENDCHAR
STARTCHAR monitor
ENCODING 58327
SWIDTH 864 0
DWIDTH 12 0
BBX 10 9 1 -1
BITMAP
FFC0
8040
8040
8040
8040
FFC0
FFC0
1E00
1E00
ENDCHAR
STARTCHAR laptop
ENCODING 58328
SWIDTH 864 0
DWIDTH 12 0
BBX 12 9 0 -1
BITMAP
7FE0
4020
4020
4020
4020
3FC0
4020
F9F0
FFF0
ENDCHAR
STARTCHAR folder_open
ENCODING 58329
SWIDTH 864 0
DWIDTH 12 0
BBX 11 8 0 0
BITMAP
F000
9F00
8080
9FC0
A020
C040
80C0
FF80
ENDCHAR
STARTCHAR image
ENCODING 58330
SWIDTH 864 0
DWIDTH 12 0
BBX 12 9 0 -1
BITMAP
FFF0
A010
F090
A390
97D0
BFD0
FFF0
8010
FFF0
ENDCHAR
STARTCHAR tag
ENCODING 58331
SWIDTH 864 0
DWIDTH 12 0
BBX 8 8 2 0
BITMAP
F0
98
9C
FE
7F
3F
1E
0C
ENDCHAR
STARTCHAR char57820
ENCODING 58332
SWIDTH 864 0
DWIDTH 12 0
BBX 11 9 0 -1
BITMAP
F600
9B00
9D80
FEC0
7F60
3F60
1EC0
0D80
0100
ENDCHAR
STARTCHAR film_large
ENCODING 58333
SWIDTH 864 0
DWIDTH 12 0
BBX 12 9 0 -1
BITMAP
FFF0
A050
E070
A050
FFF0
A050
E070
A050
FFF0
ENDCHAR
STARTCHAR barcode
ENCODING 58334
SWIDTH 864 0
DWIDTH 12 0
BBX 12 9 0 -1
BITMAP
FFF0
B550
B550
B550
B550
B550
B550
B550
FFF0
ENDCHAR
STARTCHAR book
ENCODING 58335
SWIDTH 864 0
DWIDTH 12 0
BBX 9 9 1 -1
BITMAP
3F80
3F80
6180
7F80
C380
FF80
FF00
8100
7E00
ENDCHAR
STARTCHAR char57824
ENCODING 58336
SWIDTH 864 0
DWIDTH 12 0
BBX 10 8 1 0
BITMAP
F000
FFC0
FFC0
FFC0
FFC0
FFC0
FFC0
FFC0
ENDCHAR
STARTCHAR char57825
ENCODING 58337
SWIDTH 864 0
DWIDTH 12 0
BBX 11 8 0 0
BITMAP
F000
FF00
FF80
E080
DFE0
BFC0
7F80
FF00
ENDCHAR
STARTCHAR char57826
ENCODING 58338
SWIDTH 864 0
DWIDTH 12 0
BBX 7 9 2 -1
BITMAP
FE
FE
FE
FE
FE
FE
EE
C6
82
ENDCHAR
STARTCHAR char57827
ENCODING 58339
SWIDTH 864 0
DWIDTH 12 0
BBX 7 9 2 -1
BITMAP
FE
82
82
82
82
92
AA
C6
82
ENDCHAR
STARTCHAR drop
ENCODING 58340
SWIDTH 864 0
DWIDTH 12 0
BBX 7 10 2 -1
BITMAP
10
38
7C
7C
FE
DE
DE
DE
7C
38
ENDCHAR
STARTCHAR pen
ENCODING 58341
SWIDTH 864 0
DWIDTH 12 0
BBX 11 11 0 -2
BITMAP
00C0
01E0
03E0
05C0
0E80
1F00
3E00
7C00
B800
D000
E000
ENDCHAR
STARTCHAR char57830
ENCODING 58342
SWIDTH 864 0
DWIDTH 12 0
BBX 9 9 1 -1
BITMAP
3E00
6300
FF80
4100
5500
5500
5500
4100
7F00
ENDCHAR
STARTCHAR camera
ENCODING 58343
SWIDTH 864 0
DWIDTH 12 0
BBX 10 8 1 0
BITMAP
FFC0
9040
FFC0
B3C0
EDC0
EDC0
F3C0
FFC0
ENDCHAR
STARTCHAR punk_large
ENCODING 58344
SWIDTH 864 0
DWIDTH 12 0
BBX 12 11 0 -2
BITMAP
0F00
1F80
3E40
4020
D9B0
C030
F9B0
D9B0
59A0
1980
0F00
ENDCHAR
STARTCHAR reddit
ENCODING 58345
SWIDTH 864 0
DWIDTH 12 0
BBX 12 12 0 -2
BITMAP
03E0
02E0
0600
79E0
A050
C030
9990
9990
8010
4F20
30C0
0F00
ENDCHAR
STARTCHAR hackernews
ENCODING 58346
SWIDTH 864 0
DWIDTH 12 0
BBX 8 8 2 0
BITMAP
7E
3C
99
C3
E7
E7
E7
E7
ENDCHAR
STARTCHAR youtube
ENCODING 58347
SWIDTH 864 0
DWIDTH 12 0
BBX 10 8 1 0
BITMAP
7F80
FFC0
F7C0
F3C0
F3C0
F7C0
FFC0
7F80
ENDCHAR
STARTCHAR char57836
ENCODING 58348
SWIDTH 864 0
DWIDTH 12 0
BBX 11 8 0 0
BITMAP
8000
C000
6000
3000
3000
6000
C000
87E0
ENDCHAR
STARTCHAR char57837
ENCODING 58349
SWIDTH 864 0
DWIDTH 12 0
BBX 9 10 1 -1
BITMAP
FC00
8600
8500
8780
8080
BE80
8080
BE80
8080
FF80
ENDCHAR
STARTCHAR find
ENCODING 58350
SWIDTH 864 0
DWIDTH 12 0
BBX 10 10 1 -1
BITMAP
3800
4400
8200
8200
8200
4400
3A00
0100
0080
0040
ENDCHAR
STARTCHAR terminal_big
ENCODING 58351
SWIDTH 864 0
DWIDTH 12 0
BBX 10 8 1 0
BITMAP
FFC0
FFC0
8040
A040
9040
A740
8040
FFC0
ENDCHAR
STARTCHAR char57840
ENCODING 58352
SWIDTH 864 0
DWIDTH 12 0
BBX 12 10 0 -1
BITMAP
0660
0F60
19E0
30E0
6060
C030
CF30
4920
4920
79E0
ENDCHAR
STARTCHAR char57841
ENCODING 58353
SWIDTH 864 0
DWIDTH 12 0
BBX 10 7 1 0
BITMAP
FFC0
0000
FFC0
0000
FFC0
0000
FFC0
ENDCHAR
STARTCHAR char57842
ENCODING 58354
SWIDTH 864 0
DWIDTH 12 0
BBX 10 7 1 0
BITMAP
BFC0
0000
BFC0
0000
BFC0
0000
BFC0
ENDCHAR
STARTCHAR char57843
ENCODING 58355
SWIDTH 864 0
DWIDTH 12 0
BBX 10 7 1 0
BITMAP
FF00
0000
FF80
0000
FF00
0000
FFC0
ENDCHAR
STARTCHAR char57844
ENCODING 58356
SWIDTH 864 0
DWIDTH 12 0
BBX 10 7 1 0
BITMAP
3FC0
0000
7FC0
0000
3FC0
0000
FFC0
ENDCHAR
STARTCHAR char57845
ENCODING 58357
SWIDTH 864 0
DWIDTH 12 0
BBX 10 7 1 0
BITMAP
FE40
FEC0
FFC0
FFC0
FFC0
FEC0
FE40
ENDCHAR
STARTCHAR char57846
ENCODING 58358
SWIDTH 864 0
DWIDTH 12 0
BBX 7 12 2 -2
BITMAP
7C
7C
6C
6C
7C
7C
FE
FE
10
10
10
10
ENDCHAR
STARTCHAR char57847
ENCODING 58359
SWIDTH 864 0
DWIDTH 12 0
BBX 9 12 1 -2
BITMAP
FF80
F880
F880
F880
F880
F880
F880
F980
7B00
3E00
1C00
0800
ENDCHAR
STARTCHAR char57848
ENCODING 58360
SWIDTH 864 0
DWIDTH 12 0
BBX 6 6 3 0
BITMAP
04
0C
1C
3C
7C
FC
ENDCHAR
STARTCHAR char57849
ENCODING 58361
SWIDTH 864 0
DWIDTH 12 0
BBX 6 6 3 0
BITMAP
80
C0
E0
F0
F8
FC
ENDCHAR
STARTCHAR char57850
ENCODING 58362
SWIDTH 864 0
DWIDTH 12 0
BBX 6 6 3 0
BITMAP
FC
F8
F0
E0
C0
80
ENDCHAR
STARTCHAR char57851
ENCODING 58363
SWIDTH 864 0
DWIDTH 12 0
BBX 6 6 3 0
BITMAP
FC
7C
3C
1C
0C
04
ENDCHAR
STARTCHAR char57852
ENCODING 58364
SWIDTH 864 0
DWIDTH 12 0
BBX 5 7 3 0
BITMAP
50
50
D8
50
D8
50
50
ENDCHAR
STARTCHAR char57853
ENCODING 58365
SWIDTH 864 0
DWIDTH 12 0
BBX 7 10 2 -1
BITMAP
38
FE
82
82
82
82
82
82
82
FE
ENDCHAR
STARTCHAR char57854
ENCODING 58366
SWIDTH 864 0
DWIDTH 12 0
BBX 7 10 2 -1
BITMAP
38
FE
82
82
82
BA
BA
BA
82
FE
ENDCHAR
STARTCHAR char57855
ENCODING 58367
SWIDTH 864 0
DWIDTH 12 0
BBX 7 10 2 -1
BITMAP
38
FE
82
BA
BA
BA
BA
BA
82
FE
ENDCHAR
STARTCHAR char57856
ENCODING 58368
SWIDTH 864 0
DWIDTH 12 0
BBX 7 10 2 -1
BITMAP
38
FE
D6
D6
82
82
C6
EE
EE
FE
ENDCHAR
STARTCHAR char57857
ENCODING 58369
SWIDTH 864 0
DWIDTH 12 0
BBX 7 10 2 -1
BITMAP
38
FE
F6
EE
CE
82
E6
EE
DE
FE
ENDCHAR
STARTCHAR char57858
ENCODING 58370
SWIDTH 864 0
DWIDTH 12 0
BBX 7 9 2 -1
BITMAP
08
98
58
A8
D0
E8
34
1A
08
ENDCHAR
STARTCHAR char57859
ENCODING 58371
SWIDTH 864 0
DWIDTH 12 0
BBX 8 9 2 -1
BITMAP
09
1A
38
F8
FB
F8
38
1A
09
ENDCHAR
STARTCHAR char57860
ENCODING 58372
SWIDTH 864 0
DWIDTH 12 0
BBX 5 9 3 -1
BITMAP
08
18
38
F8
F8
F8
38
18
08
ENDCHAR
STARTCHAR char57861
ENCODING 58373
SWIDTH 864 0
DWIDTH 12 0
BBX 7 7 2 0
BITMAP
3E
3E
22
3E
22
EE
EE
ENDCHAR
STARTCHAR char57862
ENCODING 58374
SWIDTH 864 0
DWIDTH 12 0
BBX 6 5 3 1
BITMAP
90
D8
FC
D8
90
ENDCHAR
STARTCHAR char57863
ENCODING 58375
SWIDTH 864 0
DWIDTH 12 0
BBX 6 5 3 1
BITMAP
24
6C
FC
6C
24
ENDCHAR
STARTCHAR char57864
ENCODING 58376
SWIDTH 864 0
DWIDTH 12 0
BBX 5 6 3 0
BITMAP
20
70
F8
20
70
F8
ENDCHAR
STARTCHAR char57865
ENCODING 58377
SWIDTH 864 0
DWIDTH 12 0
BBX 5 6 3 0
BITMAP
F8
70
20
F8
70
20
ENDCHAR
STARTCHAR char57866
ENCODING 58378
SWIDTH 864 0
DWIDTH 12 0
BBX 7 5 2 1
BITMAP
92
DA
FE
DA
92
ENDCHAR
STARTCHAR char57867
ENCODING 58379
SWIDTH 864 0
DWIDTH 12 0
BBX 7 5 2 1
BITMAP
92
B6
FE
B6
92
ENDCHAR
STARTCHAR char57868
ENCODING 58380
SWIDTH 864 0
DWIDTH 12 0
BBX 6 5 3 1
BITMAP
94
D4
F4
D4
94
ENDCHAR
STARTCHAR berry_percent
ENCODING 58381
SWIDTH 864 0
DWIDTH 12 0
BBX 5 7 3 0
BITMAP
48
A8
50
20
50
A8
90
ENDCHAR
STARTCHAR char57870
ENCODING 58382
SWIDTH 864 0
DWIDTH 12 0
BBX 8 6 2 0
BITMAP
1C
3F
FC
FC
3F
1C
ENDCHAR
STARTCHAR char57871
ENCODING 58383
SWIDTH 864 0
DWIDTH 12 0
BBX 11 8 0 0
BITMAP
0060
1C60
3F60
FC60
FC60
3F00
1C60
0060
ENDCHAR
STARTCHAR char57872
ENCODING 58384
SWIDTH 864 0
DWIDTH 12 0
BBX 7 11 2 -1
BITMAP
38
FE
82
82
82
82
82
82
82
82
FE
ENDCHAR
STARTCHAR char57873
ENCODING 58385
SWIDTH 864 0
DWIDTH 12 0
BBX 11 11 0 -1
BITMAP
3800
FE00
8260
8260
8260
8260
8260
8200
8260
8260
FE00
ENDCHAR
STARTCHAR char57874
ENCODING 58386
SWIDTH 864 0
DWIDTH 12 0
BBX 11 11 0 -1
BITMAP
3800
FE00
8260
8260
8260
8260
8260
A200
B260
8260
FE00
ENDCHAR
STARTCHAR char57875
ENCODING 58387
SWIDTH 864 0
DWIDTH 12 0
BBX 7 11 2 -1
BITMAP
38
FE
82
82
A2
B2
9A
AA
B2
82
FE
ENDCHAR
STARTCHAR char57876
ENCODING 58388
SWIDTH 864 0
DWIDTH 12 0
BBX 7 11 2 -1
BITMAP
38
FE
82
9A
AA
B2
9A
AA
B2
82
FE
ENDCHAR
STARTCHAR char57877
ENCODING 58389
SWIDTH 864 0
DWIDTH 12 0
BBX 6 10 3 -1
BITMAP
08
10
30
60
7C
F8
18
30
20
40
ENDCHAR
STARTCHAR char57878
ENCODING 58390
SWIDTH 864 0
DWIDTH 12 0
BBX 5 9 3 -1
BITMAP
08
10
20
60
F8
30
20
40
80
ENDCHAR
STARTCHAR char57879
ENCODING 58391
SWIDTH 864 0
DWIDTH 12 0
BBX 8 5 2 0
BITMAP
1B
0E
C4
CE
1B
ENDCHAR
STARTCHAR char57880
ENCODING 58392
SWIDTH 864 0
DWIDTH 12 0
BBX 6 4 3 0
BITMAP
78
84
30
30
ENDCHAR
STARTCHAR char57881
ENCODING 58393
SWIDTH 864 0
DWIDTH 12 0
BBX 8 6 2 0
BITMAP
7E
81
3C
42
18
18
ENDCHAR
STARTCHAR char57882
ENCODING 58394
SWIDTH 864 0
DWIDTH 12 0
BBX 10 8 1 0
BITMAP
7F80
8040
3F00
4080
1E00
2100
0C00
0C00
ENDCHAR
STARTCHAR char57883
ENCODING 58395
SWIDTH 864 0
DWIDTH 12 0
BBX 10 8 1 0
BITMAP
8000
8000
0000
86C0
8380
0100
8380
86C0
ENDCHAR
STARTCHAR char57884
ENCODING 58396
SWIDTH 864 0
DWIDTH 12 0
BBX 3 8 1 0
BITMAP
80
80
00
80
80
00
E0
E0
ENDCHAR
STARTCHAR char57885
ENCODING 58397
SWIDTH 864 0
DWIDTH 12 0
BBX 6 8 1 0
BITMAP
80
80
00
FC
FC
00
E0
E0
ENDCHAR
STARTCHAR char57886
ENCODING 58398
SWIDTH 864 0
DWIDTH 12 0
BBX 9 8 1 0
BITMAP
FF80
FF80
0000
FC00
FC00
0000
E000
E000
ENDCHAR
STARTCHAR char57887
ENCODING 58399
SWIDTH 864 0
DWIDTH 12 0
BBX 8 1 2 0
BITMAP
DB
ENDCHAR
STARTCHAR char57888
ENCODING 58400
SWIDTH 864 0
DWIDTH 12 0
BBX 8 3 2 0
BITMAP
C0
C0
DB
ENDCHAR
STARTCHAR char57889
ENCODING 58401
SWIDTH 864 0
DWIDTH 12 0
BBX 8 6 2 0
BITMAP
18
18
18
D8
D8
DB
ENDCHAR
STARTCHAR char57890
ENCODING 58402
SWIDTH 864 0
DWIDTH 12 0
BBX 8 9 2 -1
BITMAP
03
03
03
1B
1B
1B
DB
DB
DB
ENDCHAR
STARTCHAR char57891
ENCODING 58403
SWIDTH 864 0
DWIDTH 12 0
BBX 9 9 1 -1
BITMAP
7F00
8080
9080
9080
AA80
8480
8480
8080
7F00
ENDCHAR
STARTCHAR char57892
ENCODING 58404
SWIDTH 864 0
DWIDTH 12 0
BBX 9 9 1 -1
BITMAP
7F00
EF80
EF80
EF80
9480
FB80
FB80
FB80
7F00
ENDCHAR
STARTCHAR char57893
ENCODING 58405
SWIDTH 864 0
DWIDTH 12 0
BBX 9 9 1 -1
BITMAP
4100
FF80
FF80
8080
AA80
8080
AA80
8080
FF80
ENDCHAR
STARTCHAR char57894
ENCODING 58406
SWIDTH 864 0
DWIDTH 12 0
BBX 9 9 1 -1
BITMAP
4100
FF80
FF80
8080
8080
8080
8080
8080
FF80
ENDCHAR
STARTCHAR char57895
ENCODING 58407
SWIDTH 864 0
DWIDTH 12 0
BBX 12 9 0 -1
BITMAP
4100
FFB0
FFB0
80B0
80B0
80B0
8080
80B0
FFB0
ENDCHAR
STARTCHAR char57896
ENCODING 58408
SWIDTH 864 0
DWIDTH 12 0
BBX 9 7 1 0
BITMAP
FF80
C180
A280
9480
AA80
C180
FF80
ENDCHAR
STARTCHAR char57897
ENCODING 58409
SWIDTH 864 0
DWIDTH 12 0
BBX 9 7 1 0
BITMAP
FF80
BE80
DD80
EB80
D580
BE80
FF80
ENDCHAR
STARTCHAR art
ENCODING 58410
SWIDTH 864 0
DWIDTH 12 0
BBX 9 9 1 -1
BITMAP
0100
0380
0700
0E00
1C00
3800
7000
6000
8000
ENDCHAR
STARTCHAR w_cloud
ENCODING 58411
SWIDTH 864 0
DWIDTH 12 0
BBX 7 5 2 2
BITMAP
38
7C
FE
FE
6C
ENDCHAR
STARTCHAR w_lightning
ENCODING 58412
SWIDTH 864 0
DWIDTH 12 0
BBX 7 8 2 0
BITMAP
38
7C
FE
FE
6C
10
30
20
ENDCHAR
STARTCHAR w_rain
ENCODING 58413
SWIDTH 864 0
DWIDTH 12 0
BBX 7 8 2 0
BITMAP
38
7C
FE
FE
6C
00
54
A8
ENDCHAR
STARTCHAR char57902
ENCODING 58414
SWIDTH 864 0
DWIDTH 12 0
BBX 7 9 2 -1
BITMAP
38
7C
FE
FE
6C
00
90
28
12
ENDCHAR
STARTCHAR w_hail
ENCODING 58415
SWIDTH 864 0
DWIDTH 12 0
BBX 7 9 2 -1
BITMAP
38
7C
FE
FE
6C
10
44
10
44
ENDCHAR
STARTCHAR w_morerainidunno
ENCODING 58416
SWIDTH 864 0
DWIDTH 12 0
BBX 7 8 2 -1
BITMAP
38
7C
FE
FE
6C
00
44
10
ENDCHAR
STARTCHAR char57905
ENCODING 58417
SWIDTH 864 0
DWIDTH 12 0
BBX 8 7 2 0
BITMAP
0A
2C
73
E2
F3
FC
5A
ENDCHAR
STARTCHAR w_partlymoon
ENCODING 58418
SWIDTH 864 0
DWIDTH 12 0
BBX 8 8 2 0
BITMAP
08
10
10
59
EE
F0
FC
58
ENDCHAR
STARTCHAR w_moon
ENCODING 58419
SWIDTH 864 0
DWIDTH 12 0
BBX 5 5 3 1
BITMAP
40
80
80
C8
70
ENDCHAR
STARTCHAR w_sun
ENCODING 58420
SWIDTH 864 0
DWIDTH 12 0
BBX 7 7 2 0
BITMAP
92
7C
44
44
44
7C
92
ENDCHAR
STARTCHAR w_wind
ENCODING 58421
SWIDTH 864 0
DWIDTH 12 0
BBX 8 7 2 0
BITMAP
18
F8
03
FF
00
FC
0C
ENDCHAR
STARTCHAR char57910
ENCODING 58422
SWIDTH 864 0
DWIDTH 12 0
BBX 10 7 1 0
BITMAP
FF80
8080
80C0
80C0
80C0
8080
FF80
ENDCHAR
STARTCHAR char57911
ENCODING 58423
SWIDTH 864 0
DWIDTH 12 0
BBX 10 7 1 0
BITMAP
FF80
8080
B8C0
B8C0
B8C0
8080
FF80
ENDCHAR
STARTCHAR char57912
ENCODING 58424
SWIDTH 864 0
DWIDTH 12 0
BBX 10 7 1 0
BITMAP
FF80
8080
BEC0
BEC0
BEC0
8080
FF80
ENDCHAR
STARTCHAR char57913
ENCODING 58425
SWIDTH 864 0
DWIDTH 12 0
BBX 10 7 1 0
BITMAP
FF80
F380
E0C0
83C0
E0C0
F380
FF80
ENDCHAR
STARTCHAR char57914
ENCODING 58426
SWIDTH 864 0
DWIDTH 12 0
BBX 10 7 1 0
BITMAP
FF80
F780
E6C0
C1C0
B3C0
F780
FF80
ENDCHAR
STARTCHAR char57915
ENCODING 58427
SWIDTH 864 0
DWIDTH 12 0
BBX 10 7 1 0
BITMAP
7FC0
4040
C040
C040
C040
4040
7FC0
ENDCHAR
STARTCHAR char57916
ENCODING 58428
SWIDTH 864 0
DWIDTH 12 0
BBX 10 7 1 0
BITMAP
7FC0
4040
C740
C740
C740
4040
7FC0
ENDCHAR
STARTCHAR char57917
ENCODING 58429
SWIDTH 864 0
DWIDTH 12 0
BBX 10 7 1 0
BITMAP
7FC0
4040
DF40
DF40
DF40
4040
7FC0
ENDCHAR
STARTCHAR char57918
ENCODING 58430
SWIDTH 864 0
DWIDTH 12 0
BBX 10 7 1 0
BITMAP
7FC0
73C0
C1C0
F040
C1C0
73C0
7FC0
ENDCHAR
STARTCHAR char57919
ENCODING 58431
SWIDTH 864 0
DWIDTH 12 0
BBX 10 7 1 0
BITMAP
7FC0
7BC0
D9C0
E0C0
F340
7BC0
7FC0
ENDCHAR
STARTCHAR char57920
ENCODING 58432
SWIDTH 864 0
DWIDTH 12 0
BBX 12 5 0 0
BITMAP
1000
1000
F5F0
9550
FF50
ENDCHAR
STARTCHAR char57921
ENCODING 58433
SWIDTH 864 0
DWIDTH 12 0
BBX 12 7 0 0
BITMAP
1000
1000
1000
F5F0
9550
9550
FF50
ENDCHAR
STARTCHAR char57922
ENCODING 58434
SWIDTH 864 0
DWIDTH 12 0
BBX 12 7 0 0
BITMAP
FFE0
8030
8010
8010
8010
8030
FFE0
ENDCHAR
STARTCHAR char57923
ENCODING 58435
SWIDTH 864 0
DWIDTH 12 0
BBX 12 7 0 0
BITMAP
FFE0
8030
C010
C010
C010
8030
FFE0
ENDCHAR
STARTCHAR char57924
ENCODING 58436
SWIDTH 864 0
DWIDTH 12 0
BBX 12 7 0 0
BITMAP
FFE0
8030
E010
E010
E010
8030
FFE0
ENDCHAR
STARTCHAR char57925
ENCODING 58437
SWIDTH 864 0
DWIDTH 12 0
BBX 12 7 0 0
BITMAP
FFE0
8030
F010
F010
F010
8030
FFE0
ENDCHAR
STARTCHAR char57926
ENCODING 58438
SWIDTH 864 0
DWIDTH 12 0
BBX 12 7 0 0
BITMAP
FFE0
8030
F810
F810
F810
8030
FFE0
ENDCHAR
STARTCHAR char57927
ENCODING 58439
SWIDTH 864 0
DWIDTH 12 0
BBX 12 7 0 0
BITMAP
FFE0
8030
FC10
FC10
FC10
8030
FFE0
ENDCHAR
STARTCHAR char57928
ENCODING 58440
SWIDTH 864 0
DWIDTH 12 0
BBX 12 7 0 0
BITMAP
FFE0
8030
FE10
FE10
FE10
8030
FFE0
ENDCHAR
STARTCHAR char57929
ENCODING 58441
SWIDTH 864 0
DWIDTH 12 0
BBX 12 7 0 0
BITMAP
FFE0
8030
FF10
FF10
FF10
8030
FFE0
ENDCHAR
STARTCHAR char57930
ENCODING 58442
SWIDTH 864 0
DWIDTH 12 0
BBX 12 7 0 0
BITMAP
FFE0
8030
FF90
FF90
FF90
8030
FFE0
ENDCHAR
STARTCHAR char57931
ENCODING 58443
SWIDTH 864 0
DWIDTH 12 0
BBX 12 7 0 0
BITMAP
FFE0
8030
FFD0
FFD0
FFD0
8030
FFE0
ENDCHAR
STARTCHAR char57932
ENCODING 58444
SWIDTH 864 0
DWIDTH 12 0
BBX 12 7 0 0
BITMAP
FFE0
C030
C010
C010
C010
C030
FFE0
ENDCHAR
STARTCHAR char57933
ENCODING 58445
SWIDTH 864 0
DWIDTH 12 0
BBX 12 7 0 0
BITMAP
FFE0
E030
E010
E010
E010
E030
FFE0
ENDCHAR
STARTCHAR char57934
ENCODING 58446
SWIDTH 864 0
DWIDTH 12 0
BBX 12 7 0 0
BITMAP
FFE0
F030
F010
F010
F010
F030
FFE0
ENDCHAR
STARTCHAR char57935
ENCODING 58447
SWIDTH 864 0
DWIDTH 12 0
BBX 12 7 0 0
BITMAP
FFE0
F830
F810
F810
F810
F830
FFE0
ENDCHAR
STARTCHAR char57936
ENCODING 58448
SWIDTH 864 0
DWIDTH 12 0
BBX 12 7 0 0
BITMAP
FFE0
FC30
FC10
FC10
FC10
FC30
FFE0
ENDCHAR
STARTCHAR char57937
ENCODING 58449
SWIDTH 864 0
DWIDTH 12 0
BBX 12 7 0 0
BITMAP
FFE0
FE30
FE10
FE10
FE10
FE30
FFE0
ENDCHAR
STARTCHAR char57938
ENCODING 58450
SWIDTH 864 0
DWIDTH 12 0
BBX 12 7 0 0
BITMAP
FFE0
FF30
FF10
FF10
FF10
FF30
FFE0
ENDCHAR
STARTCHAR char57939
ENCODING 58451
SWIDTH 864 0
DWIDTH 12 0
BBX 12 7 0 0
BITMAP
FFE0
FFB0
FF90
FF90
FF90
FFB0
FFE0
ENDCHAR
STARTCHAR char57940
ENCODING 58452
SWIDTH 864 0
DWIDTH 12 0
BBX 12 7 0 0
BITMAP
FFE0
FFF0
FFD0
FFD0
FFD0
FFF0
FFE0
ENDCHAR
STARTCHAR layout_full
ENCODING 58453
SWIDTH 864 0
DWIDTH 12 0
BBX 11 7 0 0
BITMAP
FFE0
8020
8020
8020
8020
8020
FFE0
ENDCHAR
STARTCHAR layout_mirror
ENCODING 58454
SWIDTH 864 0
DWIDTH 12 0
BBX 11 7 0 0
BITMAP
FFE0
8020
8020
FFE0
8420
8420
FFE0
ENDCHAR
STARTCHAR layout_tall
ENCODING 58455
SWIDTH 864 0
DWIDTH 12 0
BBX 11 7 0 0
BITMAP
FFE0
8420
8420
87E0
8420
8420
FFE0
ENDCHAR
STARTCHAR wifi_1
ENCODING 58456
SWIDTH 864 0
DWIDTH 12 0
BBX 1 1 1 1
BITMAP
80
ENDCHAR
STARTCHAR wifi_2
ENCODING 58457
SWIDTH 864 0
DWIDTH 12 0
BBX 3 2 1 1
BITMAP
20
A0
ENDCHAR
STARTCHAR wifi_3
ENCODING 58458
SWIDTH 864 0
DWIDTH 12 0
BBX 5 3 1 1
BITMAP
08
28
A8
ENDCHAR
STARTCHAR wifi_4
ENCODING 58459
SWIDTH 864 0
DWIDTH 12 0
BBX 7 4 1 1
BITMAP
02
0A
2A
AA
ENDCHAR
STARTCHAR wifi_5
ENCODING 58460
SWIDTH 864 0
DWIDTH 12 0
BBX 9 5 1 1
BITMAP
0080
0280
0A80
2A80
AA80
ENDCHAR
STARTCHAR wifi_alt_1
ENCODING 58461
SWIDTH 864 0
DWIDTH 12 0
BBX 9 1 1 1
BITMAP
AA80
ENDCHAR
STARTCHAR wifi_alt_2
ENCODING 58462
SWIDTH 864 0
DWIDTH 12 0
BBX 9 2 1 1
BITMAP
2000
AA80
ENDCHAR
STARTCHAR wifi_alt_3
ENCODING 58463
SWIDTH 864 0
DWIDTH 12 0
BBX 9 3 1 1
BITMAP
0800
2800
AA80
ENDCHAR
STARTCHAR wifi_alt_4
ENCODING 58464
SWIDTH 864 0
DWIDTH 12 0
BBX 9 4 1 1
BITMAP
0200
0A00
2A00
AA80
ENDCHAR
STARTCHAR wifi_alt_5
ENCODING 58465
SWIDTH 864 0
DWIDTH 12 0
BBX 9 5 1 1
BITMAP
0080
0280
0A80
2A80
AA80
ENDCHAR
STARTCHAR calendar_large
ENCODING 58466
SWIDTH 864 0
DWIDTH 12 0
BBX 12 9 0 -1
BITMAP
2A80
FFF0
AA90
8010
AAB0
8010
AAB0
8010
FFF0
ENDCHAR
STARTCHAR film_small
ENCODING 58467
SWIDTH 864 0
DWIDTH 12 0
BBX 10 7 1 0
BITMAP
FFC0
A140
E1C0
BF40
E1C0
A140
FFC0
ENDCHAR
STARTCHAR folder_small
ENCODING 58468
SWIDTH 864 0
DWIDTH 12 0
BBX 8 6 2 0
BITMAP
E0
FF
FF
FF
FF
FF
ENDCHAR
STARTCHAR view_calendar_month
ENCODING 58469
SWIDTH 864 0
DWIDTH 12 0
BBX 9 8 1 0
BITMAP
FF80
FF80
AA80
FF80
AA80
FF80
AA80
FF80
ENDCHAR
STARTCHAR calendar_small
ENCODING 58470
SWIDTH 864 0
DWIDTH 12 0
BBX 10 9 1 -1
BITMAP
5500
FFC0
D540
8040
AAC0
8040
AAC0
8040
FFC0
ENDCHAR
STARTCHAR char57959
ENCODING 58471
SWIDTH 864 0
DWIDTH 12 0
BBX 10 8 1 0
BITMAP
FFC0
FFC0
8040
AAC0
8040
AAC0
8040
FFC0
ENDCHAR
STARTCHAR editor_large
ENCODING 58472
SWIDTH 864 0
DWIDTH 12 0
BBX 10 8 1 0
BITMAP
7F80
FFC0
8040
BF40
8040
BF40
8040
FFC0
ENDCHAR
STARTCHAR char57961
ENCODING 58473
SWIDTH 864 0
DWIDTH 12 0
BBX 10 8 1 0
BITMAP
FFC0
FFC0
8040
AF40
8040
AF40
8040
FFC0
ENDCHAR
STARTCHAR char57962
ENCODING 58474
SWIDTH 864 0
DWIDTH 12 0
BBX 9 9 1 -1
BITMAP
4100
BE80
FF80
AA80
FF80
AA80
FF80
AA80
FF80
ENDCHAR
STARTCHAR layout_deck
ENCODING 58475
SWIDTH 864 0
DWIDTH 12 0
BBX 8 8 2 0
BITMAP
F7
F7
F7
F7
F7
F7
F7
F7
ENDCHAR
STARTCHAR char57964
ENCODING 58476
SWIDTH 864 0
DWIDTH 12 0
BBX 9 9 1 -1
BITMAP
FF80
FF80
8880
8880
8880
8880
8880
8880
FF80
ENDCHAR
STARTCHAR web_invert
ENCODING 58477
SWIDTH 864 0
DWIDTH 12 0
BBX 8 8 2 0
BITMAP
3C
66
EF
AF
A5
E5
72
3C
ENDCHAR
STARTCHAR char57966
ENCODING 58478
SWIDTH 864 0
DWIDTH 12 0
BBX 5 8 3 0
BITMAP
70
E8
98
88
50
70
70
20
ENDCHAR
STARTCHAR keyboard_layout
ENCODING 58479
SWIDTH 864 0
DWIDTH 12 0
BBX 12 8 0 0
BITMAP
FFF0
AA10
8050
EAD0
8010
AF50
8010
FFF0
ENDCHAR
STARTCHAR Quarter
ENCODING 58480
SWIDTH 864 0
DWIDTH 12 0
BBX 3 7 4 0
BITMAP
20
20
20
20
20
E0
E0
ENDCHAR
STARTCHAR Eighth
ENCODING 58481
SWIDTH 864 0
DWIDTH 12 0
BBX 5 7 3 0
BITMAP
30
28
28
20
20
E0
E0
ENDCHAR
STARTCHAR Beamed
ENCODING 58482
SWIDTH 864 0
DWIDTH 12 0
BBX 5 7 3 0
BITMAP
78
48
48
48
48
D8
D8
ENDCHAR
STARTCHAR Beamed
ENCODING 58483
SWIDTH 864 0
DWIDTH 12 0
BBX 5 7 3 0
BITMAP
78
78
48
78
48
D8
D8
ENDCHAR
STARTCHAR Music
ENCODING 58484
SWIDTH 864 0
DWIDTH 12 0
BBX 3 7 4 0
BITMAP
80
80
80
80
E0
A0
C0
ENDCHAR
STARTCHAR Music
ENCODING 58485
SWIDTH 864 0
DWIDTH 12 0
BBX 4 8 4 0
BITMAP
80
90
B0
D0
B0
D0
90
10
ENDCHAR
STARTCHAR Music
ENCODING 58486
SWIDTH 864 0
DWIDTH 12 0
BBX 5 8 3 0
BITMAP
10
58
70
D0
58
70
D0
40
ENDCHAR
STARTCHAR char57975
ENCODING 58487
SWIDTH 864 0
DWIDTH 12 0
BBX 8 9 2 -1
BITMAP
18
3C
7E
7E
7E
7E
FF
00
18
ENDCHAR
STARTCHAR char57975
ENCODING 58488
SWIDTH 864 0
DWIDTH 12 0
BBX 8 9 2 -1
BITMAP
98
7C
3E
5E
6E
76
FB
01
18
ENDCHAR
STARTCHAR char57977
ENCODING 58489
SWIDTH 864 0
DWIDTH 12 0
BBX 10 7 1 0
BITMAP
1FC0
3FC0
7AC0
FDC0
7AC0
3FC0
1FC0
ENDCHAR
STARTCHAR char57978
ENCODING 58490
SWIDTH 864 0
DWIDTH 12 0
BBX 8 8 2 0
BITMAP
FC
AF
AD
AD
AD
AE
FC
FC
ENDCHAR
STARTCHAR char57979
ENCODING 58491
SWIDTH 864 0
DWIDTH 12 0
BBX 6 6 3 0
BITMAP
C0
FC
FC
FC
FC
FC
ENDCHAR
STARTCHAR char57979
ENCODING 58492
SWIDTH 864 0
DWIDTH 12 0
BBX 7 7 2 0
BITMAP
C0
FE
FE
FE
FE
FE
FE
ENDCHAR
STARTCHAR char57981
ENCODING 58493
SWIDTH 864 0
DWIDTH 12 0
BBX 10 8 1 0
BITMAP
3F00
2100
FFC0
FFC0
8040
F3C0
FFC0
FFC0
ENDCHAR
STARTCHAR char57982
ENCODING 58494
SWIDTH 864 0
DWIDTH 12 0
BBX 8 8 2 0
BITMAP
80
88
8A
AA
AA
AA
80
FF
ENDCHAR
STARTCHAR char57982
ENCODING 58495
SWIDTH 864 0
DWIDTH 12 0
BBX 8 8 2 0
BITMAP
88
8A
AE
BF
BF
BF
80
FF
ENDCHAR
STARTCHAR char57984
ENCODING 58496
SWIDTH 864 0
DWIDTH 12 0
BBX 10 8 1 0
BITMAP
FFC0
8040
8040
8040
8040
8040
0700
FFC0
ENDCHAR
STARTCHAR char57985
ENCODING 58497
SWIDTH 864 0
DWIDTH 12 0
BBX 7 7 2 0
BITMAP
FE
FE
FA
F6
AE
DE
FE
ENDCHAR
STARTCHAR char57985
ENCODING 58498
SWIDTH 864 0
DWIDTH 12 0
BBX 7 7 2 0
BITMAP
FE
FE
D6
EE
D6
FE
FE
ENDCHAR
STARTCHAR char57987
ENCODING 58499
SWIDTH 864 0
DWIDTH 12 0
BBX 7 7 2 0
BITMAP
3E
BE
BE
BE
BE
80
FC
ENDCHAR
STARTCHAR char57988
ENCODING 58500
SWIDTH 864 0
DWIDTH 12 0
BBX 7 7 2 0
BITMAP
F8
FA
FA
FA
FA
02
7E
ENDCHAR
STARTCHAR char57989
ENCODING 58501
SWIDTH 864 0
DWIDTH 12 0
BBX 7 7 2 0
BITMAP
FC
80
BE
BE
BE
BE
3E
ENDCHAR
STARTCHAR char57990
ENCODING 58502
SWIDTH 864 0
DWIDTH 12 0
BBX 7 7 2 0
BITMAP
7E
02
FA
FA
FA
FA
F8
ENDCHAR
STARTCHAR char57991
ENCODING 58503
SWIDTH 864 0
DWIDTH 12 0
BBX 10 9 1 -1
BITMAP
7F00
7FC0
7F40
7F40
7F80
7F00
3E00
0000
FF80
ENDCHAR
STARTCHAR char57992
ENCODING 58504
SWIDTH 864 0
DWIDTH 12 0
BBX 8 8 2 0
BITMAP
99
7E
66
DB
DB
66
7E
99
ENDCHAR
STARTCHAR char57993
ENCODING 58505
SWIDTH 864 0
DWIDTH 12 0
BBX 6 6 3 0
BITMAP
B4
78
CC
CC
78
B4
ENDCHAR
STARTCHAR char57994
ENCODING 58506
SWIDTH 864 0
DWIDTH 12 0
BBX 9 9 1 -1
BITMAP
3E00
7F00
FD80
F380
EB80
E780
DF80
7F00
3E00
ENDCHAR
STARTCHAR char57995
ENCODING 58507
SWIDTH 864 0
DWIDTH 12 0
BBX 8 8 2 0
BITMAP
3C
7E
E7
DF
DF
E7
7E
3C
ENDCHAR
STARTCHAR char57996
ENCODING 58508
SWIDTH 864 0
DWIDTH 12 0
BBX 8 8 2 0
BITMAP
7E
FF
FF
FF
FF
7E
0C
06
ENDCHAR
STARTCHAR char57996
ENCODING 58509
SWIDTH 864 0
DWIDTH 12 0
BBX 8 8 2 0
BITMAP
7E
FF
FF
FF
FF
7E
30
60
ENDCHAR
STARTCHAR char57996
ENCODING 58510
SWIDTH 864 0
DWIDTH 12 0
BBX 9 10 2 -1
BITMAP
8000
4000
3E00
DF00
EF00
F700
FB00
7D00
3080
6000
ENDCHAR
STARTCHAR char57999
ENCODING 58511
SWIDTH 864 0
DWIDTH 12 0
BBX 10 10 1 -1
BITMAP
0100
0180
FFC0
0180
0100
2000
6000
FFC0
6000
2000
ENDCHAR
STARTCHAR char57999
ENCODING 58512
SWIDTH 864 0
DWIDTH 12 0
BBX 10 10 1 -1
BITMAP
0100
0180
FFC0
0180
0100
2000
6000
FFC0
6000
2000
ENDCHAR
STARTCHAR char57999
ENCODING 58513
SWIDTH 864 0
DWIDTH 12 0
BBX 9 10 1 -1
BITMAP
0200
0300
FF80
0300
0200
2000
6000
FF80
6000
2000
ENDCHAR
STARTCHAR char57999
ENCODING 58514
SWIDTH 864 0
DWIDTH 12 0
BBX 10 7 1 0
BITMAP
0100
0180
FFC0
0000
FFC0
6000
2000
ENDCHAR
STARTCHAR char57999
ENCODING 58515
SWIDTH 864 0
DWIDTH 12 0
BBX 10 8 1 0
BITMAP
0100
0180
FFC0
0000
0000
FFC0
6000
2000
ENDCHAR
STARTCHAR char57999
ENCODING 58516
SWIDTH 864 0
DWIDTH 12 0
BBX 8 8 2 0
BITMAP
04
06
FF
00
00
FF
60
20
ENDCHAR
STARTCHAR char58005
ENCODING 58517
SWIDTH 864 0
DWIDTH 12 0
BBX 10 8 1 0
BITMAP
2100
2380
27C0
2100
2100
F900
7100
2100
ENDCHAR
STARTCHAR char58005
ENCODING 58518
SWIDTH 864 0
DWIDTH 12 0
BBX 12 8 0 0
BITMAP
2040
20E0
21F0
2040
2040
F840
7040
2040
ENDCHAR
STARTCHAR char58005
ENCODING 58519
SWIDTH 864 0
DWIDTH 12 0
BBX 8 8 2 0
BITMAP
24
26
27
24
24
E4
64
24
ENDCHAR
STARTCHAR char58005
ENCODING 58520
SWIDTH 864 0
DWIDTH 12 0
BBX 10 8 1 0
BITMAP
2100
2180
21C0
2100
2100
E100
6100
2100
ENDCHAR
STARTCHAR char58009
ENCODING 58521
SWIDTH 864 0
DWIDTH 12 0
BBX 12 7 0 0
BITMAP
0070
0430
0850
1080
A100
C200
E000
ENDCHAR
STARTCHAR char58009
ENCODING 58522
SWIDTH 864 0
DWIDTH 12 0
BBX 12 9 0 -1
BITMAP
0200
0400
08F0
9070
E070
E090
F100
0200
0400
ENDCHAR
STARTCHAR char58009
ENCODING 58523
SWIDTH 864 0
DWIDTH 12 0
BBX 12 7 0 0
BITMAP
0070
0430
0850
1080
A100
C200
E000
ENDCHAR
STARTCHAR char58009
ENCODING 58524
SWIDTH 864 0
DWIDTH 12 0
BBX 12 7 0 0
BITMAP
0070
0030
0850
1080
A100
C000
E000
ENDCHAR
STARTCHAR char58013
ENCODING 58525
SWIDTH 864 0
DWIDTH 12 0
BBX 8 7 2 0
BITMAP
04
06
87
7C
7C
44
44
ENDCHAR
STARTCHAR char58014
ENCODING 58526
SWIDTH 864 0
DWIDTH 12 0
BBX 9 8 1 0
BITMAP
F300
8700
8E00
9C80
A880
B080
8080
FF80
ENDCHAR
STARTCHAR char58014
ENCODING 58527
SWIDTH 864 0
DWIDTH 12 0
BBX 9 9 1 -1
BITMAP
F980
8380
8700
8E00
9C80
A880
B080
8080
FF80
ENDCHAR
STARTCHAR char58016
ENCODING 58528
SWIDTH 864 0
DWIDTH 12 0
BBX 7 7 2 0
BITMAP
06
0E
1C
38
70
A0
C0
ENDCHAR
STARTCHAR char58017
ENCODING 58529
SWIDTH 864 0
DWIDTH 12 0
BBX 12 9 0 -1
BITMAP
E000
3FF0
1FE0
1FE0
0FC0
0FC0
0000
0FC0
0840
ENDCHAR
STARTCHAR char58018
ENCODING 58530
SWIDTH 864 0
DWIDTH 12 0
BBX 7 9 2 -1
BITMAP
92
44
38
38
38
38
38
28
28
ENDCHAR
STARTCHAR char58019
ENCODING 58531
SWIDTH 864 0
DWIDTH 12 0
BBX 11 10 1 -1
BITMAP
0780
FC80
AF80
FC80
AF80
FCE0
AFA0
FFE0
AFA0
FFE0
ENDCHAR
STARTCHAR char58020
ENCODING 58532
SWIDTH 864 0
DWIDTH 12 0
BBX 7 11 3 -1
BITMAP
10
28
FE
82
FE
FE
FE
FE
FE
FE
FE
ENDCHAR
STARTCHAR char58020
ENCODING 58533
SWIDTH 864 0
DWIDTH 12 0
BBX 7 11 3 -1
BITMAP
10
28
FE
82
FE
FA
F6
AE
DE
FE
FE
ENDCHAR
STARTCHAR char57998
ENCODING 58534
SWIDTH 864 0
DWIDTH 12 0
BBX 7 7 2 0
BITMAP
38
38
7C
38
10
00
FE
ENDCHAR
STARTCHAR char57998
ENCODING 58535
SWIDTH 864 0
DWIDTH 12 0
BBX 8 7 2 0
BITMAP
3C
3C
7E
3C
18
00
FF
ENDCHAR
STARTCHAR char58024
ENCODING 58536
SWIDTH 864 0
DWIDTH 12 0
BBX 9 11 1 -2
BITMAP
1400
3600
7500
B480
D580
A380
9780
9780
5700
3600
1400
ENDCHAR
STARTCHAR char58025
ENCODING 58537
SWIDTH 864 0
DWIDTH 12 0
BBX 12 7 0 0
BITMAP
F070
93C0
FF00
0C00
FF00
93C0
F070
ENDCHAR
STARTCHAR char58025
ENCODING 58538
SWIDTH 864 0
DWIDTH 12 0
BBX 11 7 0 0
BITMAP
E1E0
A780
FE00
1800
FE00
A780
E1E0
ENDCHAR
STARTCHAR char58023
ENCODING 58539
SWIDTH 864 0
DWIDTH 12 0
BBX 8 10 2 -1
BITMAP
3A
3B
B8
BF
BF
BF
BF
BF
80
FE
ENDCHAR
STARTCHAR char58028
ENCODING 58540
SWIDTH 864 0
DWIDTH 12 0
BBX 2 11 5 -2
BITMAP
C0
C0
00
C0
C0
00
C0
C0
00
C0
C0
ENDCHAR
STARTCHAR char58027
ENCODING 58541
SWIDTH 864 0
DWIDTH 12 0
BBX 11 2 0 2
BITMAP
DB60
DB60
ENDCHAR
STARTCHAR char58030
ENCODING 58542
SWIDTH 864 0
DWIDTH 12 0
BBX 12 7 0 0
BITMAP
0F00
1F80
79E0
F0F0
79E0
1F80
0F00
ENDCHAR
STARTCHAR char58030
ENCODING 58543
SWIDTH 864 0
DWIDTH 12 0
BBX 12 8 0 0
BITMAP
1000
0F00
1780
7BE0
F1F0
78E0
1F40
0F20
ENDCHAR
STARTCHAR char58032
ENCODING 58544
SWIDTH 864 0
DWIDTH 12 0
BBX 10 9 1 -1
BITMAP
0200
0700
0F80
1FC0
2F80
4700
2200
1400
FFC0
ENDCHAR
STARTCHAR char58033
ENCODING 58545
SWIDTH 864 0
DWIDTH 12 0
BBX 10 10 1 -1
BITMAP
E1C0
C0C0
A140
1200
0C00
0C00
1200
A140
C0C0
E1C0
ENDCHAR
STARTCHAR char58033
ENCODING 58546
SWIDTH 864 0
DWIDTH 12 0
BBX 8 8 2 0
BITMAP
E7
C3
A5
18
18
A5
C3
E7
ENDCHAR
STARTCHAR char58035
ENCODING 58547
SWIDTH 864 0
DWIDTH 12 0
BBX 9 10 2 -1
BITMAP
0780
F180
8280
8480
8800
9100
8100
8100
8100
FF00
ENDCHAR
STARTCHAR char58036
ENCODING 58548
SWIDTH 864 0
DWIDTH 12 0
BBX 11 10 0 -1
BITMAP
0400
0E00
0E00
1B00
1B00
3B80
3B80
7FC0
7BC0
FFE0
ENDCHAR
STARTCHAR U+E02D
ENCODING 58549
SWIDTH 864 0
DWIDTH 12 0
BBX 8 8 2 0
BITMAP
F8
04
F2
09
E5
15
D5
D5
ENDCHAR
STARTCHAR U+E02D
ENCODING 58550
SWIDTH 864 0
DWIDTH 12 0
BBX 8 8 2 0
BITMAP
1F
20
4F
90
A7
A8
AB
AB
ENDCHAR
STARTCHAR char57807
ENCODING 58551
SWIDTH 864 0
DWIDTH 12 0
BBX 8 10 2 -1
BITMAP
FC
8A
89
8F
81
81
81
81
81
FF
ENDCHAR
STARTCHAR char57807
ENCODING 58552
SWIDTH 864 0
DWIDTH 12 0
BBX 8 10 2 -1
BITMAP
F8
94
92
91
9F
81
81
81
81
FF
ENDCHAR
STARTCHAR char57807
ENCODING 58553
SWIDTH 864 0
DWIDTH 12 0
BBX 8 10 2 -1
BITMAP
F4
F6
F7
F0
FF
FF
FF
FF
FF
FF
ENDCHAR
STARTCHAR char57807
ENCODING 58554
SWIDTH 864 0
DWIDTH 12 0
BBX 8 10 2 -1
BITMAP
E8
EC
EE
EF
E0
FF
FF
FF
FF
FF
ENDCHAR
STARTCHAR char58043
ENCODING 58555
SWIDTH 864 0
DWIDTH 12 0
BBX 6 10 3 -1
BITMAP
E0
FC
FC
FC
FC
9C
80
80
80
80
ENDCHAR
STARTCHAR char58044
ENCODING 58556
SWIDTH 864 0
DWIDTH 12 0
BBX 7 9 2 -1
BITMAP
38
44
92
AA
8A
52
24
08
30
ENDCHAR
STARTCHAR char58045
ENCODING 58557
SWIDTH 864 0
DWIDTH 12 0
BBX 9 9 1 -1
BITMAP
FF80
7F00
3E00
1C00
0800
0800
0800
0800
3E00
ENDCHAR
STARTCHAR char58045
ENCODING 58558
SWIDTH 864 0
DWIDTH 12 0
BBX 9 9 2 -1
BITMAP
0300
0480
FE80
7D00
3800
1000
1000
1000
7C00
ENDCHAR
STARTCHAR char58047
ENCODING 58559
SWIDTH 864 0
DWIDTH 12 0
BBX 10 11 1 -2
BITMAP
3800
FC00
0F00
0FC0
1B80
1900
3000
3000
6000
6000
C000
ENDCHAR
STARTCHAR char58048
ENCODING 58560
SWIDTH 864 0
DWIDTH 12 0
BBX 10 6 1 0
BITMAP
1800
BFC0
BE00
BE00
BE00
BC00
ENDCHAR
STARTCHAR char58049
ENCODING 58561
SWIDTH 864 0
DWIDTH 12 0
BBX 9 9 1 -1
BITMAP
3E00
4100
8080
8080
B680
B680
7700
3600
3600
ENDCHAR
STARTCHAR char58050
ENCODING 58562
SWIDTH 864 0
DWIDTH 12 0
BBX 10 10 1 -1
BITMAP
7000
F800
FC00
FE00
7F00
3F80
1F00
0F00
0480
0040
ENDCHAR
STARTCHAR char58051
ENCODING 58563
SWIDTH 864 0
DWIDTH 12 0
BBX 11 11 0 -2
BITMAP
8000
6000
7800
3E00
3F80
1FE0
1FC0
0F80
0FC0
06E0
0460
ENDCHAR
STARTCHAR char58052
ENCODING 58564
SWIDTH 864 0
DWIDTH 12 0
BBX 9 10 2 -1
BITMAP
FE00
FF80
FE80
0080
0F00
1800
1800
1800
1800
1800
ENDCHAR
STARTCHAR char58053
ENCODING 58565
SWIDTH 864 0
DWIDTH 12 0
BBX 12 7 0 0
BITMAP
2FC0
7040
F840
2040
21F0
20E0
3F40
ENDCHAR
STARTCHAR char58053
ENCODING 58566
SWIDTH 864 0
DWIDTH 12 0
BBX 12 9 0 -1
BITMAP
0FC0
2040
7040
F840
2040
21F0
20E0
2040
3F00
ENDCHAR
STARTCHAR char58053
ENCODING 58567
SWIDTH 864 0
DWIDTH 12 0
BBX 12 9 0 -1
BITMAP
07C0
2040
7040
F840
2040
21F0
20E0
2040
3E00
ENDCHAR
STARTCHAR char58053
ENCODING 58568
SWIDTH 864 0
DWIDTH 12 0
BBX 12 9 0 -1
BITMAP
0780
20C0
7040
F840
2040
21F0
20E0
3040
1E00
ENDCHAR
STARTCHAR char58057
ENCODING 58569
SWIDTH 864 0
DWIDTH 12 0
BBX 9 9 1 -1
BITMAP
2200
7300
FB80
0300
2200
6000
EF80
6700
2200
ENDCHAR
STARTCHAR char58057
ENCODING 58570
SWIDTH 864 0
DWIDTH 12 0
BBX 9 9 1 -1
BITMAP
2200
7300
FF80
2300
2200
6200
FF80
6700
2200
ENDCHAR
STARTCHAR char58059
ENCODING 58571
SWIDTH 864 0
DWIDTH 12 0
BBX 10 10 1 -1
BITMAP
F000
C000
F000
C000
F000
C000
F540
D540
BFC0
7FC0
ENDCHAR
STARTCHAR char58060
ENCODING 58572
SWIDTH 864 0
DWIDTH 12 0
BBX 11 5 0 1
BITMAP
AAA0
AAA0
FFE0
FFE0
FFE0
ENDCHAR
STARTCHAR char58061
ENCODING 58573
SWIDTH 864 0
DWIDTH 12 0
BBX 10 11 1 -2
BITMAP
FFC0
FE40
FFC0
0000
FFC0
FE40
FFC0
0000
FFC0
FE40
FFC0
ENDCHAR
STARTCHAR char58062
ENCODING 58574
SWIDTH 864 0
DWIDTH 12 0
BBX 8 9 2 -1
BITMAP
7F
41
11
F9
FD
F9
11
41
7F
ENDCHAR
STARTCHAR char58063
ENCODING 58575
SWIDTH 864 0
DWIDTH 12 0
BBX 5 7 3 0
BITMAP
20
70
F8
00
F8
70
20
ENDCHAR
STARTCHAR char58063
ENCODING 58576
SWIDTH 864 0
DWIDTH 12 0
BBX 5 8 3 0
BITMAP
20
70
F8
00
00
F8
70
20
ENDCHAR
STARTCHAR char58065
ENCODING 58577
SWIDTH 864 0
DWIDTH 12 0
BBX 12 5 0 1
BITMAP
0080
0140
E230
1400
0800
ENDCHAR
STARTCHAR char58065
ENCODING 58578
SWIDTH 864 0
DWIDTH 12 0
BBX 12 9 0 -1
BITMAP
0080
0080
0140
0140
E230
1400
1400
0800
0800
ENDCHAR
STARTCHAR char58067
ENCODING 58579
SWIDTH 864 0
DWIDTH 12 0
BBX 11 11 0 -2
BITMAP
0E00
0E00
0E00
0400
0400
7FC0
4440
4440
EEE0
EEE0
EEE0
ENDCHAR
STARTCHAR char58068
ENCODING 58580
SWIDTH 864 0
DWIDTH 12 0
BBX 12 9 0 -1
BITMAP
2180
2000
21C0
2000
21C0
2000
F9E0
7000
21F0
ENDCHAR
STARTCHAR char58068
ENCODING 58581
SWIDTH 864 0
DWIDTH 12 0
BBX 12 9 0 -1
BITMAP
21F0
2000
21E0
2000
21C0
2000
F9C0
7000
2180
ENDCHAR
STARTCHAR char58070
ENCODING 58582
SWIDTH 864 0
DWIDTH 12 0
BBX 11 10 0 -1
BITMAP
C600
8200
8200
8260
8260
4440
3840
1040
0880
0700
ENDCHAR
STARTCHAR char58071
ENCODING 58583
SWIDTH 864 0
DWIDTH 12 0
BBX 8 8 2 0
BITMAP
FE
FE
00
7F
7F
00
FE
FE
ENDCHAR
STARTCHAR char58072
ENCODING 58584
SWIDTH 864 0
DWIDTH 12 0
BBX 12 11 0 -2
BITMAP
0700
0180
2080
70C0
F840
2040
21F0
30E0
1040
1800
0E00
ENDCHAR
STARTCHAR char57981
ENCODING 58585
SWIDTH 864 0
DWIDTH 12 0
BBX 10 8 1 0
BITMAP
3F00
2100
FFC0
CCC0
0000
CCC0
FFC0
FFC0
ENDCHAR
STARTCHAR char57981
ENCODING 58586
SWIDTH 864 0
DWIDTH 12 0
BBX 10 9 1 -1
BITMAP
3F00
2100
FFC0
FFC0
CCC0
0000
CCC0
FFC0
FFC0
ENDCHAR
STARTCHAR char58075
ENCODING 58587
SWIDTH 864 0
DWIDTH 12 0
BBX 12 10 0 -1
BITMAP
0600
1F80
7FE0
FFF0
6660
6660
6660
FFF0
0000
FFF0
ENDCHAR
STARTCHAR char58076
ENCODING 58588
SWIDTH 864 0
DWIDTH 12 0
BBX 8 10 2 -1
BITMAP
18
24
42
42
FF
FF
FF
FF
FF
FF
ENDCHAR
STARTCHAR char57998
ENCODING 58589
SWIDTH 864 0
DWIDTH 12 0
BBX 7 7 2 0
BITMAP
FE
00
10
38
7C
38
38
ENDCHAR
STARTCHAR char57998
ENCODING 58590
SWIDTH 864 0
DWIDTH 12 0
BBX 9 8 1 0
BITMAP
FF80
0000
0800
1C00
3E00
7F00
3E00
3E00
ENDCHAR
STARTCHAR char58079
ENCODING 58591
SWIDTH 864 0
DWIDTH 12 0
BBX 10 8 1 0
BITMAP
5540
AA80
0000
5540
AA80
0000
5540
AA80
ENDCHAR
STARTCHAR char58080
ENCODING 58592
SWIDTH 864 0
DWIDTH 12 0
BBX 9 10 1 -1
BITMAP
0800
1C00
3E00
7F00
8080
BE80
BE80
8080
BE80
BE80
ENDCHAR
STARTCHAR char58080
ENCODING 58593
SWIDTH 864 0
DWIDTH 12 0
BBX 9 10 1 -1
BITMAP
0800
1C00
3E00
7F00
8080
BE80
8080
BE80
8080
BE80
ENDCHAR
STARTCHAR char58082
ENCODING 58594
SWIDTH 864 0
DWIDTH 12 0
BBX 8 7 2 0
BITMAP
FE
80
FF
FF
FD
FF
FF
ENDCHAR
STARTCHAR char58083
ENCODING 58595
SWIDTH 864 0
DWIDTH 12 0
BBX 6 10 3 -1
BITMAP
FC
FC
FC
FC
FC
FC
78
30
78
FC
ENDCHAR
STARTCHAR char58083
ENCODING 58596
SWIDTH 864 0
DWIDTH 12 0
BBX 6 10 3 -1
BITMAP
FC
84
84
FC
FC
FC
78
30
78
FC
ENDCHAR
STARTCHAR char58085
ENCODING 58597
SWIDTH 864 0
DWIDTH 12 0
BBX 6 9 3 -1
BITMAP
FC
84
48
30
30
30
48
84
FC
ENDCHAR
STARTCHAR char58085
ENCODING 58598
SWIDTH 864 0
DWIDTH 12 0
BBX 6 9 3 -1
BITMAP
FC
84
48
30
30
30
78
FC
FC
ENDCHAR
STARTCHAR char58085
ENCODING 58599
SWIDTH 864 0
DWIDTH 12 0
BBX 6 9 3 -1
BITMAP
FC
FC
78
30
30
30
78
FC
FC
ENDCHAR
STARTCHAR U+E015
ENCODING 58600
SWIDTH 864 0
DWIDTH 12 0
BBX 8 8 2 0
BITMAP
3C
6E
EF
EF
F7
FB
7E
3C
ENDCHAR
STARTCHAR U+E015
ENCODING 58601
SWIDTH 864 0
DWIDTH 12 0
BBX 10 9 1 -1
BITMAP
4080
9E40
3700
7780
7780
7B80
7D80
3F00
1E00
ENDCHAR
STARTCHAR char58090
ENCODING 58602
SWIDTH 864 0
DWIDTH 12 0
BBX 10 8 1 0
BITMAP
FFC0
8040
B040
A040
8140
8340
8040
FFC0
ENDCHAR
STARTCHAR char58091
ENCODING 58603
SWIDTH 864 0
DWIDTH 12 0
BBX 8 7 2 0
BITMAP
FF
81
E7
FF
00
E7
FF
ENDCHAR
STARTCHAR char58092
ENCODING 58604
SWIDTH 864 0
DWIDTH 12 0
BBX 9 7 1 0
BITMAP
FF80
FF80
DF80
DD80
D580
D580
FF80
ENDCHAR
STARTCHAR char58093
ENCODING 58605
SWIDTH 864 0
DWIDTH 12 0
BBX 9 9 1 -1
BITMAP
FF80
F780
F780
F780
FF80
F780
FF80
6000
C000
ENDCHAR
STARTCHAR char58093
ENCODING 58606
SWIDTH 864 0
DWIDTH 12 0
BBX 11 11 0 -2
BITMAP
FFE0
FFE0
FBE0
FBE0
FBE0
FBE0
FFE0
FBE0
FFE0
6000
C000
ENDCHAR
STARTCHAR char58095
ENCODING 58607
SWIDTH 864 0
DWIDTH 12 0
BBX 10 7 1 0
BITMAP
FFC0
C1C0
FFC0
C7C0
FFC0
C0C0
FFC0
ENDCHAR
STARTCHAR char57826
ENCODING 58608
SWIDTH 864 0
DWIDTH 12 0
BBX 9 11 2 -2
BITMAP
7F80
0080
FE80
FE80
FE80
FE80
FE80
FE80
EE80
C680
8200
ENDCHAR
STARTCHAR char58097
ENCODING 58609
SWIDTH 864 0
DWIDTH 12 0
BBX 12 7 0 0
BITMAP
0100
2140
4220
8210
4420
2C40
0800
ENDCHAR
STARTCHAR char58098
ENCODING 58610
SWIDTH 864 0
DWIDTH 12 0
BBX 9 5 1 1
BITMAP
0280
0500
AA00
5400
2800
ENDCHAR
STARTCHAR char58099
ENCODING 58611
SWIDTH 864 0
DWIDTH 12 0
BBX 7 10 2 -1
BITMAP
FE
BA
FE
BA
FE
BA
FE
BA
FE
BA
ENDCHAR
STARTCHAR char58100
ENCODING 58612
SWIDTH 864 0
DWIDTH 12 0
BBX 9 9 1 -1
BITMAP
7F00
0000
7F00
FF80
FF80
FF80
4100
4100
7F00
ENDCHAR
STARTCHAR char58101
ENCODING 58613
SWIDTH 864 0
DWIDTH 12 0
BBX 8 9 2 -1
BITMAP
3C
FF
00
7E
7E
7E
7E
7E
7E
ENDCHAR
STARTCHAR char58101
ENCODING 58614
SWIDTH 864 0
DWIDTH 12 0
BBX 12 9 0 -1
BITMAP
3C00
FF00
0000
7EF0
7E00
7EC0
7E00
7EE0
7E00
ENDCHAR
STARTCHAR char58103
ENCODING 58615
SWIDTH 864 0
DWIDTH 12 0
BBX 10 6 1 1
BITMAP
8000
4400
2A00
1140
00C0
01C0
ENDCHAR
STARTCHAR char58104
ENCODING 58616
SWIDTH 864 0
DWIDTH 12 0
BBX 10 6 1 1
BITMAP
01C0
00C0
1140
2A00
4400
8000
ENDCHAR
STARTCHAR char58105
ENCODING 58617
SWIDTH 864 0
DWIDTH 12 0
BBX 9 9 1 -1
BITMAP
1C00
1C00
1C00
EB80
F780
EB80
1C00
1C00
1C00
ENDCHAR
STARTCHAR char58106
ENCODING 58618
SWIDTH 864 0
DWIDTH 12 0
BBX 7 7 2 0
BITMAP
FE
EE
EE
82
EE
EE
FE
ENDCHAR
STARTCHAR char58106
ENCODING 58619
SWIDTH 864 0
DWIDTH 12 0
BBX 9 9 2 -1
BITMAP
7F80
0080
FE80
EE80
EE80
8280
EE80
EE80
FE00
ENDCHAR
STARTCHAR char58106
ENCODING 58620
SWIDTH 864 0
DWIDTH 12 0
BBX 9 9 2 -1
BITMAP
7F80
0080
FE80
FE80
D680
EE80
D680
FE80
FE00
ENDCHAR
STARTCHAR char58106
ENCODING 58621
SWIDTH 864 0
DWIDTH 12 0
BBX 9 9 2 -1
BITMAP
7F80
0080
FE80
DE80
CE80
C680
CE80
DE80
FE00
ENDCHAR
STARTCHAR char58109
ENCODING 58622
SWIDTH 864 0
DWIDTH 12 0
BBX 8 9 2 -1
BITMAP
07
83
45
28
10
28
45
83
07
ENDCHAR
STARTCHAR char58109
ENCODING 58623
SWIDTH 864 0
DWIDTH 12 0
BBX 9 9 1 -1
BITMAP
8380
4180
2280
1400
0800
1400
2280
4180
8380
ENDCHAR
STARTCHAR char58112
ENCODING 58624
SWIDTH 864 0
DWIDTH 12 0
BBX 9 8 1 0
BITMAP
E380
C180
A280
1000
0800
0800
0800
0800
ENDCHAR
STARTCHAR char58093
ENCODING 58625
SWIDTH 864 0
DWIDTH 12 0
BBX 11 11 0 -2
BITMAP
FFE0
FFE0
C060
FFE0
C0E0
FFE0
C060
FFE0
FFE0
6000
C000
ENDCHAR
STARTCHAR char58114
ENCODING 58626
SWIDTH 864 0
DWIDTH 12 0
BBX 11 8 1 0
BITMAP
0FE0
0FE0
0000
3F80
3F80
0000
FE00
FE00
ENDCHAR
STARTCHAR char58115
ENCODING 58627
SWIDTH 864 0
DWIDTH 12 0
BBX 8 11 2 -2
BITMAP
DB
DB
00
DB
DB
00
DB
DB
00
18
18
ENDCHAR
STARTCHAR char58116
ENCODING 58628
SWIDTH 864 0
DWIDTH 12 0
BBX 9 9 1 -1
BITMAP
7F00
0000
FF80
F780
F780
C180
E380
F780
FF80
ENDCHAR
STARTCHAR char58102
ENCODING 58629
SWIDTH 864 0
DWIDTH 12 0
BBX 10 10 1 -1
BITMAP
3F00
4080
FFC0
F7C0
F3C0
F1C0
F3C0
F7C0
FFC0
7F80
ENDCHAR
STARTCHAR char58118
ENCODING 58630
SWIDTH 864 0
DWIDTH 12 0
BBX 9 11 1 -2
BITMAP
0400
0A00
1100
2080
4100
8200
4400
2800
1000
C780
FF80
ENDCHAR
STARTCHAR char58119
ENCODING 58631
SWIDTH 864 0
DWIDTH 12 0
BBX 9 9 1 -1
BITMAP
F000
8000
8580
E680
8480
8480
F480
0000
FF80
ENDCHAR
STARTCHAR char58119
ENCODING 58632
SWIDTH 864 0
DWIDTH 12 0
BBX 10 9 1 -1
BITMAP
7000
2080
2080
2380
2480
2480
7380
0000
FFC0
ENDCHAR
STARTCHAR char58121
ENCODING 58633
SWIDTH 864 0
DWIDTH 12 0
BBX 9 5 1 1
BITMAP
DF80
9080
9E80
8080
FF80
ENDCHAR
STARTCHAR char58122
ENCODING 58634
SWIDTH 864 0
DWIDTH 12 0
BBX 7 10 3 -1
BITMAP
FE
82
82
82
82
82
82
FE
C6
FE
ENDCHAR
STARTCHAR char58123
ENCODING 58635
SWIDTH 864 0
DWIDTH 12 0
BBX 10 5 1 1
BITMAP
FFC0
DFC0
8D40
DFC0
FFC0
ENDCHAR
ENDFONT
